<?xml version="1.0" encoding="UTF-8" standalone="no"?>
<svg width="18px" height="4px" viewBox="0 0 18 4" version="1.1" xmlns="http://www.w3.org/2000/svg" xmlns:xlink="http://www.w3.org/1999/xlink">
    <!-- Generator: Sketch 3.8.3 (29802) - http://www.bohemiancoding.com/sketch -->
    <title>Slice 1</title>
    <desc>Created with Sketch.</desc>
    <defs></defs>
    <g id="Page-1" stroke="none" stroke-width="1" fill="none" fill-rule="evenodd">
        <path d="M1.8,3.6042503 C2.79411255,3.6042503 3.6,2.79741138 3.6,1.80212515 C3.6,0.806838911 2.79411255,0 1.8,0 C0.80588745,0 0,0.806838911 0,1.80212515 C0,2.79741138 0.80588745,3.6042503 1.8,3.6042503 L1.8,3.6042503 L1.8,3.6042503 L1.8,3.6042503 Z M9,3.6042503 C9.99411255,3.6042503 10.8,2.79741138 10.8,1.80212515 C10.8,0.806838911 9.99411255,0 9,0 C8.00588745,0 7.2,0.806838911 7.2,1.80212515 C7.2,2.79741138 8.00588745,3.6042503 9,3.6042503 L9,3.6042503 L9,3.6042503 L9,3.6042503 Z M16.2,3.6042503 C17.1941125,3.6042503 18,2.79741138 18,1.80212515 C18,0.806838911 17.1941125,0 16.2,0 C15.2058874,0 14.4,0.806838911 14.4,1.80212515 C14.4,2.79741138 15.2058874,3.6042503 16.2,3.6042503 L16.2,3.6042503 L16.2,3.6042503 L16.2,3.6042503 Z" id="Actions-overflow" fill="#898B91"></path>
    </g>
</svg>