<?xml version="1.0" encoding="utf-8"?>
<!-- Generator: Adobe Illustrator 21.0.2, SVG Export Plug-In . SVG Version: 6.00 Build 0)  -->
<svg version="1.1" id="Layer_1" xmlns="http://www.w3.org/2000/svg" xmlns:xlink="http://www.w3.org/1999/xlink" x="0px" y="0px"
	 viewBox="0 0 150 150" style="enable-background:new 0 0 150 150;" xml:space="preserve">
<style type="text/css">
	.st0{fill:#FFFFFF;}
	.st1{fill:#F4F4F4;}
	.st2{fill:#282828;}
	.st3{fill:#12D1DB;}
	.st4{display:none;}
	.st5{display:inline;}
	.st6{display:inline;fill:none;stroke:#000000;stroke-width:1.2;stroke-miterlimit:10;}
</style>
<g>
	<g>
		<g>
			<line class="st3" x1="75.5" y1="3.6" x2="74.5" y2="146.4"/>
			<polygon class="st3" points="79.6,146.4 69.5,146.4 70.4,3.6 80.5,3.6 			"/>
		</g>
		<g>
			<polygon class="st3" points="70.6,146.4 71.5,3.6 79.4,3.6 78.5,146.4 			"/>
			<polygon class="st3" points="83.5,150 65.5,149.9 66.5,0 84.5,0.1 			"/>
		</g>
	</g>
	<g>
		<g>
			<line class="st3" x1="3.6" y1="74.7" x2="146.4" y2="75.3"/>
			
				<rect x="71.4" y="3.6" transform="matrix(4.639377e-03 -1 1 4.639377e-03 -0.3471 149.6512)" class="st3" width="7.1" height="142.8"/>
		</g>
		<g>
			
				<rect x="72.2" y="3.6" transform="matrix(4.834197e-03 -1 1 4.834197e-03 -0.3617 149.6366)" class="st3" width="5.6" height="142.8"/>
			
				<rect x="68.6" y="0" transform="matrix(4.631733e-03 -1 1 4.631733e-03 -0.3466 149.6518)" class="st3" width="12.8" height="149.9"/>
		</g>
	</g>
</g>
</svg>
