<?xml version="1.0" encoding="utf-8"?>
<!-- Generator: Adobe Illustrator 21.1.0, SVG Export Plug-In . SVG Version: 6.00 Build 0)  -->
<svg version="1.1" id="Layer_1" xmlns="http://www.w3.org/2000/svg" xmlns:xlink="http://www.w3.org/1999/xlink" x="0px" y="0px"
	 viewBox="0 0 150 150" style="enable-background:new 0 0 150 150;" xml:space="preserve">
<style type="text/css">
	.st0{fill:#FFFFFF;}
	.st1{fill:#F4F4F4;}
	.st2{fill:#282828;}
	.st3{fill:#12D1DB;}
	.st4{display:none;}
	.st5{display:inline;}
	.st6{display:inline;fill:none;stroke:#000000;stroke-width:1.2;stroke-miterlimit:10;}
	.st7{fill:#393C44;}
	.st8{fill:#515A5D;}
	.st9{fill:#12D1DB;stroke:#12D1DB;stroke-miterlimit:10;}
	.st10{fill:#515A5D;stroke:#515A5D;stroke-width:2;stroke-miterlimit:10;}
	.st11{fill:#A6E0DD;}
	.st12{fill:none;stroke:#515A5D;stroke-width:5;stroke-linecap:round;stroke-linejoin:round;stroke-miterlimit:10;}
	.st13{fill:#57F7FF;}
	.st14{fill:#5B6466;}
	.st15{fill:#9FC9C9;}
	.st16{fill:none;}
	.st17{fill:#959899;}
</style>
<g>
	<g>
		<g>
			<path class="st13" d="M130.2,95.2c-8.6,26.9-33.8,46.5-63.5,46.5C29.9,141.6,0,111.7,0,75S29.9,8.4,66.6,8.4
				c29.5,0,54.5,19.2,63.3,45.8l-1,0.2c-8.7-26.1-33.3-45-62.3-45C30.5,9.4,1,38.8,1,75s29.4,65.6,65.6,65.6
				c29.2,0,53.9-19.1,62.4-45.5L130.2,95.2z"/>
		</g>
	</g>
	<g>
		<g>
			<g>
				<path class="st14" d="M43.1,127.8c-0.5,0-1-0.1-1.5-0.3c-0.9-0.4-1.6-1.1-1.9-2l-17-44.2c-0.7-1.9,0.2-4,2.1-4.8L97,48.8
					c1.9-0.7,4,0.2,4.8,2.1l17,44.2c0.7,1.9-0.2,4-2.1,4.8l-72.2,27.7C44,127.7,43.5,127.8,43.1,127.8z M98.3,49.6
					c-0.3,0-0.6,0.1-0.9,0.2L25.2,77.5c-1.4,0.5-2,2-1.5,3.4l17,44.2c0.5,1.4,2,2,3.4,1.5l72.2-27.7c1.4-0.5,2-2,1.5-3.4l-17-44.2
					C100.4,50.2,99.4,49.6,98.3,49.6z"/>
			</g>
			<g>
				<path class="st14" d="M71.6,96.4c-0.4,0-0.8,0-1.2-0.1L23.2,82l0.3-1l47.2,14.3c1.9,0.4,3.7-0.3,4.8-1.9L101,51.2l0.9,0.5
					L76.4,94C75.2,95.5,73.5,96.4,71.6,96.4z"/>
			</g>
			<g>
				
					<rect x="32.3" y="109.5" transform="matrix(0.4904 -0.8715 0.8715 0.4904 -69.4448 101.2107)" class="st14" width="39" height="1.1"/>
			</g>
			<g>
				
					<rect x="98.9" y="72.4" transform="matrix(0.3193 -0.9477 0.9477 0.3193 -19.2956 156.7018)" class="st14" width="1.1" height="38.8"/>
			</g>
			<g>
				<polygon class="st15" points="47.3,125.2 53.2,122.9 53.1,119.8 47.4,122 				"/>
			</g>
			<g>
				<polygon class="st15" points="58.4,120.9 64.3,118.6 64.3,115.5 58.5,117.7 				"/>
			</g>
			<g>
				<polygon class="st15" points="69.6,116.6 75.4,114.4 75.4,111.2 69.6,113.5 				"/>
			</g>
			<g>
				<polygon class="st15" points="80.7,112.3 86.5,110.1 86.5,107 80.7,109.2 				"/>
			</g>
			<g>
				<polygon class="st15" points="91.8,108.1 97.6,105.8 97.6,102.7 91.9,104.9 				"/>
			</g>
			<g>
				<polygon class="st15" points="102.9,103.8 108.8,101.6 108.8,98.4 103,100.7 				"/>
			</g>
			<g>
				<polygon class="st15" points="40.7,124.9 38.5,119 40.8,116.9 43,122.7 				"/>
			</g>
			<g>
				<polygon class="st15" points="36.4,113.8 34.2,107.9 36.5,105.8 38.7,111.6 				"/>
			</g>
			<g>
				<polygon class="st15" points="32.2,102.6 29.9,96.8 32.3,94.7 34.5,100.5 				"/>
			</g>
			<g>
				<polygon class="st15" points="27.9,91.5 25.7,85.7 28,83.6 30.2,89.4 				"/>
			</g>
			<g>
				<polygon class="st15" points="117.6,95.4 115.3,89.5 112.2,89.5 114.4,95.3 				"/>
			</g>
			<g>
				<polygon class="st15" points="113.3,84.2 111.1,78.4 107.9,78.4 110.1,84.2 				"/>
			</g>
			<g>
				<polygon class="st15" points="109,73.1 106.8,67.3 103.7,67.3 105.9,73.1 				"/>
			</g>
			<g>
				<polygon class="st15" points="104.8,62 102.5,56.2 99.4,56.2 101.6,62 				"/>
			</g>
		</g>
		<g>
			<path class="st16" d="M66.6,9.6C30.5,9.6,1.2,38.9,1.2,75c0,8.3,1.6,16.2,4.4,23.5c1.2-0.8,1.9-1.4,2-1.4
				c10.4-9.9,20.7-3.7,20.9-3.6l0.1,0.1l9.3,24.2l-0.1,0.2c-2.3,5.4-5.4,8.7-8.5,10.7c10.6,7.4,23.5,11.8,37.5,11.8
				c36.1,0,65.4-29.3,65.4-65.4S102.8,9.6,66.6,9.6z"/>
			<path class="st16" d="M36.6,117.7l-9-23.4c-1.3-0.7-10.2-5.3-19.4,3.6c-0.1,0.1-0.9,0.8-2.3,1.6c2.1,5.2,4.8,10,8.1,14.4l1.6-1.2
				l-1.2,1.8c2.1,2.8,4.4,5.3,6.9,7.7c0.4-0.3,0.8-0.5,1.2-0.8l2-1.4l-1.2,2.1c0,0.1-0.3,0.5-0.8,1.2c1.8,1.7,3.8,3.2,5.8,4.7
				C31.3,126.1,34.3,122.9,36.6,117.7z"/>
			<path class="st14" d="M24.6,120l-2,1.4c-0.4,0.3-0.8,0.6-1.2,0.8c0.4,0.4,0.8,0.8,1.2,1.1c0.5-0.7,0.8-1.2,0.8-1.2L24.6,120z"/>
			<path class="st14" d="M37.7,117.9l0.1-0.2l-9.3-24.2l-0.1-0.1c-0.1-0.1-10.5-6.3-20.9,3.6c0,0-0.7,0.6-2,1.4
				c0.1,0.3,0.3,0.7,0.4,1c1.4-0.9,2.2-1.6,2.3-1.6c9.2-8.8,18.1-4.3,19.4-3.6l9,23.4c-2.3,5.2-5.3,8.4-8.3,10.3
				c0.3,0.2,0.6,0.4,0.9,0.6C32.3,126.6,35.4,123.3,37.7,117.9z"/>
			<path class="st14" d="M14,113.9c0.1,0.2,0.3,0.4,0.4,0.6l1.2-1.8L14,113.9z"/>
		</g>
		<g>
			<path class="st14" d="M127.1,94.5c-3.1,0-6.5-0.7-10.5-2.5l-0.2-0.1l-9.3-24.2l0-0.2c0-0.1,3.5-11.8,17.9-11.3
				c0.1,0,10.9-0.3,19.5-9.3l0.6-0.7l0.2,0.9c0.1,0.3,1.7,6.3-1.1,10.7c-0.8,1.3-1.9,2.3-3.3,3c2.2-0.2,5.1-0.9,7.9-2.7l1-0.7
				l-0.2,1.2c0,0.1-2.1,11.7-14.1,14.9c3,0.2,7.7,0.2,12.4-1.6l1-0.4l-0.4,1.1c0,0.1-3.5,9.9-15.8,12.6c2.3,0.4,5.9,0.6,9.6-0.2
				l1.2-0.3l-0.6,1C143.2,85.7,137.9,94.5,127.1,94.5z M117.2,91.2c14.1,6.3,22-2,24.3-5c-6.2,1-11.3-0.5-11.5-0.6l-2.3-0.7l2.4-0.3
				c11.3-1.3,15.9-8.5,17.2-11.2c-7.7,2.6-14.7,0.9-15,0.8l-2.9-0.7l2.9-0.3c11.4-1.3,15.1-10.1,16-13.4c-5.3,3-10.6,2.3-10.8,2.3
				l-3.4-0.5l3.4-0.6c2.7-0.5,4.7-1.7,5.9-3.6c1.9-3,1.5-7.1,1.1-8.9c-8.8,8.7-19.1,8.9-19.6,8.9c-0.3,0-0.5,0-0.8,0
				c-12.1,0-15.6,9.1-16.1,10.4L117.2,91.2z"/>
		</g>
	</g>
	<path class="st16" d="M66.6,9.6C30.5,9.6,1.2,38.9,1.2,75c0,1,0,1.9,0.1,2.9l4.5-1.2c0.3-0.1,0.6,0.1,0.6,0.4
		c0.1,0.3-0.1,0.6-0.4,0.6L1.3,79c0.1,1.5,0.2,2.9,0.4,4.4l12.2-2.9c0.3-0.1,0.6,0.1,0.6,0.4c0.1,0.3-0.1,0.6-0.4,0.6L1.9,84.4
		c0.3,2.1,0.7,4.2,1.2,6.3l0.6-0.1C4,90.5,4.3,90.7,4.4,91c0.1,0.3-0.1,0.6-0.4,0.6l-0.6,0.1c7.4,28,32.9,48.7,63.3,48.7
		c36.1,0,65.4-29.3,65.4-65.4S102.8,9.6,66.6,9.6z"/>
	<path class="st17" d="M4.4,91c-0.1-0.3-0.3-0.5-0.6-0.4l-0.6,0.1c0.1,0.3,0.2,0.7,0.3,1L4,91.6C4.2,91.5,4.4,91.3,4.4,91z"/>
	<path class="st17" d="M14.6,80.9c-0.1-0.3-0.3-0.5-0.6-0.4L1.7,83.4c0,0.3,0.1,0.7,0.1,1l12.3-2.9C14.4,81.5,14.6,81.2,14.6,80.9z"
		/>
	<path class="st17" d="M6.4,77.1c-0.1-0.3-0.4-0.5-0.6-0.4l-4.5,1.2c0,0.4,0,0.7,0.1,1.1L6,77.7C6.3,77.7,6.4,77.4,6.4,77.1z"/>
	<g>
		<path class="st17" d="M141.3,95c0,0-0.1,0-0.1,0c-0.3,0-0.5-0.2-0.5-0.5c0-0.3,0.2-0.5,0.5-0.5c0,0,0.1,0,0.1,0
			c2.9,0,3.7-3.9,3.8-3.9c0.1-0.3,0.3-0.4,0.6-0.4c0.3,0.1,0.4,0.3,0.4,0.6C145.7,91.9,144.3,95,141.3,95z"/>
	</g>
</g>
</svg>
