<?xml version="1.0" encoding="utf-8"?>
<!-- Generator: Adobe Illustrator 21.1.0, SVG Export Plug-In . SVG Version: 6.00 Build 0)  -->
<svg version="1.1" id="Layer_1" xmlns="http://www.w3.org/2000/svg" xmlns:xlink="http://www.w3.org/1999/xlink" x="0px" y="0px"
	 viewBox="0 0 150 150" style="enable-background:new 0 0 150 150;" xml:space="preserve">
<style type="text/css">
	.st0{fill:#FFFFFF;}
	.st1{fill:#F4F4F4;}
	.st2{fill:#282828;}
	.st3{fill:#12D1DB;}
	.st4{display:none;}
	.st5{display:inline;}
	.st6{display:inline;fill:none;stroke:#000000;stroke-width:1.2;stroke-miterlimit:10;}
	.st7{fill:#393C44;}
	.st8{fill:#515A5D;}
	.st9{fill:#12D1DB;stroke:#12D1DB;stroke-miterlimit:10;}
	.st10{fill:#515A5D;stroke:#515A5D;stroke-width:2;stroke-miterlimit:10;}
	.st11{fill:#A6E0DD;}
	.st12{fill:none;stroke:#515A5D;stroke-width:5;stroke-linecap:round;stroke-linejoin:round;stroke-miterlimit:10;}
	.st13{fill:#57F7FF;}
	.st14{fill:#5B6466;}
	.st15{fill:#9FC9C9;}
	.st16{fill:none;}
	.st17{fill:#959899;}
</style>
<g>
	<g>
		<g>
			<path class="st13" d="M122.9,121.3c-12.1,12.6-29.1,20.4-47.9,20.4c-36.7,0-66.6-29.9-66.6-66.6S38.3,8.4,75,8.4
				s66.6,29.9,66.6,66.6c0,12.8-3.6,24.8-10,35l-0.8-0.8c6.1-10,9.7-21.7,9.7-34.2c0-36.2-29.4-65.6-65.6-65.6S9.4,38.8,9.4,75
				s29.4,65.6,65.6,65.6c18,0,34.3-7.3,46.1-19L122.9,121.3z"/>
		</g>
	</g>
	<g>
		<path class="st16" d="M38.6,129.5c0.5,0.3,0.9,0.6,1.4,0.9l-1.4-44.8V129.5z"/>
		<path class="st16" d="M75,140.5c12.2,0,23.6-3.3,33.4-9.2l-34.6,9.1C74.2,140.5,74.6,140.5,75,140.5z"/>
		<path class="st16" d="M41.1,131.1c2.6,1.5,5.2,2.9,8,4.1c-4.5-16-8-46.2-9.9-65.4L41.1,131.1z"/>
		<path class="st16" d="M75,9.5C38.8,9.5,9.5,38.8,9.5,75c0,22.3,11.1,41.9,28.1,53.8V52.4v0c0,0,0-0.1,0-0.1c0,0,0-0.1,0-0.1
			c0,0,0-0.1,0.1-0.1c0,0,0,0,0-0.1c0,0,0.1-0.1,0.1-0.1c0,0,0,0,0,0c0.1,0,0.1,0,0.2,0c0,0,0,0,0,0c0,0,0,0,0,0
			c0.2,0,0.4,0.1,0.5,0.3c0,0,0,0,0,0c0,0,0,0.1,0,0.1c0,0,0,0,0,0.1c1.9,23.7,6.4,64.9,11.7,83.4c6.2,2.5,13,4.2,20,4.7l41.1-10.9
			c0.1-0.1,0.2-0.1,0.3-0.2l-1.9-6c-0.1-0.3,0.1-0.6,0.3-0.7c0.3-0.1,0.6,0.1,0.7,0.3l1.8,5.7c16.9-11.9,28-31.5,28-53.7
			C140.5,38.8,111.2,9.5,75,9.5z"/>
		<path class="st14" d="M37.6,52.4v76.4c0.4,0.2,0.7,0.5,1.1,0.7V85.6L37.6,52.4z"/>
		<path class="st14" d="M38.5,52.1C38.5,52.1,38.5,52.1,38.5,52.1C38.5,52.1,38.5,52.1,38.5,52.1z"/>
		<path class="st14" d="M38.1,51.8c-0.1,0-0.1,0-0.2,0C37.9,51.8,38,51.8,38.1,51.8C38.1,51.8,38.1,51.8,38.1,51.8z"/>
		<path class="st14" d="M37.7,52c0,0,0.1-0.1,0.1-0.1C37.8,51.9,37.7,51.9,37.7,52z"/>
		<path class="st14" d="M38.6,52.2C38.6,52.3,38.6,52.3,38.6,52.2l0.6,17.6c1.9,19.2,5.5,49.4,9.9,65.4c0.4,0.2,0.8,0.3,1.2,0.5
			C45,117.2,40.5,76,38.6,52.2C38.6,52.3,38.6,52.3,38.6,52.2z"/>
		<path class="st14" d="M110.1,122.7c-0.3,0.1-0.4,0.4-0.3,0.7l1.9,6c0.3-0.2,0.6-0.4,0.9-0.6l-1.8-5.7
			C110.7,122.7,110.4,122.6,110.1,122.7z"/>
		<path class="st14" d="M37.6,52.3L37.6,52.3c0,0,0-0.1,0-0.1C37.6,52.3,37.6,52.3,37.6,52.3z"/>
		<path class="st14" d="M73.8,140.5l34.6-9.1c1-0.6,2-1.2,3-1.9l-41.1,10.9C71.4,140.4,72.6,140.5,73.8,140.5z"/>
		<path class="st14" d="M37.6,52.2C37.6,52.1,37.6,52.1,37.6,52.2C37.6,52.1,37.6,52.1,37.6,52.2z"/>
		<path class="st14" d="M38.6,52.3C38.6,52.3,38.6,52.3,38.6,52.3c0-0.1,0-0.2-0.1-0.2c0,0,0,0,0,0c-0.1-0.2-0.3-0.3-0.5-0.3
			c0,0,0,0,0,0c-0.1,0-0.1,0-0.2,0c0,0,0,0,0,0c0,0-0.1,0.1-0.1,0.1c0,0,0,0,0,0.1c0,0,0,0.1-0.1,0.1c0,0,0,0.1,0,0.1
			c0,0,0,0.1,0,0.1l1.1,33.3l1.4,44.8c0.4,0.2,0.7,0.5,1.1,0.7l-1.9-61.3L38.6,52.3z"/>
	</g>
	<g>
		<path class="st14" d="M74.8,130.1c-1.6,0-22.1-1.6-37.3-77.6c0-0.1,0-0.3,0.1-0.4c0.1-0.1,0.2-0.2,0.3-0.2l65.6-12.2
			c0.1,0,0.3,0,0.4,0.1c0.1,0.1,0.2,0.2,0.2,0.4c0.1,0.6,9.9,64.2,36.4,76.8c0.2,0.1,0.3,0.3,0.3,0.5c0,0.2-0.2,0.4-0.4,0.4
			L74.8,130.1C74.9,130.1,74.8,130.1,74.8,130.1z M38.7,52.8C53.8,128.3,74.5,129,74.8,129c0,0,0,0,0,0l64-11.9
			c-25-13.7-34.5-69.8-35.5-76.3L38.7,52.8z"/>
	</g>
	<g>
		<path class="st14" d="M47.3,57.9c-0.6,0-1.2-0.5-1.5-1.3c-0.3-0.9,0.1-1.8,0.8-2c0.4-0.1,0.8,0,1.1,0.2c0.3,0.2,0.6,0.6,0.7,1
			c0.3,0.9-0.1,1.8-0.8,2C47.5,57.8,47.4,57.9,47.3,57.9z M46.9,55c-0.1,0-0.1,0-0.2,0c-0.4,0.1-0.7,0.8-0.5,1.4s0.7,1,1.2,0.9
			c0.4-0.1,0.7-0.8,0.5-1.4l0,0c-0.1-0.3-0.3-0.6-0.5-0.7C47.3,55.1,47.1,55,46.9,55z"/>
	</g>
	<g>
		<path class="st14" d="M55.7,56.3c-0.6,0-1.2-0.5-1.5-1.3c-0.1-0.4-0.1-0.9,0-1.2c0.1-0.4,0.4-0.7,0.8-0.8c0.4-0.1,0.8,0,1.1,0.2
			c0.3,0.2,0.6,0.6,0.7,1c0.3,0.9-0.1,1.8-0.8,2C55.9,56.3,55.8,56.3,55.7,56.3z M55.3,53.4c-0.1,0-0.1,0-0.2,0
			c-0.2,0.1-0.4,0.2-0.5,0.5c-0.1,0.3-0.1,0.6,0,0.9c0.2,0.6,0.7,1,1.2,0.9c0.4-0.1,0.7-0.8,0.5-1.4l0,0c-0.1-0.3-0.3-0.6-0.5-0.7
			C55.6,53.5,55.5,53.4,55.3,53.4z"/>
	</g>
	<g>
		<path class="st14" d="M64,54.7c-0.6,0-1.2-0.5-1.5-1.3c-0.1-0.4-0.1-0.9,0-1.2c0.1-0.4,0.4-0.7,0.8-0.8c0.4-0.1,0.8,0,1.1,0.2
			c0.3,0.2,0.6,0.6,0.7,1l0,0c0.1,0.4,0.1,0.9,0,1.2c-0.1,0.4-0.4,0.7-0.8,0.8C64.3,54.7,64.2,54.7,64,54.7z M63.7,51.9
			c-0.1,0-0.1,0-0.2,0c-0.2,0.1-0.4,0.2-0.5,0.5c-0.1,0.3-0.1,0.6,0,0.9c0.2,0.6,0.7,1,1.2,0.9c0.2-0.1,0.4-0.2,0.5-0.5
			c0.1-0.3,0.1-0.6,0-0.9l0,0c-0.1-0.3-0.3-0.6-0.5-0.7C64,51.9,63.9,51.9,63.7,51.9z"/>
	</g>
	<g>
		<path class="st14" d="M72.4,53.1c-0.6,0-1.2-0.5-1.5-1.3c-0.1-0.4-0.1-0.9,0-1.2c0.1-0.4,0.4-0.7,0.8-0.8c0.4-0.1,0.8,0,1.1,0.2
			c0.3,0.2,0.6,0.6,0.7,1l0,0c0.1,0.4,0.1,0.9,0,1.2c-0.1,0.4-0.4,0.7-0.8,0.8C72.7,53.1,72.5,53.1,72.4,53.1z M72.1,50.3
			c-0.1,0-0.1,0-0.2,0c-0.2,0.1-0.4,0.2-0.5,0.5c-0.1,0.3-0.1,0.6,0,0.9c0.2,0.6,0.7,1,1.2,0.9c0.2-0.1,0.4-0.2,0.5-0.5
			c0.1-0.3,0.1-0.6,0-0.9l0,0c-0.1-0.3-0.3-0.6-0.5-0.7C72.4,50.3,72.2,50.3,72.1,50.3z"/>
	</g>
	<g>
		<path class="st14" d="M80.8,51.5c-0.3,0-0.5-0.1-0.8-0.3c-0.3-0.2-0.6-0.6-0.7-1c-0.1-0.4-0.1-0.9,0-1.2c0.1-0.4,0.4-0.7,0.8-0.8
			c0.7-0.2,1.5,0.3,1.8,1.2l0,0c0.1,0.4,0.1,0.9,0,1.2c-0.1,0.4-0.4,0.7-0.8,0.8C81,51.5,80.9,51.5,80.8,51.5z M80.5,48.7
			c-0.1,0-0.1,0-0.2,0c-0.2,0.1-0.4,0.2-0.5,0.5c-0.1,0.3-0.1,0.6,0,0.9c0.1,0.3,0.3,0.6,0.5,0.7C80.6,51,80.8,51,81,51
			c0.2-0.1,0.4-0.2,0.5-0.5c0.1-0.3,0.1-0.6,0-0.9l0,0C81.3,49,80.9,48.7,80.5,48.7z"/>
	</g>
	<g>
		<path class="st14" d="M89.2,49.9c-0.3,0-0.5-0.1-0.8-0.3c-0.3-0.2-0.6-0.6-0.7-1c-0.1-0.4-0.1-0.9,0-1.2c0.1-0.4,0.4-0.7,0.8-0.8
			c0.7-0.2,1.5,0.3,1.8,1.2l0,0c0.3,0.9-0.1,1.8-0.8,2C89.4,49.9,89.3,49.9,89.2,49.9z M88.8,47.1c-0.1,0-0.1,0-0.2,0
			c-0.2,0.1-0.4,0.2-0.5,0.5c-0.1,0.3-0.1,0.6,0,0.9s0.3,0.6,0.5,0.7c0.2,0.2,0.4,0.2,0.6,0.1c0.4-0.1,0.7-0.8,0.5-1.4l0,0
			C89.7,47.5,89.2,47.1,88.8,47.1z"/>
	</g>
	<g>
		<path class="st14" d="M97.6,48.3c-0.3,0-0.5-0.1-0.8-0.3c-0.3-0.2-0.6-0.6-0.7-1c-0.3-0.9,0.1-1.8,0.8-2c0.7-0.2,1.5,0.3,1.8,1.2
			l0,0c0.3,0.9-0.1,1.8-0.8,2C97.8,48.3,97.7,48.3,97.6,48.3z M97.2,45.5c-0.1,0-0.1,0-0.2,0c-0.4,0.1-0.7,0.8-0.5,1.4
			c0.1,0.3,0.3,0.6,0.5,0.7c0.2,0.1,0.4,0.2,0.6,0.1c0.4-0.1,0.7-0.8,0.5-1.4l0,0C98,45.9,97.6,45.5,97.2,45.5z"/>
	</g>
	<g>
		<path class="st15" d="M47.2,56.6c-0.1,0-0.1,0-0.2-0.1c-0.2-0.1-0.2-0.4-0.1-0.5c0,0,2-3.5,0-6.3c-0.3-0.5-0.7-0.7-1-0.7
			c-0.3,0-0.5,0.3-0.6,0.7l-0.1,0.5c-0.1,0.2-0.3,0.3-0.5,0.3c-0.2-0.1-0.3-0.3-0.3-0.5l0.1-0.5c0.2-0.7,0.7-1.2,1.3-1.3
			c0.4-0.1,1,0,1.7,1c2.3,3.2,0.1,7,0,7.2C47.4,56.5,47.3,56.6,47.2,56.6z"/>
	</g>
	<g>
		<path class="st15" d="M55.5,55c-0.1,0-0.1,0-0.2-0.1c-0.2-0.1-0.2-0.4-0.1-0.5c0,0,2-3.5,0-6.3c-0.3-0.5-0.7-0.7-1-0.7
			c-0.3,0-0.5,0.3-0.6,0.7l-0.1,0.5c-0.1,0.2-0.3,0.3-0.5,0.3c-0.2-0.1-0.3-0.3-0.3-0.5l0.1-0.5c0.2-0.7,0.7-1.2,1.3-1.3
			c0.4-0.1,1,0,1.7,1c2.3,3.2,0.1,7,0,7.2C55.8,54.9,55.6,55,55.5,55z"/>
	</g>
	<g>
		<path class="st15" d="M63.9,53.4c-0.1,0-0.1,0-0.2-0.1c-0.2-0.1-0.2-0.4-0.1-0.5c0,0,2-3.5,0-6.3c-0.3-0.5-0.7-0.7-1-0.7
			c-0.3,0-0.5,0.3-0.6,0.7L61.8,47c-0.1,0.2-0.3,0.3-0.5,0.3c-0.2-0.1-0.3-0.3-0.3-0.5l0.1-0.5c0.2-0.7,0.7-1.2,1.3-1.3
			c0.4-0.1,1,0,1.7,1c2.3,3.2,0.1,7,0,7.2C64.1,53.3,64,53.4,63.9,53.4z"/>
	</g>
	<g>
		<path class="st15" d="M72.2,51.8c-0.1,0-0.1,0-0.2-0.1c-0.2-0.1-0.2-0.4-0.1-0.5c0,0,2-3.5,0-6.3c-0.3-0.5-0.7-0.7-1-0.7
			c-0.3,0-0.5,0.3-0.6,0.7l-0.1,0.5c-0.1,0.2-0.3,0.3-0.5,0.3c-0.2-0.1-0.3-0.3-0.3-0.5l0.1-0.5c0.2-0.7,0.7-1.2,1.3-1.3
			c0.4-0.1,1,0.1,1.7,1c2.3,3.2,0.1,7,0,7.2C72.5,51.7,72.4,51.8,72.2,51.8z"/>
	</g>
	<g>
		<path class="st15" d="M80.6,50.2c-0.1,0-0.1,0-0.2-0.1c-0.2-0.1-0.2-0.4-0.1-0.5c0,0,2-3.5,0-6.3c-0.3-0.5-0.7-0.7-1-0.7
			c-0.3,0-0.5,0.3-0.6,0.7l-0.1,0.5c-0.1,0.2-0.3,0.3-0.5,0.3c-0.2-0.1-0.3-0.3-0.3-0.5l0.1-0.5c0.2-0.7,0.7-1.2,1.3-1.3
			c0.4-0.1,1,0,1.7,1c2.3,3.2,0.1,7,0,7.2C80.8,50.2,80.7,50.2,80.6,50.2z"/>
	</g>
	<g>
		<path class="st15" d="M88.9,48.6c-0.1,0-0.1,0-0.2-0.1c-0.2-0.1-0.2-0.4-0.1-0.5c0,0,2-3.5,0-6.3c-0.3-0.5-0.7-0.7-1-0.7
			c-0.3,0-0.5,0.3-0.6,0.7l-0.1,0.5c-0.1,0.2-0.3,0.3-0.5,0.3c-0.2-0.1-0.3-0.3-0.3-0.5l0.1-0.5c0.2-0.7,0.7-1.2,1.3-1.3
			c0.4-0.1,1,0,1.7,1c2.3,3.2,0.1,7,0,7.2C89.2,48.6,89.1,48.6,88.9,48.6z"/>
	</g>
	<g>
		<path class="st15" d="M97.3,47.1c-0.1,0-0.1,0-0.2-0.1c-0.2-0.1-0.2-0.4-0.1-0.5c0,0,2-3.5,0-6.3c-0.3-0.5-0.7-0.7-1-0.7
			c-0.3,0-0.5,0.3-0.6,0.7l-0.1,0.5C95.2,40.9,95,41,94.8,41c-0.2-0.1-0.3-0.3-0.3-0.5l0.1-0.5c0.2-0.7,0.7-1.2,1.3-1.3
			c0.4-0.1,1,0,1.7,1c2.3,3.2,0.1,7,0,7.2C97.6,47,97.4,47.1,97.3,47.1z"/>
	</g>
	<g>
		<path class="st15" d="M60.4,70.5c0.7,2.4-0.1,4.9-1.8,5.5c-1.8,0.7-3.8-0.7-4.5-3.1s0.1-4.9,1.8-5.5
			C57.6,66.7,59.7,68.1,60.4,70.5z"/>
	</g>
	<g>
		<path class="st17" d="M67.4,71.3c-0.1,0-0.2-0.1-0.3-0.2c0-0.1,0.1-0.3,0.2-0.3c0.2,0,18.3-2.5,26.4-6.4c0.1-0.1,0.3,0,0.4,0.1
			c0.1,0.1,0,0.3-0.1,0.4C85.9,68.8,67.6,71.3,67.4,71.3C67.4,71.3,67.4,71.3,67.4,71.3z"/>
	</g>
	<g>
		<path class="st17" d="M74,89.5c-0.1,0-0.2-0.1-0.3-0.2c0-0.1,0.1-0.3,0.2-0.3c0.2,0,18.3-2.5,26.4-6.4c0.1-0.1,0.3,0,0.4,0.1
			c0.1,0.1,0,0.3-0.1,0.4C92.4,87,74.2,89.5,74,89.5C74,89.5,74,89.5,74,89.5z"/>
	</g>
	<g>
		<path class="st17" d="M83.8,108.1c-0.1,0-0.2-0.1-0.3-0.2c0-0.1,0.1-0.3,0.2-0.3c0.2,0,18.3-2.5,26.4-6.4c0.1-0.1,0.3,0,0.4,0.1
			c0.1,0.1,0,0.3-0.1,0.4C102.3,105.6,84,108,83.8,108.1C83.8,108.1,83.8,108.1,83.8,108.1z"/>
	</g>
	<g>
		<path class="st15" d="M68.2,87.8c1,2,0.5,4.5-1.1,5.4c-1.6,1-3.8,0.1-4.8-1.9c-1-2-0.5-4.5,1.1-5.4C65,84.9,67.1,85.8,68.2,87.8z"
			/>
	</g>
	<g>
		<path class="st15" d="M76.2,105.8c1.2,1.9,0.9,4.3-0.7,5.4s-3.7,0.5-4.9-1.4c-1.2-1.9-0.9-4.3,0.7-5.4
			C72.8,103.3,75,103.9,76.2,105.8z"/>
	</g>
	<g>
		<path class="st17" d="M140.2,109.4c0,0-0.1,0-0.1,0c-6.8-1.3-10-10.5-10.2-10.9c-0.1-0.3,0.1-0.6,0.3-0.7c0.3-0.1,0.6,0.1,0.7,0.3
			c0,0.1,3.2,9,9.4,10.2c0.3,0.1,0.5,0.3,0.4,0.6C140.6,109.3,140.4,109.4,140.2,109.4z"/>
	</g>
	<g>
		<path class="st17" d="M140.8,105.3C140.8,105.3,140.8,105.3,140.8,105.3c-3.6-0.6-5.1-4.9-5.2-5.1c-0.1-0.3,0-0.6,0.3-0.7
			c0.3-0.1,0.6,0,0.7,0.3c0,0,1.4,3.9,4.3,4.4c0.3,0.1,0.5,0.3,0.4,0.6C141.3,105.1,141.1,105.3,140.8,105.3z"/>
	</g>
</g>
</svg>
