<svg width="46" height="16" viewBox="0 0 46 16" xmlns="http://www.w3.org/2000/svg" xmlns:sketch="http://www.bohemiancoding.com/sketch/ns"><g sketch:type="MSArtboardGroup" fill="none"><rect fill="#4990E2" sketch:type="MSShapeGroup" width="46" height="16" rx="8"/><path d="M6 8l4 4 4-4h-3v-4h-2v4h-3z" fill="#fff" sketch:type="MSShapeGroup"/><path d="M18.092 3.504h2.988c.544 0 .992.074 1.344.222.352.148.63.336.834.564.204.228.346.484.426.768.08.284.12.558.12.822 0 .264-.04.538-.12.822-.08.284-.222.54-.426.768-.204.228-.482.416-.834.564-.352.148-.8.222-1.344.222h-1.836v3.744h-1.152v-8.496zm1.152 3.744h1.512c.224 0 .446-.018.666-.054.22-.036.416-.102.588-.198.172-.096.31-.234.414-.414.104-.18.156-.414.156-.702s-.052-.522-.156-.702c-.104-.18-.242-.318-.414-.414-.172-.096-.368-.162-.588-.198-.22-.036-.442-.054-.666-.054h-1.512v2.736zm6.216 2.976c.208.312.474.542.798.69.324.148.658.222 1.002.222.192 0 .388-.03.588-.09.2-.06.382-.15.546-.27.164-.12.298-.268.402-.444.104-.176.156-.38.156-.612 0-.328-.104-.578-.312-.75-.208-.172-.466-.316-.774-.432-.308-.116-.644-.228-1.008-.336-.364-.108-.7-.258-1.008-.45-.308-.192-.566-.45-.774-.774-.208-.324-.312-.762-.312-1.314 0-.248.054-.512.162-.792.108-.28.278-.536.51-.768.232-.232.53-.426.894-.582.364-.156.802-.234 1.314-.234.464 0 .908.064 1.332.192.424.128.796.388 1.116.78l-.936.852c-.144-.224-.348-.404-.612-.54s-.564-.204-.9-.204c-.32 0-.586.042-.798.126-.212.084-.382.192-.51.324s-.218.274-.27.426c-.052.152-.078.292-.078.42 0 .36.104.636.312.828.208.192.466.348.774.468.308.12.644.228 1.008.324s.7.23 1.008.402c.308.172.566.404.774.696.208.292.312.694.312 1.206 0 .408-.078.776-.234 1.104-.156.328-.366.604-.63.828-.264.224-.576.396-.936.516-.36.12-.744.18-1.152.18-.544 0-1.06-.096-1.548-.288-.488-.192-.876-.488-1.164-.888l.948-.816zm6.228-6.72h2.964c.6 0 1.126.068 1.578.204.452.136.844.318 1.176.546.332.228.608.49.828.786.22.296.394.6.522.912.128.312.22.624.276.936.056.312.084.6.084.864 0 .544-.1 1.07-.3 1.578-.2.508-.496.96-.888 1.356-.392.396-.878.714-1.458.954s-1.25.36-2.01.36h-2.772v-8.496zm1.152 7.416h1.452c.488 0 .95-.066 1.386-.198.436-.132.818-.33 1.146-.594.328-.264.588-.594.78-.99.192-.396.288-.858.288-1.386 0-.272-.044-.59-.132-.954-.088-.364-.254-.71-.498-1.038-.244-.328-.582-.606-1.014-.834-.432-.228-.992-.342-1.68-.342h-1.728v6.336z" fill="#fff" sketch:type="MSShapeGroup"/></g></svg>