<?xml version="1.0" encoding="utf-8"?>
<!-- Generator: Adobe Illustrator 21.1.0, SVG Export Plug-In . SVG Version: 6.00 Build 0)  -->
<svg version="1.1" id="Layer_1" xmlns="http://www.w3.org/2000/svg" xmlns:xlink="http://www.w3.org/1999/xlink" x="0px" y="0px"
	 viewBox="0 0 150 150" style="enable-background:new 0 0 150 150;" xml:space="preserve">
<style type="text/css">
	.st0{fill:#FFFFFF;}
	.st1{fill:#F4F4F4;}
	.st2{fill:#282828;}
	.st3{fill:#12D1DB;}
	.st4{display:none;}
	.st5{display:inline;}
	.st6{display:inline;fill:none;stroke:#000000;stroke-width:1.2;stroke-miterlimit:10;}
	.st7{fill:#393C44;}
	.st8{fill:#515A5D;}
	.st9{fill:#12D1DB;stroke:#12D1DB;stroke-miterlimit:10;}
	.st10{fill:#515A5D;stroke:#515A5D;stroke-width:2;stroke-miterlimit:10;}
	.st11{fill:#A6E0DD;}
	.st12{fill:none;stroke:#515A5D;stroke-width:5;stroke-linecap:round;stroke-linejoin:round;stroke-miterlimit:10;}
	.st13{fill:#57F7FF;}
	.st14{fill:#5B6466;}
	.st15{fill:#9FC9C9;}
	.st16{fill:none;}
	.st17{fill:#959899;}
	.st18{fill:url(#SVGID_1_);}
	.st19{fill:#D45620;}
	.st20{fill:#778284;}
</style>
<g>
	<g>
		<path class="st13" d="M75,150c-41.4,0-75-33.6-75-75S33.6,0,75,0s75,33.6,75,75c0,19.5-7.5,38-21,52.1l-0.8-0.8
			c13.4-13.8,20.7-32,20.7-51.3c0-40.7-33.1-73.8-73.8-73.8S1.2,34.3,1.2,75s33.1,73.8,73.8,73.8c11.5,0,22.5-2.6,32.7-7.6l0.5,1.1
			C97.8,147.4,86.7,150,75,150z"/>
	</g>
	<g>
		<path class="st14" d="M55.1,83.9c-0.3,0-1.3-0.3-4.3-2.9c-2.2-1.7-3.3-3.5-3.2-5.4c0.2-2.8,3.1-4.5,3.3-4.5l0.6,1
			c0,0-2.5,1.4-2.7,3.6c-0.1,1.4,0.8,2.9,2.7,4.4c1.4,1.2,3.2,2.6,3.6,2.7l0.1,1.2C55.1,83.9,55.1,83.9,55.1,83.9z"/>
	</g>
	<g>
		<path class="st14" d="M94.9,83.9c-0.1,0-0.1,0-0.1,0l0.2-1.2c0.3-0.1,2.1-1.4,3.5-2.7c1.9-1.4,2.7-2.9,2.6-4.3
			c-0.2-2.4-3-4.1-3-4.1l0.6-1c0.1,0.1,3.4,2,3.6,5c0.1,1.8-0.9,3.6-3.1,5.3C96.2,83.6,95.3,83.9,94.9,83.9z"/>
	</g>
	<g>
		<path class="st14" d="M75,101.7c-12.6,0-22.4-17.7-23.9-30.5l1.2-0.1c1.4,12,11,29.4,22.7,29.4c11.7,0,21.1-17,22.6-29.2l1.2,0.1
			C97.1,84.1,87.3,101.7,75,101.7z"/>
	</g>
	<g>
		<path class="st14" d="M93.2,72.3c-18.1,0-23.8-7.3-25.4-10.4c-3.3,5.4-15.9,9.9-16.4,10.1c-0.2,0.1-0.4,0-0.6-0.1
			c-0.2-0.1-3.9-3.3-0.6-14.8c0.2-0.6,4.9-13.5,16-17.1c6.7-2.2,14.2-0.5,22.4,5c0.8-0.1,3-0.3,5.2,1.4c3.7,2.8,5.6,9.3,5.6,19.1
			l-0.4,6c0,0.3-0.3,0.5-0.5,0.6C96.6,72.3,94.8,72.3,93.2,72.3z M98.4,71.5L98.4,71.5L98.4,71.5z M67.8,59.9
			C67.8,59.9,67.8,59.9,67.8,59.9c0.3,0,0.5,0.2,0.6,0.4c0,0.1,4,12.2,29.5,10.6l0.4-5.4c0-11.7-2.8-16.3-5.1-18.1
			c-2.2-1.7-4.4-1.1-4.5-1.1c-0.2,0-0.3,0-0.5-0.1c-7.9-5.4-15.2-7.1-21.5-5C56,44.6,51.3,57.4,51.2,57.5c-2.5,9-0.6,12.4,0,13.3
			c2.3-0.9,14.4-5.6,15.9-10.5C67.3,60.1,67.5,59.9,67.8,59.9z"/>
	</g>
	<g>
		<path class="st20" d="M52.3,68.4c-0.1,0-0.3-0.1-0.3-0.2c-0.1-0.3-1.8-6.9,2-11.4c0.1-0.1,0.3-0.1,0.4,0c0.1,0.1,0.1,0.3,0,0.4
			c-3.5,4.2-1.9,10.8-1.9,10.8C52.6,68.2,52.5,68.4,52.3,68.4C52.3,68.4,52.3,68.4,52.3,68.4z"/>
	</g>
	<g>
		<g>
			<path class="st14" d="M70.1,83.5h-7.8c-1.6,0-3-1.3-3-3v-3.4c0-1.6,1.3-3,3-3h7.8c1.6,0,3,1.3,3,3v3.4
				C73,82.2,71.7,83.5,70.1,83.5z M62.2,75.4c-1,0-1.8,0.8-1.8,1.8v3.4c0,1,0.8,1.8,1.8,1.8h7.8c1,0,1.8-0.8,1.8-1.8v-3.4
				c0-1-0.8-1.8-1.8-1.8H62.2z"/>
		</g>
		<g>
			<path class="st14" d="M87.4,83.5h-6.5c-2,0-3.6-1.5-3.6-3.3v-2.8c0-1.8,1.6-3.3,3.6-3.3h6.5c2,0,3.6,1.5,3.6,3.3v2.8
				C91,82.1,89.4,83.5,87.4,83.5z M80.9,75.4c-1.4,0-2.5,0.9-2.5,2.1v2.8c0,1.1,1.1,2.1,2.5,2.1h6.5c1.4,0,2.5-0.9,2.5-2.1v-2.8
				c0-1.1-1.1-2.1-2.5-2.1H80.9z"/>
		</g>
		<g>
			<path class="st14" d="M77.9,79.5h-5.5c-0.3,0-0.6-0.3-0.6-0.6s0.3-0.6,0.6-0.6h5.5c0.3,0,0.6,0.3,0.6,0.6S78.2,79.5,77.9,79.5z"
				/>
		</g>
	</g>
	<g>
		<path class="st14" d="M90.4,79.5c-0.2,0-0.3-0.1-0.4-0.2c-0.2-0.2-0.2-0.6,0-0.8l7.7-7.2c0.2-0.2,0.6-0.2,0.8,0
			c0.2,0.2,0.2,0.6,0,0.8l-7.7,7.2C90.7,79.4,90.6,79.5,90.4,79.5z"/>
	</g>
	<g>
		<path class="st14" d="M59.9,79.5c-0.1,0-0.3,0-0.4-0.1L51,71.9c-0.2-0.2-0.3-0.6-0.1-0.8c0.2-0.2,0.6-0.3,0.8-0.1l8.4,7.5
			c0.2,0.2,0.3,0.6,0.1,0.8C60.2,79.4,60,79.5,59.9,79.5z"/>
	</g>
	<g>
		<path class="st15" d="M75,148.8l7-3.9l-6.1-27.1H78l3-4.6c-3.2-2.4-6.1-6.5-6.1-6.5s-2.9,4.1-6.1,6.5l3,4.6h2.2L68,144.9
			C68,144.9,75,148.8,75,148.8z"/>
	</g>
	<g>
		<path class="st20" d="M42.4,124.9c0-1.2,0.3-2.4,0.8-3.5c0.5-1.1,1.1-2.2,2-3.1c0.9-0.9,1.8-1.7,2.9-2.2c0.5-0.3,1.1-0.5,1.7-0.7
			c0.6-0.2,1.2-0.3,1.7-0.4c-1.1,0.5-2.2,0.9-3.2,1.6c-1,0.6-1.9,1.4-2.7,2.2c-0.8,0.8-1.5,1.8-2,2.8
			C43,122.6,42.6,123.7,42.4,124.9z"/>
	</g>
	<g>
		<path class="st16" d="M75,1.2C34.2,1.2,1.2,34.2,1.2,75c0,27.6,15.1,51.6,37.5,64.3v-11.1c0-6.4,3.5-12.2,9.2-15.2
			c21.4-11.2,42.7-4.5,53.6,0.4c0.5,0.2,1,0.5,1.5,0.8c-0.6,0.2-1.3,0.2-1.8,0.4c-0.1,0-0.1-0.1-0.2-0.1c-6.4-2.9-16.4-6.4-28-6.4
			c-7.7,0-16.2,1.6-24.6,6c-5.3,2.8-8.6,8.2-8.6,14.1v11.7c10.4,5.7,22.4,8.9,35.1,8.9c40.8,0,73.8-33,73.8-73.8
			C148.8,34.2,115.8,1.2,75,1.2z"/>
		<path class="st14" d="M48.4,114.1c8.4-4.4,16.8-6,24.6-6c11.5,0,21.6,3.5,28,6.4c0.1,0,0.1,0.1,0.2,0.1c0.6-0.1,1.2-0.1,1.8-0.4
			c-0.5-0.3-1-0.6-1.5-0.8c-10.8-5-32.2-11.6-53.6-0.4c-5.7,3-9.2,8.8-9.2,15.2v11.1c0.4,0.2,0.8,0.5,1.2,0.7v-11.7
			C39.9,122.2,43.1,116.8,48.4,114.1z"/>
	</g>
	<g>
		<path class="st16" d="M75,1.2C34.2,1.2,1.2,34.2,1.2,75c0,32.1,20.5,59.4,49.1,69.6l0.3-5.3l0.3,5.5c7.6,2.6,15.7,4,24.1,4
			c40.8,0,73.8-33,73.8-73.8C148.8,34.2,115.8,1.2,75,1.2z"/>
		<path class="st14" d="M50.3,144.6c0.2,0.1,0.4,0.1,0.6,0.2l-0.3-5.5L50.3,144.6z"/>
	</g>
	<g>
		<path class="st16" d="M75,1.2C34.2,1.2,1.2,34.2,1.2,75c0,40.8,33,73.8,73.8,73.8c8.4,0,16.4-1.4,24-4l0.3-5.6l0.3,5.4
			c28.7-10.1,49.3-37.5,49.3-69.6C148.8,34.2,115.8,1.2,75,1.2z"/>
		<path class="st14" d="M99,144.8c0.2-0.1,0.4-0.1,0.6-0.2l-0.3-5.4L99,144.8z"/>
	</g>
	<g>
		<g>
			<path class="st14" d="M126.3,147.6c-0.2,0-0.3-0.1-0.4-0.2l-7.8-7.8l-3.1,5.8c-0.1,0.2-0.3,0.3-0.6,0.3c-0.2,0-0.4-0.2-0.5-0.4
				l-7.4-20.2c-0.1-0.2,0-0.5,0.1-0.6c0.2-0.2,0.4-0.2,0.6-0.1l20.2,7.4c0.2,0.1,0.4,0.3,0.4,0.5c0,0.2-0.1,0.5-0.3,0.6l-5.8,3.1
				l7.8,7.8c0.2,0.2,0.2,0.6,0,0.8l-2.9,2.9C126.6,147.5,126.5,147.6,126.3,147.6z M117.9,138c0.2,0,0.3,0.1,0.4,0.2l8,8l2-2l-8-8
				c-0.1-0.1-0.2-0.3-0.2-0.5c0-0.2,0.1-0.3,0.3-0.4l5.3-2.8l-17.8-6.5l6.5,17.8l2.8-5.3C117.5,138.2,117.7,138.1,117.9,138
				C117.9,138,117.9,138,117.9,138z"/>
		</g>
		<g>
			<path class="st20" d="M104.5,122.7c-0.1,0-0.2,0-0.3-0.1l-2.3-2.3c-0.2-0.2-0.2-0.5,0-0.6c0.2-0.2,0.5-0.2,0.6,0l2.3,2.3
				c0.2,0.2,0.2,0.5,0,0.6C104.7,122.7,104.6,122.7,104.5,122.7z"/>
		</g>
		<g>
			<path class="st20" d="M107.4,121.5c-0.2,0-0.4-0.2-0.4-0.4v-3.3c0-0.2,0.2-0.4,0.4-0.4s0.4,0.2,0.4,0.4v3.3
				C107.8,121.3,107.6,121.5,107.4,121.5z"/>
		</g>
		<g>
			<path class="st20" d="M110.3,122c-0.1,0-0.2,0-0.3-0.1c-0.2-0.2-0.2-0.5,0-0.6l2.3-2.3c0.2-0.2,0.5-0.2,0.6,0
				c0.2,0.2,0.2,0.5,0,0.6l-2.3,2.3C110.5,121.9,110.4,122,110.3,122z"/>
		</g>
		<g>
			<path class="st20" d="M103.1,125.7h-3.3c-0.2,0-0.4-0.2-0.4-0.4c0-0.2,0.2-0.4,0.4-0.4h3.3c0.2,0,0.4,0.2,0.4,0.4
				C103.6,125.5,103.4,125.7,103.1,125.7z"/>
		</g>
		<g>
			<path class="st20" d="M101.3,131c-0.1,0-0.2,0-0.3-0.1c-0.2-0.2-0.2-0.5,0-0.6l2.3-2.3c0.2-0.2,0.5-0.2,0.6,0
				c0.2,0.2,0.2,0.5,0,0.6l-2.3,2.3C101.5,130.9,101.4,131,101.3,131z"/>
		</g>
	</g>
</g>
</svg>
