<?xml version="1.0" encoding="UTF-8" standalone="no"?>
<svg width="16px" height="16px" viewBox="0 0 16 16" version="1.1" xmlns="http://www.w3.org/2000/svg" xmlns:xlink="http://www.w3.org/1999/xlink">
    <!-- Generator: Sketch 3.8.3 (29802) - http://www.bohemiancoding.com/sketch -->
    <title>help</title>
    <desc>Created with Sketch.</desc>
    <defs></defs>
    <g id="Page-1" stroke="none" stroke-width="1" fill="none" fill-rule="evenodd">
        <g id="help" fill="#4990E2">
            <path d="M8,1 C9.86975,1 11.6276875,1.728125 12.94975,3.05025 C14.2718125,4.372375 15,6.13025 15,8 C15,9.86975 14.271875,11.627625 12.94975,12.94975 C11.6276875,14.271875 9.86975,15 8,15 C6.13025,15 4.3724375,14.271875 3.0503125,12.94975 C1.728125,11.627625 1,9.86975 1,8 C1,6.13025 1.728125,4.372375 3.0503125,3.05025 C4.3725,1.728125 6.13025,1 8,1 L8,1 Z M8,0 C3.58175,0 0,3.58175 0,8 C0,12.41825 3.58175,16 8,16 C12.41825,16 16,12.41825 16,8 C16,3.58175 12.41825,0 8,0 L8,0 L8,0 Z" id="Shape"></path>
            <path d="M7.26500001,9.51000004 L7.26500001,9.13000004 C7.26500001,8.96999924 7.27666656,8.82666734 7.30000001,8.70000004 C7.32333346,8.57333273 7.35999976,8.45333393 7.41000001,8.34000003 C7.46000026,8.22666613 7.52666627,8.11666723 7.61000002,8.01000003 C7.69333377,7.90333283 7.79833272,7.79000063 7.92500002,7.67000003 L8.37500002,7.24000002 C8.50166732,7.12666612 8.60999957,7.00000072 8.70000002,6.86000002 C8.79000048,6.71999932 8.83500003,6.55000102 8.83500003,6.35000002 C8.83500003,6.08999871 8.75333418,5.87166756 8.59000002,5.69500001 C8.42666587,5.51833246 8.19500152,5.43000001 7.89500002,5.43000001 C7.74166592,5.43000001 7.60333397,5.45833306 7.48000001,5.51500001 C7.35666606,5.57166696 7.25000046,5.64833286 7.16000001,5.74500001 C7.06999956,5.84166716 7.00166691,5.95333271 6.95500001,6.08000001 C6.90833311,6.20666732 6.88166671,6.33666602 6.87500001,6.47000002 L5.645,6.36000002 C5.6850002,6.03999841 5.76999935,5.75500126 5.9,5.50500001 C6.03000065,5.25499876 6.1983323,5.04333421 6.40500001,4.87 C6.61166771,4.6966658 6.84833201,4.56500045 7.11500001,4.475 C7.38166801,4.38499955 7.66833182,4.34 7.97500002,4.34 C8.26166812,4.34 8.53333207,4.38166625 8.79000003,4.465 C9.04666798,4.54833375 9.27333238,4.67166585 9.47000003,4.835 C9.66666768,4.99833416 9.82166613,5.19999881 9.93500003,5.44000001 C10.0483339,5.68000121 10.105,5.95666511 10.105,6.27000002 C10.105,6.48333442 10.0816669,6.66999922 10.035,6.83000002 C9.98833314,6.99000082 9.92166713,7.13666602 9.83500003,7.27000002 C9.74833293,7.40333402 9.64333398,7.53166608 9.52000003,7.65500003 C9.39666608,7.77833398 9.25833413,7.90666603 9.10500003,8.04000003 C8.97166603,8.15333393 8.86333378,8.25333293 8.78000003,8.34000003 C8.69666627,8.42666713 8.63000027,8.51333293 8.58000002,8.60000003 C8.52999977,8.68666714 8.49500012,8.77999954 8.47500002,8.88000004 C8.45499992,8.98000054 8.44500002,9.10333264 8.44500002,9.25000004 L8.44500002,9.51000004 L7.26500001,9.51000004 Z M7.06500001,10.9000001 C7.06500001,10.6866657 7.14333256,10.5033341 7.30000001,10.35 C7.45666746,10.1966659 7.64499892,10.12 7.86500002,10.12 C8.07833442,10.12 8.26499922,10.1933326 8.42500002,10.34 C8.58500082,10.4866674 8.66500002,10.6666657 8.66500002,10.8800001 C8.66500002,11.0933345 8.58666747,11.276666 8.43000002,11.4300001 C8.27333257,11.5833342 8.08500112,11.6600001 7.86500002,11.6600001 C7.75833282,11.6600001 7.65666717,11.6400003 7.56000002,11.6000001 C7.46333286,11.5599999 7.37833371,11.5066671 7.30500001,11.4400001 C7.23166631,11.3733331 7.17333356,11.2933339 7.13000001,11.2000001 C7.08666646,11.1066663 7.06500001,11.0066673 7.06500001,10.9000001 L7.06500001,10.9000001 Z" id="?"></path>
        </g>
    </g>
</svg>