<?xml version="1.0" encoding="utf-8"?>
<!-- Generator: Adobe Illustrator 21.0.2, SVG Export Plug-In . SVG Version: 6.00 Build 0)  -->
<svg version="1.1" id="Layer_1" xmlns="http://www.w3.org/2000/svg" xmlns:xlink="http://www.w3.org/1999/xlink" x="0px" y="0px"
	 viewBox="0 0 150 150" style="enable-background:new 0 0 150 150;" xml:space="preserve">
<style type="text/css">
	.st0{fill:#FFFFFF;}
	.st1{fill:#F4F4F4;}
	.st2{fill:#282828;}
	.st3{fill:#12D1DB;}
	.st4{display:none;}
	.st5{display:inline;}
	.st6{display:inline;fill:none;stroke:#000000;stroke-width:1.2;stroke-miterlimit:10;}
</style>
<g>
	<g>
		<rect y="142.5" class="st0" width="150" height="7.5"/>
	</g>
	<g>
		<rect x="0" y="0" class="st0" width="7.5" height="150"/>
	</g>
	<g>
		<rect x="142.5" y="0" class="st0" width="7.5" height="150"/>
	</g>
	<path class="st0" d="M0,0v28.7h150V0H0z M74,24.5c-5.6,0-10.1-4.5-10.1-10.1c0-5.6,4.5-10.1,10.1-10.1c5.6,0,10.1,4.5,10.1,10.1
		C84.1,19.9,79.6,24.5,74,24.5z M99.2,24.5c-5.6,0-10.1-4.5-10.1-10.1c0-5.6,4.5-10.1,10.1-10.1c5.6,0,10.1,4.5,10.1,10.1
		C109.4,19.9,104.8,24.5,99.2,24.5z M124.5,24.5c-5.6,0-10.1-4.5-10.1-10.1c0-5.6,4.5-10.1,10.1-10.1c5.6,0,10.1,4.5,10.1,10.1
		C134.6,19.9,130.1,24.5,124.5,24.5z"/>
</g>
</svg>
