<?xml version="1.0" encoding="utf-8"?>
<!-- Generator: Adobe Illustrator 21.0.2, SVG Export Plug-In . SVG Version: 6.00 Build 0)  -->
<svg version="1.1" id="Layer_1" xmlns="http://www.w3.org/2000/svg" xmlns:xlink="http://www.w3.org/1999/xlink" x="0px" y="0px"
	 viewBox="0 0 150 150" style="enable-background:new 0 0 150 150;" xml:space="preserve">
<style type="text/css">
	.st0{fill:#FFFFFF;}
	.st1{fill:#F4F4F4;}
	.st2{fill:#282828;}
	.st3{fill:#12D1DB;}
	.st4{display:none;}
	.st5{display:inline;}
	.st6{display:inline;fill:none;stroke:#000000;stroke-width:1.2;stroke-miterlimit:10;}
</style>
<g>
	<g>
		<path class="st0" d="M75,65c-17.9,0-32.5-14.6-32.5-32.5S57.1,0,75,0s32.5,14.6,32.5,32.5S92.9,65,75,65z M75,8.2
			c-13.4,0-24.4,10.9-24.4,24.4S61.6,56.9,75,56.9s24.4-10.9,24.4-24.4S88.4,8.2,75,8.2z"/>
	</g>
	<g>
		<path class="st0" d="M136.3,150H13.7V86.5l27.1-23.1l34.2,38l35-38.1l26.2,23.8V150z M22.5,142.2h105V90.4l-16.8-15.3L75,113.9
			l-35-38.8L22.5,89.9V142.2z"/>
	</g>
</g>
</svg>
