<?xml version="1.0" encoding="utf-8"?>
<!-- Generator: Adobe Illustrator 21.0.2, SVG Export Plug-In . SVG Version: 6.00 Build 0)  -->
<svg version="1.1" id="Layer_1" xmlns="http://www.w3.org/2000/svg" xmlns:xlink="http://www.w3.org/1999/xlink" x="0px" y="0px"
	 viewBox="0 0 150 150" style="enable-background:new 0 0 150 150;" xml:space="preserve">
<style type="text/css">
	.st0{fill:#FFFFFF;}
	.st1{fill:#F4F4F4;}
	.st2{fill:#282828;}
	.st3{fill:#12D1DB;}
	.st4{display:none;}
	.st5{display:inline;}
	.st6{display:inline;fill:none;stroke:#000000;stroke-width:1.2;stroke-miterlimit:10;}
</style>
<g>
	<path class="st0" d="M142.3,58.3h-14c-2.3,0-4.1-1.2-5-3.3c-0.9-2.1-0.4-4.3,1.2-5.9l9.9-9.9c1.5-1.5,2.3-3.4,2.3-5.5
		c0-2.1-0.8-4-2.3-5.5l-12.6-12.6c-2.9-2.9-8-2.9-10.9,0l-9.9,9.9c-1.6,1.6-3.8,2-5.9,1.2c-2.1-0.9-3.3-2.7-3.3-5v-14
		c0-4.3-3.5-7.7-7.7-7.7H66.1c-4.3,0-7.7,3.5-7.7,7.7v14c0,2.3-1.2,4.1-3.3,5c-2.1,0.9-4.3,0.4-5.9-1.2l-9.9-9.9
		c-2.9-2.9-8-2.9-10.9,0L15.6,28.3c-1.5,1.5-2.3,3.4-2.3,5.5c0,2.1,0.8,4,2.3,5.5l9.9,9.9c1.6,1.6,2,3.8,1.2,5.9
		c-0.9,2.1-2.7,3.3-5,3.3h-14c-4.3,0-7.7,3.5-7.7,7.7v17.9c0,4.3,3.5,7.7,7.7,7.7h14c2.3,0,4.1,1.2,5,3.3c0.9,2.1,0.4,4.3-1.2,5.9
		l-9.9,9.9c-1.5,1.5-2.3,3.4-2.3,5.5c0,2.1,0.8,4,2.3,5.5l12.6,12.6c2.9,2.9,8,2.9,10.9,0l9.9-9.9c1.6-1.6,3.8-2,5.9-1.2
		c2.1,0.9,3.3,2.7,3.3,5v14c0,4.3,3.5,7.7,7.7,7.7h17.9c4.3,0,7.7-3.5,7.7-7.7v-14c0-2.3,1.2-4.1,3.3-5c2.1-0.9,4.3-0.4,5.9,1.2
		l9.9,9.9c2.9,2.9,8,2.9,10.9,0l12.6-12.6c1.5-1.5,2.3-3.4,2.3-5.5c0-2.1-0.8-4-2.3-5.5l-9.9-9.9c-1.6-1.6-2-3.8-1.2-5.9
		c0.9-2.1,2.7-3.3,5-3.3h14c4.3,0,7.7-3.5,7.7-7.7V66.1C150,61.8,146.5,58.3,142.3,58.3z M144.4,83.9c0,1.2-1,2.2-2.2,2.2h-14
		c-4.5,0-8.4,2.6-10.1,6.8c-1.7,4.2-0.8,8.7,2.4,11.9l9.9,9.9c0.8,0.8,0.8,2.2,0,3.1l-12.6,12.6c-0.8,0.8-2.2,0.8-3.1,0l-9.9-9.9
		c-3.2-3.2-7.8-4.1-11.9-2.4c-4.2,1.7-6.8,5.6-6.8,10.1v14c0,1.2-1,2.2-2.2,2.2H66.1c-1.2,0-2.2-1-2.2-2.2v-14
		c0-4.5-2.6-8.4-6.8-10.1c-1.4-0.6-2.8-0.9-4.3-0.9c-2.8,0-5.5,1.1-7.7,3.2l-9.9,9.9c-0.8,0.8-2.2,0.8-3.1,0l-12.6-12.6
		c-0.8-0.8-0.8-2.2,0-3.1l9.9-9.9c3.2-3.2,4.1-7.8,2.4-11.9c-1.7-4.2-5.6-6.8-10.1-6.8h-14c-1.2,0-2.2-1-2.2-2.2V66.1
		c0-1.2,1-2.2,2.2-2.2h14c4.5,0,8.4-2.6,10.1-6.8c1.7-4.2,0.8-8.7-2.4-11.9l-9.9-9.9c-0.8-0.8-0.8-2.2,0-3.1l12.6-12.6
		c0.8-0.8,2.2-0.8,3.1,0l9.9,9.9c3.2,3.2,7.8,4.1,11.9,2.4c4.2-1.7,6.8-5.6,6.8-10.1v-14c0-1.2,1-2.2,2.2-2.2h17.9
		c1.2,0,2.2,1,2.2,2.2v14c0,4.5,2.6,8.4,6.8,10.1c4.2,1.7,8.7,0.8,11.9-2.4l9.9-9.9c0.8-0.8,2.2-0.8,3.1,0l12.6,12.6
		c0.8,0.8,0.8,2.2,0,3.1l-9.9,9.9c-3.2,3.2-4.1,7.8-2.4,11.9c1.7,4.2,5.6,6.8,10.1,6.8h14c1.2,0,2.2,1,2.2,2.2V83.9z"/>
	<path class="st0" d="M75,50c-13.8,0-25,11.2-25,25s11.2,25,25,25s25-11.2,25-25S88.8,50,75,50z M75,94.4
		c-10.7,0-19.4-8.7-19.4-19.4S64.3,55.6,75,55.6S94.4,64.3,94.4,75S85.7,94.4,75,94.4z"/>
</g>
</svg>
