<?xml version="1.0" encoding="utf-8"?>
<!-- Generator: Adobe Illustrator 21.0.2, SVG Export Plug-In . SVG Version: 6.00 Build 0)  -->
<svg version="1.1" id="Layer_1" xmlns="http://www.w3.org/2000/svg" xmlns:xlink="http://www.w3.org/1999/xlink" x="0px" y="0px"
	 viewBox="0 0 150 150" style="enable-background:new 0 0 150 150;" xml:space="preserve">
<style type="text/css">
	.st0{fill:#FFFFFF;}
	.st1{fill:#F4F4F4;}
	.st2{fill:#282828;}
	.st3{fill:#12D1DB;}
	.st4{display:none;}
	.st5{display:inline;}
	.st6{display:inline;fill:none;stroke:#000000;stroke-width:1.2;stroke-miterlimit:10;}
</style>
<g>
	<g>
		<path class="st0" d="M147,131.2H3l0-3.2c0.1-12.7,9-23.7,21.2-26.5V64.9c0-28,22.8-50.8,50.8-50.8c28,0,50.8,22.8,50.8,50.8v36.7
			c12.2,2.8,21.1,13.7,21.2,26.5L147,131.2z M9.5,124.9h130.9c-1.4-9.1-8.8-16.4-18.2-17.6l-2.8-0.3V64.9c0-24.5-20-44.5-44.5-44.5
			c-24.5,0-44.5,20-44.5,44.5V107l-2.8,0.3C18.3,108.5,11,115.8,9.5,124.9z"/>
	</g>
	<g>
		<path class="st0" d="M66.2,18.8H60V15c0-8.3,6.7-15,15-15c8.3,0,15,6.7,15,15v3.7h-6.3V15c0-4.8-3.9-8.8-8.8-8.8s-8.8,3.9-8.8,8.8
			V18.8z"/>
	</g>
	<g>
		<path class="st0" d="M75,150c-12.4,0-23.1-8.8-25.6-20.9l6.1-1.3c1.9,9.2,10.1,15.9,19.5,15.9c9.6,0,17.8-6.8,19.5-16.2l6.2,1.1
			C98.4,141,87.6,150,75,150z"/>
	</g>
</g>
</svg>
