<?xml version="1.0" encoding="utf-8"?>
<!-- Generator: Adobe Illustrator 21.0.2, SVG Export Plug-In . SVG Version: 6.00 Build 0)  -->
<svg version="1.1" id="Layer_1" xmlns="http://www.w3.org/2000/svg" xmlns:xlink="http://www.w3.org/1999/xlink" x="0px" y="0px"
	 viewBox="0 0 150 150" style="enable-background:new 0 0 150 150;" xml:space="preserve">
<style type="text/css">
	.st0{fill:#FFFFFF;}
	.st1{fill:#F4F4F4;}
	.st2{fill:#282828;}
	.st3{fill:#12D1DB;}
	.st4{display:none;}
	.st5{display:inline;}
	.st6{display:inline;fill:none;stroke:#000000;stroke-width:1.2;stroke-miterlimit:10;}
</style>
<g>
	<g>
		<path class="st0" d="M124.3,150H25.7c-5.5,0-10-4.5-10-10V10c0-5.5,4.5-10,10-10h98.7c5.5,0,10,4.5,10,10v130
			C134.4,145.5,129.9,150,124.3,150z M25.7,7.5c-1.4,0-2.5,1.1-2.5,2.5v130c0,1.4,1.1,2.5,2.5,2.5h98.7c1.4,0,2.5-1.1,2.5-2.5V10
			c0-1.4-1.1-2.5-2.5-2.5H25.7z"/>
	</g>
	<circle class="st0" cx="74.7" cy="125.7" r="8.5"/>
	<g>
		<rect x="19.5" y="102.4" class="st0" width="111" height="4.4"/>
	</g>
</g>
</svg>
