<?xml version="1.0" encoding="utf-8"?>
<!-- Generator: Adobe Illustrator 21.1.0, SVG Export Plug-In . SVG Version: 6.00 Build 0)  -->
<svg version="1.1" id="Layer_1" xmlns="http://www.w3.org/2000/svg" xmlns:xlink="http://www.w3.org/1999/xlink" x="0px" y="0px"
	 viewBox="0 0 150 150" style="enable-background:new 0 0 150 150;" xml:space="preserve">
<style type="text/css">
	.st0{fill:#FFFFFF;}
	.st1{fill:#F4F4F4;}
	.st2{fill:#282828;}
	.st3{fill:#12D1DB;}
	.st4{display:none;}
	.st5{display:inline;}
	.st6{display:inline;fill:none;stroke:#000000;stroke-width:1.2;stroke-miterlimit:10;}
	.st7{fill:#393C44;}
	.st8{fill:#515A5D;}
	.st9{fill:#A6E0DD;}
	.st10{fill:none;stroke:#515A5D;stroke-width:3;stroke-miterlimit:10;}
	.st11{display:none;fill:#515A5D;}
</style>
<g>
	<g>
		<path class="st3" d="M63.6,94.3L42.7,74.6c-1.5-1.4-1.6-3.8-0.2-5.3s3.8-1.6,5.3-0.2l15.6,14.7l38.6-38c1.5-1.5,3.8-1.4,5.3,0
			c1.5,1.5,1.4,3.9,0,5.3L63.6,94.3z"/>
	</g>
	<g>
		<path class="st3" d="M75.6,150h-0.9C20,141.6,9.1,76.6,9,75.9L9,75.3V28.1c0-4.5,2.9-8.4,7.2-9.8L72.7,0.3C73.3,0.2,74.5,0,74.9,0
			c0.5-0.1,1.9,0.2,1.9,0.2l0.7,0.2l56.4,18c4.3,1.4,7.2,5.3,7.2,9.8L141,75.9c-0.1,0.7-11,65.7-65.1,74L75.6,150z M17.1,74.9
			c0.8,4.5,11.8,59.6,57.9,67c46.2-7.4,57.1-62.5,57.9-67V28.1c0-1-0.6-1.8-1.5-2.1l-56-17.9c-0.2,0-0.3,0-0.5,0L18.6,26
			c-0.9,0.3-1.5,1.1-1.5,2.1V74.9z"/>
	</g>
</g>
</svg>
