<?xml version="1.0" encoding="utf-8"?>
<!-- Generator: Adobe Illustrator 21.0.2, SVG Export Plug-In . SVG Version: 6.00 Build 0)  -->
<svg version="1.1" id="Layer_1" xmlns="http://www.w3.org/2000/svg" xmlns:xlink="http://www.w3.org/1999/xlink" x="0px" y="0px"
	 viewBox="0 0 150 150" style="enable-background:new 0 0 150 150;" xml:space="preserve">
<style type="text/css">
	.st0{fill:#FFFFFF;}
	.st1{fill:#F4F4F4;}
	.st2{fill:#282828;}
	.st3{fill:#12D1DB;}
	.st4{display:none;}
	.st5{display:inline;}
	.st6{display:inline;fill:none;stroke:#000000;stroke-width:1.2;stroke-miterlimit:10;}
</style>
<g>
	<g>
		<path class="st3" d="M106,131.7H0v-16.6c0-20.1,35.1-28.7,53-28.7c17.9,0,53,8.7,53,28.7V131.7z M6.2,125.6h93.5v-9.2
			c0-13.6-28.4-23.9-46.7-23.9S6.2,102.8,6.2,116.4V125.6z M53,75.7c-15.8,0-28.7-12.9-28.7-28.7c0-15.8,12.9-28.7,28.7-28.7
			c15.8,0,28.7,12.9,28.7,28.7C81.7,62.9,68.8,75.7,53,75.7z M53,25.2c-12,0-21.8,9.8-21.8,21.8S40.9,68.9,53,68.9
			S74.8,59.1,74.8,47S65,25.2,53,25.2z"/>
	</g>
	<g>
		<path class="st3" d="M114.4,66.4c10.6,0,19.3-8.7,19.3-19.3c0-10.6-8.7-19.3-19.3-19.3c-10.6,0-19.3,8.7-19.3,19.3
			C95.1,57.7,103.8,66.4,114.4,66.4z M114.4,32.4c8.1,0,14.7,6.6,14.7,14.7s-6.6,14.7-14.7,14.7s-14.7-6.6-14.7-14.7
			S106.3,32.4,114.4,32.4z"/>
		<path class="st3" d="M150,92.8c0-13.5-23.6-19.3-35.6-19.3c-7.9,0-20.9,2.6-28.8,8.2c0.8,1.1,1.6,2.7,2.3,4.1
			c6.5-4.9,18-8.2,26.4-8.2c12.3,0,31.4,6.9,31.4,16v6.2h-37c1,1.4,2.2,2.7,3.2,4.1h38V92.8z"/>
	</g>
</g>
</svg>
