<?xml version="1.0" encoding="utf-8"?>
<!-- Generator: Adobe Illustrator 21.0.2, SVG Export Plug-In . SVG Version: 6.00 Build 0)  -->
<svg version="1.1" id="Layer_1" xmlns="http://www.w3.org/2000/svg" xmlns:xlink="http://www.w3.org/1999/xlink" x="0px" y="0px"
	 viewBox="0 0 150 150" style="enable-background:new 0 0 150 150;" xml:space="preserve">
<style type="text/css">
	.st0{fill:#FFFFFF;}
	.st1{fill:#F4F4F4;}
	.st2{fill:#282828;}
	.st3{fill:#12D1DB;}
	.st4{display:none;}
	.st5{display:inline;}
	.st6{display:inline;fill:none;stroke:#000000;stroke-width:1.2;stroke-miterlimit:10;}
</style>
<g>
	<path class="st3" d="M111.9,118.8c0,8.4-7.9,15.3-17.5,15.3H25c-9.7,0-17.5-6.9-17.5-15.3V31.2c0-8.4,7.9-15.3,17.5-15.3h69.3
		c9.7,0,17.5,6.9,17.5,15.3v6.1c2.5-2.2,5-4.3,7.5-6.5C119,18.9,108,9.3,94.3,9.3H25c-13.8,0-25,9.8-25,21.9v87.6
		c0,12.1,11.2,21.9,25,21.9h69.3c13.8,0,25-9.8,25-21.9V83.7c-2.4,1.6-5.1,3-7.5,4.6V118.8z"/>
	<path class="st3" d="M133.5,33.1c4.5,1.4,8.4,6.2,8.7,11l0,0.2l-72.7,57.1l-9.6-1.5l0.8-9.7L133.5,33.1 M132,24.8L53.6,86.4
		l-1.7,19.9l19.8,3L150,47.8l-0.3-4.2c-0.6-7.9-6.5-15.3-14-17.6L132,24.8L132,24.8z"/>
</g>
</svg>
