<?xml version="1.0" encoding="utf-8"?>
<!-- Generator: Adobe Illustrator 21.0.2, SVG Export Plug-In . SVG Version: 6.00 Build 0)  -->
<svg version="1.1" id="Layer_1" xmlns="http://www.w3.org/2000/svg" xmlns:xlink="http://www.w3.org/1999/xlink" x="0px" y="0px"
	 viewBox="0 0 150 150" style="enable-background:new 0 0 150 150;" xml:space="preserve">
<style type="text/css">
	.st0{fill:#FFFFFF;}
	.st1{fill:#F4F4F4;}
	.st2{fill:#282828;}
	.st3{fill:#12D1DB;}
	.st4{display:none;}
	.st5{display:inline;}
	.st6{display:inline;fill:none;stroke:#000000;stroke-width:1.2;stroke-miterlimit:10;}
</style>
<g>
	<g>
		<polygon class="st3" points="150,131 135.1,131 135.1,123.5 142.5,123.5 142.5,37.4 97.7,37.4 97.7,13.9 48.1,13.9 48.1,37.4 
			7.5,37.4 7.5,123.5 14.9,123.5 14.9,131 0,131 0,29.9 40.6,29.9 40.6,6.4 105.2,6.4 105.2,29.9 150,29.9 		"/>
	</g>
	<g>
		<path class="st3" d="M118.5,143.6H30.4v-13.8c0-16.7,29.2-23.9,44.1-23.9c14.9,0,44.1,7.2,44.1,23.9V143.6z M37.8,136.1h73.2v-6.4
			c0-9.4-22.2-16.4-36.6-16.4s-36.6,7.1-36.6,16.4V136.1z M74.5,103.2c-13.2,0-23.9-10.7-23.9-23.9c0-13.2,10.7-23.9,23.9-23.9
			c13.2,0,23.9,10.7,23.9,23.9C98.4,92.5,87.6,103.2,74.5,103.2z M74.5,62.9c-9.1,0-16.4,7.4-16.4,16.4s7.4,16.4,16.4,16.4
			s16.4-7.4,16.4-16.4S83.5,62.9,74.5,62.9z"/>
	</g>
</g>
</svg>
