<?xml version="1.0" encoding="utf-8"?>
<!-- Generator: Adobe Illustrator 21.0.2, SVG Export Plug-In . SVG Version: 6.00 Build 0)  -->
<svg version="1.1" id="Layer_1" xmlns="http://www.w3.org/2000/svg" xmlns:xlink="http://www.w3.org/1999/xlink" x="0px" y="0px"
	 viewBox="0 0 150 150" style="enable-background:new 0 0 150 150;" xml:space="preserve">
<style type="text/css">
	.st0{fill:#FFFFFF;}
	.st1{fill:#F4F4F4;}
	.st2{fill:#282828;}
	.st3{fill:#12D1DB;}
	.st4{display:none;}
	.st5{display:inline;}
	.st6{display:inline;fill:none;stroke:#000000;stroke-width:1.2;stroke-miterlimit:10;}
</style>
<g>
	<g>
		<g>
			<g>
				<path class="st3" d="M21,150C21,150,21,150,21,150c-2.1,0-3.8-1.7-3.8-3.8L18.1,3.7c0-2.1,1.7-3.7,3.8-3.7c0,0,0,0,0,0
					c2.1,0,3.8,1.7,3.8,3.8l-0.8,142.5C24.9,148.3,23.1,150,21,150z"/>
			</g>
		</g>
		<g>
			<path class="st3" d="M132.8,96H17.9L18,22.5h114.7l-24.5,37.4L132.8,96z M25.5,88.3h92.7L98.9,60l19.6-29.8H25.6L25.5,88.3z"/>
		</g>
	</g>
	<g>
		<path class="st3" d="M97.1,96c-1.2,0-2.4-0.6-3.2-1.7L70.4,60l23.5-35.7c1.2-1.8,3.5-2.3,5.3-1.1c1.8,1.2,2.3,3.5,1.1,5.3
			L79.7,59.9L100.3,90c1.2,1.7,0.7,4.1-1,5.3C98.6,95.8,97.9,96,97.1,96z"/>
	</g>
</g>
</svg>
