<?xml version="1.0" encoding="utf-8"?>
<!-- Generator: Adobe Illustrator 21.0.2, SVG Export Plug-In . SVG Version: 6.00 Build 0)  -->
<svg version="1.1" id="Layer_1" xmlns="http://www.w3.org/2000/svg" xmlns:xlink="http://www.w3.org/1999/xlink" x="0px" y="0px"
	 viewBox="0 0 150 150" style="enable-background:new 0 0 150 150;" xml:space="preserve">
<style type="text/css">
	.st0{fill:#FFFFFF;}
	.st1{fill:#F4F4F4;}
	.st2{fill:#282828;}
	.st3{fill:#12D1DB;}
	.st4{display:none;}
	.st5{display:inline;}
	.st6{display:inline;fill:none;stroke:#000000;stroke-width:1.2;stroke-miterlimit:10;}
</style>
<g>
	<g>
		<path d="M148.5,35.4c0,0.7-0.2,1.4-0.7,1.9l-70.5,79.1c-0.6,0.6-1.4,1-2.2,1s-1.6-0.4-2.2-1L2.3,37.4c-1.1-1.2-1-3.1,0.2-4.1
			c1.2-1.1,3.1-1,4.1,0.2L75,110.2l68.4-76.7c1.1-1.2,2.9-1.3,4.1-0.2C148.1,33.8,148.5,34.6,148.5,35.4z"/>
		<path d="M75,119c-1.3,0-2.5-0.5-3.3-1.5L1.1,38.4c-0.8-0.9-1.2-2-1.1-3.2s0.6-2.3,1.5-3.1c1.8-1.6,4.7-1.5,6.3,0.4L75,107.9
			l67.2-75.4c0.8-0.9,1.9-1.4,3.1-1.5c1.2-0.1,2.3,0.3,3.2,1.1c0.9,0.8,1.5,2.1,1.5,3.3c0,1.1-0.4,2.2-1.1,3l-70.5,79.1
			C77.5,118.5,76.3,119,75,119z M4.5,34c-0.3,0-0.7,0.1-0.9,0.4c-0.3,0.3-0.4,0.6-0.5,1c0,0.4,0.1,0.7,0.4,1L74,115.5
			c0.6,0.6,1.6,0.6,2.1,0l70.5-79.1c0.3-0.3,0.4-0.7,0.4-0.9c0-0.4-0.2-0.8-0.5-1c-0.3-0.2-0.6-0.3-1-0.4c-0.4,0-0.7,0.2-1,0.5
			l-69.5,78l-69.5-78C5.2,34.2,4.8,34,4.5,34z"/>
	</g>
</g>
</svg>
