<?xml version="1.0" encoding="UTF-8"?>
<svg width="16px" height="16px" viewBox="0 0 16 16" version="1.1" xmlns="http://www.w3.org/2000/svg" xmlns:xlink="http://www.w3.org/1999/xlink">
    <!-- Generator: Sketch 3.8.3 (29802) - http://www.bohemiancoding.com/sketch -->
    <title>notice</title>
    <desc>Created with Sketch.</desc>
    <defs></defs>
    <g id="Page-1" stroke="none" stroke-width="1" fill="none" fill-rule="evenodd">
        <g id="notice" fill="#4990E2">
            <path d="M8,1 C9.86975,1 11.6276875,1.728125 12.94975,3.05025 C14.2718125,4.372375 15,6.13025 15,8 C15,9.86975 14.271875,11.627625 12.94975,12.94975 C11.6276875,14.271875 9.86975,15 8,15 C6.13025,15 4.3724375,14.271875 3.0503125,12.94975 C1.728125,11.627625 1,9.86975 1,8 C1,6.13025 1.728125,4.372375 3.0503125,3.05025 C4.3725,1.728125 6.13025,1 8,1 L8,1 Z M8,0 C3.58175,0 0,3.58175 0,8 C0,12.41825 3.58175,16 8,16 C12.41825,16 16,12.41825 16,8 C16,3.58175 12.41825,0 8,0 L8,0 L8,0 Z" id="Shape"></path>
            <path d="M8.64999998,11.83 L7.35000002,11.83 L7.3499999,8 L6.5,8 L6.5,6.91543902 L8.64999998,6.91543902 L8.64999998,11.83 Z M8.85000002,5.02702477 C8.85000002,5.27055217 8.76613419,5.47192757 8.59840002,5.63115702 C8.43066584,5.79038647 8.22893452,5.87 7.9932,5.87 C7.75746548,5.87 7.5580008,5.7880449 7.39479998,5.62413223 C7.23159916,5.46021956 7.14999998,5.26118573 7.14999998,5.02702477 C7.14999998,4.78349738 7.23159916,4.5797804 7.39479998,4.41586773 C7.5580008,4.25195506 7.75746548,4.16999996 7.9932,4.16999996 C8.22893452,4.16999996 8.43066584,4.25195506 8.59840002,4.41586773 C8.76613419,4.5797804 8.85000002,4.78349738 8.85000002,5.02702477 L8.85000002,5.02702477 Z" id="i"></path>
        </g>
    </g>
</svg>