<?xml version="1.0" encoding="UTF-8"?>
<svg width="256px" height="256px" viewBox="0 0 256 256" version="1.1" xmlns="http://www.w3.org/2000/svg" xmlns:xlink="http://www.w3.org/1999/xlink">
    <!-- Generator: Sketch 3.8.3 (29802) - http://www.bohemiancoding.com/sketch -->
    <title>Shape</title>
    <desc>Created with Sketch.</desc>
    <defs></defs>
    <g id="Page-1" stroke="none" stroke-width="1" fill="none" fill-rule="evenodd">
        <g id="help" fill="#282C36">
            <g id="Page-1">
                <path d="M128,26 C155.245,26 180.861,36.61 200.125,55.875 C219.389,75.14 230,100.755 230,128 C230,155.245 219.39,180.86 200.125,200.125 C180.861,219.39 155.245,230 128,230 C100.755,230 75.141,219.39 55.876,200.125 C36.61,180.86 26,155.245 26,128 C26,100.755 36.61,75.14 55.876,55.875 C75.142,36.61 100.755,26 128,26 L128,26 L128,26 Z M128,0 C57.308,0 0,57.308 0,128 C0,198.692 57.308,256 128,256 C198.692,256 256,198.692 256,128 C256,57.308 198.692,0 128,0 L128,0 L128,0 Z M128,208 C136.836,208 144,200.837 144,192 C144,183.163 136.836,176 128,176 C119.163,176 112,183.163 112,192 C112,200.837 119.163,208 128,208 L128,208 L128,208 Z M183.999,96 C183.999,69.533 158.879,48 128.002,48 C110.9,48 94.985,54.506 84.336,65.848 C78.287,72.29 78.606,82.416 85.048,88.464 C91.49,94.513 101.615,94.193 107.664,87.752 C112.221,82.898 119.824,80 128.002,80 C140.787,80 152.002,87.477 152.002,96 C152.002,104.523 140.785,112 128.002,112 C119.165,112 112,119.164 112,128 L112,144 C112,152.836 119.164,160 128,160 C136.836,160 144,152.836 144,144 L144,141.993 C167,136.077 183.999,117.702 183.999,96 L183.999,96 L183.999,96 Z" id="Shape"></path>
            </g>
        </g>
    </g>
</svg>