<svg xmlns="http://www.w3.org/2000/svg" width="235" height="60" viewBox="0 0 235 60"><g fill="none" fill-rule="evenodd"><text fill="#282C36" font-family="CeraPRO-Bold, Cera PRO" font-size="40" font-weight="bold"><tspan x="67" y="43">Request</tspan></text><path d="M10 5h48v48H10z"/><path fill="#D4D5D7" d="M44 29L34 39 24 29l10-10 10 10zm-10 5l5-5-5-5-5 5 5 5z"/><g fill="#282C36"><path d="M33.293 23.293l-5 5a.999.999 0 0 0 0 1.414l5 5a.997.997 0 0 0 1.414 0l5-5a.999.999 0 0 0 0-1.414l-5-5a.999.999 0 0 0-1.414 0zM37.586 29L34 32.586 30.414 29 34 25.414 37.586 29z"/><path d="M57.126 26.892A2.944 2.944 0 0 0 55 26a2.996 2.996 0 0 0-2.816 2h-7.77L35 18.586v-7.767a2.864 2.864 0 0 0 1.108-.693A2.944 2.944 0 0 0 37 8c0-.811-.317-1.565-.874-2.108-1.121-1.149-3.148-1.132-4.234-.018A2.944 2.944 0 0 0 31 8c0 1.302.839 2.402 2 2.816v7.77L23.586 28h-7.767a2.864 2.864 0 0 0-.693-1.108c-1.121-1.149-3.148-1.132-4.234-.018A2.944 2.944 0 0 0 10 29c0 .811.317 1.565.874 2.108A2.944 2.944 0 0 0 13 32a2.996 2.996 0 0 0 2.816-2h7.77L33 39.414v7.767a2.864 2.864 0 0 0-1.108.693A2.944 2.944 0 0 0 31 50c0 .811.317 1.565.874 2.108A2.944 2.944 0 0 0 34 53c.811 0 1.565-.317 2.108-.874A2.944 2.944 0 0 0 37 50a2.996 2.996 0 0 0-2-2.816v-7.77L44.414 30h7.767c.147.417.376.799.693 1.108A2.944 2.944 0 0 0 55 32c.811 0 1.565-.317 2.108-.874A2.944 2.944 0 0 0 58 29c0-.811-.317-1.565-.874-2.108zM33.306 7.288A.957.957 0 0 1 34 7c.267 0 .513.102.712.306A.957.957 0 0 1 35 8a.974.974 0 0 1-.306.712A.957.957 0 0 1 34 9c-.551 0-1-.449-1-1 0-.267.102-.513.306-.712zM13 30a.974.974 0 0 1-.712-.306A.957.957 0 0 1 12 29c0-.267.102-.513.306-.712A.957.957 0 0 1 13 28c.267 0 .513.102.712.306A.957.957 0 0 1 14 29c0 .551-.449 1-1 1zm21.694 20.712a.991.991 0 0 1-1.406-.018A.957.957 0 0 1 33 50c0-.267.102-.513.306-.712A.957.957 0 0 1 34 49c.551 0 1 .449 1 1a.974.974 0 0 1-.306.712zM34 37.586L25.414 29 34 20.414 42.586 29 34 37.586zm21.694-7.874a.991.991 0 0 1-1.406-.018A.957.957 0 0 1 54 29c0-.551.449-1 1-1 .267 0 .513.102.712.306A.957.957 0 0 1 56 29a.974.974 0 0 1-.306.712z"/><path d="M45.725 39.311l-3.679-3.679-1.414 1.414 3.67 3.67A2.965 2.965 0 0 0 44 42c0 .795.313 1.547.883 2.118a2.98 2.98 0 0 0 4.235-.001 2.98 2.98 0 0 0 .004-4.23c-.887-.898-2.285-1.083-3.397-.576zm1.979 3.392a1.004 1.004 0 0 1-1.406.001A.99.99 0 0 1 46 42c0-.262.105-.512.297-.704l.004-.004a.978.978 0 0 1 1.402.004A.992.992 0 0 1 48 42a.992.992 0 0 1-.296.703zM21 19.003c.454 0 .887-.112 1.285-.304l3.668 3.668 1.414-1.414-3.67-3.67c.192-.398.303-.831.303-1.283 0-.795-.313-1.547-.883-2.118-1.139-1.138-3.094-1.139-4.234.001a2.977 2.977 0 0 0-.005 4.23c.567.574 1.321.89 2.122.89zm-.704-3.706A.992.992 0 0 1 21 15a.99.99 0 0 1 .703.296A.993.993 0 0 1 22 16a.992.992 0 0 1-.297.704l-.004.004a.994.994 0 0 1-1.401-.004A.989.989 0 0 1 20 16c0-.262.105-.511.296-.703zm5.657 20.336l-3.679 3.679c-1.111-.507-2.507-.322-3.394.573a2.978 2.978 0 0 0 .003 4.233 2.98 2.98 0 0 0 4.235-.001A2.98 2.98 0 0 0 24 42c0-.452-.112-.885-.303-1.283l3.67-3.67-1.414-1.414zm-4.249 7.07a1.004 1.004 0 0 1-1.406.001A.99.99 0 0 1 20 42c0-.262.105-.512.297-.704l.004-.004a.978.978 0 0 1 1.402.004A.992.992 0 0 1 22 42a.992.992 0 0 1-.296.703zm20.343-20.336l3.67-3.67c.398.192.831.303 1.283.303.795 0 1.547-.313 2.118-.883a2.98 2.98 0 0 0-.001-4.235c-1.139-1.138-3.099-1.134-4.229-.004a2.962 2.962 0 0 0-.89 2.122c0 .454.112.887.304 1.285l-3.668 3.668 1.413 1.414zm4.249-7.07A.992.992 0 0 1 47 15c.262 0 .511.105.703.296A.992.992 0 0 1 48 16a.99.99 0 0 1-.296.703A1.003 1.003 0 0 1 45.998 16a.98.98 0 0 1 .298-.703z"/></g></g></svg>