<svg width="60" height="16" viewBox="0 0 60 16" xmlns="http://www.w3.org/2000/svg" xmlns:sketch="http://www.bohemiancoding.com/sketch/ns"><g sketch:type="MSArtboardGroup" fill="none"><rect fill="#F9BF50" sketch:type="MSShapeGroup" width="60" height="16" rx="8"/><path d="M6 8l4 4 4-4h-3v-4h-2v4h-3z" fill="#fff" sketch:type="MSShapeGroup"/><path d="M18.344 10.224c.208.312.474.542.798.69.324.148.658.222 1.002.222.192 0 .388-.03.588-.09.2-.06.382-.15.546-.27.164-.12.298-.268.402-.444.104-.176.156-.38.156-.612 0-.328-.104-.578-.312-.75-.208-.172-.466-.316-.774-.432-.308-.116-.644-.228-1.008-.336-.364-.108-.7-.258-1.008-.45-.308-.192-.566-.45-.774-.774-.208-.324-.312-.762-.312-1.314 0-.248.054-.512.162-.792.108-.28.278-.536.51-.768.232-.232.53-.426.894-.582.364-.156.802-.234 1.314-.234.464 0 .908.064 1.332.192.424.128.796.388 1.116.78l-.936.852c-.144-.224-.348-.404-.612-.54s-.564-.204-.9-.204c-.32 0-.586.042-.798.126-.212.084-.382.192-.51.324s-.218.274-.27.426c-.052.152-.078.292-.078.42 0 .36.104.636.312.828.208.192.466.348.774.468.308.12.644.228 1.008.324s.7.23 1.008.402c.308.172.566.404.774.696.208.292.312.694.312 1.206 0 .408-.078.776-.234 1.104-.156.328-.366.604-.63.828-.264.224-.576.396-.936.516-.36.12-.744.18-1.152.18-.544 0-1.06-.096-1.548-.288-.488-.192-.876-.488-1.164-.888l.948-.816zm6.144-7.296h1.08v5.856l2.448-2.46h1.5l-2.652 2.58 2.88 3.096h-1.536l-2.64-2.952v2.952h-1.08v-9.072zm7.044 6.624c0 .248.054.474.162.678.108.204.25.378.426.522.176.144.38.256.612.336.232.08.472.12.72.12.336 0 .628-.078.876-.234.248-.156.476-.362.684-.618l.816.624c-.6.776-1.44 1.164-2.52 1.164-.448 0-.854-.076-1.218-.228-.364-.152-.672-.362-.924-.63s-.446-.584-.582-.948c-.136-.364-.204-.758-.204-1.182 0-.424.074-.818.222-1.182.148-.364.352-.68.612-.948.26-.268.57-.478.93-.63.36-.152.752-.228 1.176-.228.504 0 .93.088 1.278.264.348.176.634.406.858.69.224.284.386.604.486.96.1.356.15.718.15 1.086v.384h-4.56zm3.408-.864c-.008-.24-.046-.46-.114-.66s-.17-.374-.306-.522c-.136-.148-.306-.264-.51-.348-.204-.084-.442-.126-.714-.126-.264 0-.506.05-.726.15-.22.1-.406.23-.558.39-.152.16-.27.338-.354.534-.084.196-.126.39-.126.582h3.408zm5.496-1.44h-1.548v2.58l.012.474c.008.156.038.296.09.42s.132.224.24.3c.108.076.266.114.474.114.128 0 .26-.012.396-.036.136-.024.26-.068.372-.132v.984c-.128.072-.294.122-.498.15-.204.028-.362.042-.474.042-.416 0-.738-.058-.966-.174-.228-.116-.396-.266-.504-.45-.108-.184-.172-.39-.192-.618-.02-.228-.03-.458-.03-.69v-2.964h-1.248v-.936h1.248v-1.596h1.08v1.596h1.548v.936zm5.46.576c-.2-.208-.41-.366-.63-.474-.22-.108-.482-.162-.786-.162-.296 0-.554.054-.774.162-.22.108-.404.256-.552.444-.148.188-.26.404-.336.648-.076.244-.114.498-.114.762s.044.514.132.75c.088.236.212.442.372.618s.352.314.576.414c.224.1.476.15.756.15.304 0 .564-.054.78-.162.216-.108.416-.266.6-.474l.768.768c-.28.312-.606.536-.978.672s-.766.204-1.182.204c-.44 0-.842-.072-1.206-.216-.364-.144-.678-.346-.942-.606-.264-.26-.468-.572-.612-.936-.144-.364-.216-.766-.216-1.206 0-.44.072-.844.216-1.212.144-.368.346-.684.606-.948.26-.264.572-.47.936-.618.364-.148.77-.222 1.218-.222.416 0 .814.074 1.194.222.38.148.71.374.99.678l-.816.744zm1.716-4.896h1.08v4.26h.024c.136-.304.372-.55.708-.738.336-.188.724-.282 1.164-.282.272 0 .534.042.786.126.252.084.472.214.66.39.188.176.338.402.45.678.112.276.168.602.168.978v3.66h-1.08v-3.36c0-.264-.036-.49-.108-.678-.072-.188-.168-.34-.288-.456-.12-.116-.258-.2-.414-.252-.156-.052-.318-.078-.486-.078-.224 0-.432.036-.624.108-.192.072-.36.186-.504.342-.144.156-.256.354-.336.594-.08.24-.12.524-.12.852v2.928h-1.08v-9.072z" fill="#fff" sketch:type="MSShapeGroup"/></g></svg>