<?xml version="1.0" encoding="UTF-8"?>
<svg width="16px" height="16px" viewBox="0 0 16 16" version="1.1" xmlns="http://www.w3.org/2000/svg" xmlns:xlink="http://www.w3.org/1999/xlink">
    <!-- Generator: Sketch 3.8.3 (29802) - http://www.bohemiancoding.com/sketch -->
    <title>Oval-1</title>
    <desc>Created with Sketch.</desc>
    <defs></defs>
    <g id="Page-1" stroke="none" stroke-width="1" fill="none" fill-rule="evenodd">
        <g id="Oval-1" fill="#282C36">
            <path d="M8,16 C12.418278,16 16,12.418278 16,8 C16,3.581722 12.418278,0 8,0 C3.581722,0 0,3.581722 0,8 C0,12.418278 3.581722,16 8,16 L8,16 Z M8,14.5 C11.5898509,14.5 14.5,11.5898509 14.5,8 C14.5,4.41014913 11.5898509,1.5 8,1.5 C4.41014913,1.5 1.5,4.41014913 1.5,8 C1.5,11.5898509 4.41014913,14.5 8,14.5 L8,14.5 Z M8.00001271,12.5 C9.71280392,12.5 11.266773,11.4109294 11.9589082,9.7255245 C12.0661717,9.46439815 11.9562041,9.15935246 11.7132537,9.04412876 C11.4704235,8.92896966 11.1866108,9.04709978 11.0793473,9.30816154 C10.5408663,10.6193478 9.33212356,11.4666036 8.00001271,11.4666036 C6.66784176,11.4666036 5.45915908,10.6193478 4.92061806,9.30816154 C4.81341462,9.04709978 4.52960194,8.92890507 4.28671165,9.04412876 C4.04382135,9.15935246 3.9338537,9.46439815 4.04105714,9.7255245 C4.73325241,11.4109294 6.2871614,12.5 8.00001271,12.5 L8.00001271,12.5 L8.00001271,12.5 L8.00001271,12.5 Z M9.75,5 C9.3358125,5 9,5.6715625 9,6.5 C9,7.3284375 9.3358125,8 9.75,8 C10.1641875,8 10.5,7.3284375 10.5,6.5 C10.5,5.6715625 10.1641875,5 9.75,5 L9.75,5 L9.75,5 Z M6.25,5 C5.8358125,5 5.5,5.6715625 5.5,6.5 C5.5,7.3284375 5.8358125,8 6.25,8 C6.6641875,8 7,7.3284375 7,6.5 C7,5.6715625 6.6641875,5 6.25,5 L6.25,5 L6.25,5 Z"></path>
        </g>
    </g>
</svg>