<?xml version="1.0" encoding="utf-8"?>
<!-- Generator: Adobe Illustrator 21.1.0, SVG Export Plug-In . SVG Version: 6.00 Build 0)  -->
<svg version="1.1" id="Layer_1" xmlns="http://www.w3.org/2000/svg" xmlns:xlink="http://www.w3.org/1999/xlink" x="0px" y="0px"
	 viewBox="0 0 150 150" style="enable-background:new 0 0 150 150;" xml:space="preserve">
<style type="text/css">
	.st0{fill:#FFFFFF;}
	.st1{fill:#F4F4F4;}
	.st2{fill:#282828;}
	.st3{fill:#12D1DB;}
	.st4{display:none;}
	.st5{display:inline;}
	.st6{display:inline;fill:none;stroke:#000000;stroke-width:1.2;stroke-miterlimit:10;}
	.st7{fill:#393C44;}
	.st8{fill:#515A5D;}
	.st9{fill:#12D1DB;stroke:#12D1DB;stroke-miterlimit:10;}
	.st10{fill:#515A5D;stroke:#515A5D;stroke-width:2;stroke-miterlimit:10;}
	.st11{fill:#A6E0DD;}
	.st12{fill:none;stroke:#515A5D;stroke-width:5;stroke-linecap:round;stroke-linejoin:round;stroke-miterlimit:10;}
	.st13{fill:#57F7FF;}
	.st14{fill:#5B6466;}
	.st15{fill:#9FC9C9;}
	.st16{fill:none;}
	.st17{fill:#959899;}
</style>
<g>
	<g>
		<g>
			<path class="st8" d="M95.3,150c-0.2,0-0.4,0-0.6-0.1l-16.3-3.7c-0.6-0.1-1.2-0.5-1.6-1.1s-0.5-1.2-0.3-1.9l6-26L66.7,92l-46,37.1
				c-0.6,0.4-1.3,0.6-2,0.5c-0.7-0.1-1.3-0.5-1.7-1.1l-12.5-20c-0.5-0.8-0.5-1.9,0-2.7L41,51.1L25,25.5c-2.6-4.2-3.9-8.9-3.7-13.3
				c0.3-4.7,2.3-8.4,5.6-10.6c6.7-4.2,16.7-0.3,22.3,8.6l16,25.6l65.3-9.2c1-0.1,1.9,0.3,2.5,1.1l12.5,20c0.4,0.6,0.5,1.3,0.3,2
				c-0.2,0.7-0.7,1.3-1.3,1.6L90.9,76.8l15.9,25.3l26,6c1.3,0.3,2.2,1.6,1.9,3l-3.7,16.3c-0.2,1-1,1.7-2,1.9l-19.8,3.6L97.3,149
				C96.8,149.6,96.1,150,95.3,150z M82,141.9l12.2,2.8l11.5-15.7c0.4-0.5,0.9-0.9,1.6-1l19.1-3.5l2.8-12.2l-24.6-5.6
				c-0.6-0.1-1.2-0.5-1.6-1.1L85.2,77c-0.4-0.6-0.5-1.3-0.3-2c0.2-0.7,0.7-1.3,1.3-1.6l53.6-25.4l-10.2-16.2l-65.3,9.2
				c-1,0.1-1.9-0.3-2.5-1.1L45,13c-4.1-6.5-11.1-9.7-15.4-7.1c-1.9,1.2-3.1,3.6-3.3,6.6c-0.2,3.4,0.9,7,2.9,10.3l16.9,26.9
				c0.5,0.8,0.5,1.9,0,2.7L9.6,107.2l10.2,16.2l46-37.1c0.6-0.4,1.3-0.6,2-0.5c0.7,0.1,1.3,0.5,1.7,1.1l17.9,28.5
				c0.4,0.6,0.5,1.2,0.3,1.9L82,141.9z"/>
		</g>
	</g>
	<g>
		<polygon class="st3" points="17.2,106.8 21.8,113.5 46.4,92.3 37.9,76.6 		"/>
	</g>
	<g>
		<polygon class="st3" points="126.3,38.2 130.2,45.2 100.1,58 89.8,43.5 		"/>
	</g>
	<g>
		<path class="st3" d="M30,19.5l11.7-7.3l-5.6-3.6c-3-0.7-5.9,1.2-6.6,4.1L30,19.5z"/>
	</g>
</g>
</svg>
