<?xml version="1.0" encoding="utf-8"?>
<!-- Generator: Adobe Illustrator 21.1.0, SVG Export Plug-In . SVG Version: 6.00 Build 0)  -->
<svg version="1.1" id="Layer_1" xmlns="http://www.w3.org/2000/svg" xmlns:xlink="http://www.w3.org/1999/xlink" x="0px" y="0px"
	 viewBox="0 0 150 150" style="enable-background:new 0 0 150 150;" xml:space="preserve">
<style type="text/css">
	.st0{fill:#FFFFFF;}
	.st1{fill:#F4F4F4;}
	.st2{fill:#282828;}
	.st3{fill:#12D1DB;}
	.st4{display:none;}
	.st5{display:inline;}
	.st6{display:inline;fill:none;stroke:#000000;stroke-width:1.2;stroke-miterlimit:10;}
	.st7{fill:#393C44;}
	.st8{fill:#515A5D;}
	.st9{fill:#12D1DB;stroke:#12D1DB;stroke-miterlimit:10;}
	.st10{fill:#515A5D;stroke:#515A5D;stroke-width:2;stroke-miterlimit:10;}
	.st11{fill:#A6E0DD;}
	.st12{fill:none;stroke:#515A5D;stroke-width:5;stroke-linecap:round;stroke-linejoin:round;stroke-miterlimit:10;}
	.st13{fill:#57F7FF;}
	.st14{fill:#5B6466;}
	.st15{fill:#9FC9C9;}
	.st16{fill:none;}
	.st17{fill:#959899;}
</style>
<g>
	<g>
		<path class="st8" d="M120.1,150H19.9c-1.4,0-2.5-1.1-2.5-2.5V2.5c0-1.4,1.1-2.5,2.5-2.5h78.5c6.9,0,12.5,5.6,12.5,12.5v5.3h9.2
			c6.9,0,12.5,5.6,12.5,12.5v107.2C132.6,144.4,127,150,120.1,150z M22.4,145h97.7c4.1,0,7.5-3.4,7.5-7.5V30.3
			c0-4.1-3.4-7.5-7.5-7.5H40.5c-1.4,0-2.5-1.1-2.5-2.5s1.1-2.5,2.5-2.5h65.4v-5.3c0-4.1-3.4-7.5-7.5-7.5h-76V145z"/>
	</g>
	<g>
		<path class="st8" d="M84,45.3H66c-1.4,0-2.5-1.1-2.5-2.5s1.1-2.5,2.5-2.5h18c1.4,0,2.5,1.1,2.5,2.5S85.4,45.3,84,45.3z"/>
	</g>
	<g>
		<path class="st8" d="M96.4,56.2H53.6c-1.4,0-2.5-1.1-2.5-2.5s1.1-2.5,2.5-2.5h42.8c1.4,0,2.5,1.1,2.5,2.5S97.8,56.2,96.4,56.2z"/>
	</g>
	<g>
		<g>
			<path class="st3" d="M97.8,116.8c-0.4,0-0.9-0.1-1.3-0.4c-3.6-2.2-7-3.7-10.3-4.6c-1.6,5.1-4.3,10.5-8.4,16.2c-0.5,0.7-1.3,1-2,1
				c-0.1,0-0.1,0-0.2,0c-0.1,0-0.1,0-0.2,0c-0.8,0-1.5-0.4-2-1c-4.2-5.8-6.9-11.2-8.5-16.3c-6.4,1.8-10.3,4.6-10.4,4.7
				c-1,0.7-2.3,0.6-3.2-0.2c5.2,7.8,14.1,12.9,24.1,12.9c10.1,0,18.9-5.1,24.1-12.9C99,116.6,98.4,116.8,97.8,116.8z"/>
		</g>
		<g>
			<path class="st3" d="M69.8,110.6c1.2,3.7,3.1,7.6,5.8,11.7c2.5-3.9,4.5-7.8,5.7-11.6C77.1,110,73.2,110.1,69.8,110.6z"/>
		</g>
		<g>
			<path class="st3" d="M51.5,112.3c0.1-0.1,4.7-3.4,12.2-5.5c-1-4.9-0.9-9.5-0.3-13.5C56,91.2,51.6,88,51.5,87.9
				c-1.1-0.8-1.3-2.4-0.5-3.5c0.8-1.1,2.4-1.3,3.5-0.5c0.3,0.3,4,2.9,9.9,4.6c2.9-10.4,9.2-16.7,9.3-16.8c0.5-0.5,1.2-0.7,1.9-0.7
				c0.7,0,1.4,0.2,1.9,0.7c0.1,0.1,6.3,6.2,9.3,16.5c3.1-1,6.4-2.4,9.8-4.5c1.2-0.7,2.7-0.3,3.4,0.8c0.7,1.2,0.3,2.7-0.8,3.4
				c-3.9,2.4-7.7,4-11.3,5.1c0.6,4.1,0.7,8.7-0.4,13.8c3.7,1.1,7.7,2.8,11.7,5.2c1,0.6,1.4,1.8,1.1,2.9c2.7-4.4,4.2-9.6,4.2-15.1
				c0-16-13-29-29-29c-16,0-29,13-29,29c0,5.5,1.5,10.7,4.2,15.1C50.2,114.1,50.6,112.9,51.5,112.3z"/>
		</g>
		<g>
			<path class="st3" d="M81.9,89.5c0-0.1-0.1-0.3-0.1-0.5c-1.7-5.7-4.5-9.8-6.3-11.9c-1.8,2.3-4.8,6.5-6.5,12.5
				C72.8,90.2,77.1,90.4,81.9,89.5z"/>
		</g>
		<g>
			<path class="st3" d="M82.9,94.3c-2.6,0.5-5.2,0.7-7.6,0.7c-2.6,0-5-0.2-7.3-0.6c-0.4,3.4-0.4,7.2,0.4,11.4
				c4.2-0.7,8.9-0.8,14.1,0.1C83.3,102,83.5,98.1,82.9,94.3z"/>
		</g>
	</g>
</g>
</svg>
