<?xml version="1.0" encoding="utf-8"?>
<!-- Generator: Adobe Illustrator 21.1.0, SVG Export Plug-In . SVG Version: 6.00 Build 0)  -->
<svg version="1.1" id="Layer_1" xmlns="http://www.w3.org/2000/svg" xmlns:xlink="http://www.w3.org/1999/xlink" x="0px" y="0px"
	 viewBox="0 0 150 150" style="enable-background:new 0 0 150 150;" xml:space="preserve">
<style type="text/css">
	.st0{fill:#FFFFFF;}
	.st1{fill:#F4F4F4;}
	.st2{fill:#282828;}
	.st3{fill:#12D1DB;}
	.st4{display:none;}
	.st5{display:inline;}
	.st6{display:inline;fill:none;stroke:#000000;stroke-width:1.2;stroke-miterlimit:10;}
	.st7{fill:#393C44;}
	.st8{fill:#515A5D;}
	.st9{fill:#12D1DB;stroke:#12D1DB;stroke-miterlimit:10;}
	.st10{fill:#515A5D;stroke:#515A5D;stroke-width:2;stroke-miterlimit:10;}
	.st11{fill:#A6E0DD;}
	.st12{fill:none;stroke:#515A5D;stroke-width:5;stroke-linecap:round;stroke-linejoin:round;stroke-miterlimit:10;}
	.st13{fill:#57F7FF;}
	.st14{fill:#5B6466;}
	.st15{fill:#9FC9C9;}
	.st16{fill:none;}
	.st17{fill:#959899;}
</style>
<g>
	<g>
		<path class="st8" d="M116.8,131.4c-0.3,0-0.6,0-0.9-0.1c-3.2-0.7-3.7-4.5-4.5-9.6c-1-7.2-2.4-17-11-19.3l-2.2-0.6l4.2-27.1
			l2.4,0.2c7.6,0.8,25.8,3.8,31.4,15.8c3.3,7.1,1.5,15.8-5.3,25.9C123.5,127.6,119.9,131.4,116.8,131.4z M103.8,98.3
			c9.8,4,11.4,15.1,12.5,22.7c0.2,1.7,0.6,3.8,0.9,5c1.2-0.9,3.8-3.7,9.5-12.1c5.8-8.5,7.4-15.6,4.9-21c-4.1-8.8-18.1-11.7-25-12.7
			L103.8,98.3z"/>
	</g>
	<g>
		<path class="st8" d="M33.1,130.9c-3.2,0-6.7-3.8-14.1-14.6c-6.8-10-8.5-18.8-5.2-25.9c5.7-12.4,25-15.4,30.7-16l2.3-0.3l5,27
			l-2.2,0.6c-8.5,2.3-9.9,12.2-11,19.3c-0.8,5.2-1.4,9-4.6,9.8C33.7,130.8,33.4,130.9,33.1,130.9z M42.8,79.5
			c-10,1.5-21,5.5-24.4,12.9c-2.5,5.4-0.9,12.5,4.8,21c5.7,8.5,8.3,11.2,9.5,12.1c0.4-1.2,0.7-3.5,1-5.3c1.1-7.5,2.8-18.6,12.4-22.7
			L42.8,79.5z"/>
	</g>
	<g>
		<path class="st8" d="M96.3,117.5H54.2c-2.4,0-4.6-1.9-5-4.4l-1.4-6.8L45,91.1l-6.9-37c-0.3-1.5-0.5-3.9-0.3-5.5
			C39.6,31.2,58.7,0,74.2,0h2.5c15,0,32.6,30.8,34.3,48.6c0.2,1.6,0,4-0.3,5.5l-8.3,51.4l-1.2,7.5
			C100.8,115.5,98.7,117.5,96.3,117.5z M54.3,112.5h41.9c0.1-0.1,0.1-0.2,0.2-0.3l1.2-7.5l8.2-51.4c0.2-1.2,0.3-3.2,0.2-4.2
			C104.5,32.3,87.8,5,76.7,5h-2.5C62.6,5,44.5,32.8,42.8,49.1c-0.1,1,0.1,2.9,0.3,4.1l6.9,37l2.7,15.1l1.4,6.8
			C54.1,112.3,54.2,112.5,54.3,112.5z"/>
	</g>
	<g>
		<path class="st3" d="M75.2,30.8c8.5,0,15.4,7.5,15.4,29.2s-6.9,49.4-15.4,49.4S59.8,81.7,59.8,60C59.8,38.3,66.7,30.8,75.2,30.8z"
			/>
	</g>
	<g>
		<path class="st8" d="M75.7,147.2c-0.1,0-0.1,0-0.2,0c-14.1-0.2-23.6-21.8-24-22.8c-0.4-0.9-0.2-2,0.5-2.7c0.7-0.7,1.7-1,2.7-0.6
			l19.7,7.4l21.3-7.4c0.9-0.3,2-0.1,2.7,0.7c0.7,0.7,0.8,1.8,0.4,2.7C91.9,139.6,84.1,147.2,75.7,147.2z M59.1,128.1
			c3.7,6.3,9.9,14.1,16.6,14.1c0,0,0.1,0,0.1,0c5.3,0,10.7-4.9,15.9-14.4l-16.4,5.7c-0.5,0.2-1.1,0.2-1.7,0L59.1,128.1z"/>
	</g>
	<g>
		<path class="st8" d="M53.8,150c-1.4,0-2.5-1.1-2.5-2.5v-7.9c0-1.4,1.1-2.5,2.5-2.5s2.5,1.1,2.5,2.5v7.9
			C56.3,148.9,55.2,150,53.8,150z"/>
	</g>
	<g>
		<path class="st8" d="M63.5,149.9c-1.4,0-2.5-1.1-2.5-2.5v-0.1c0-1.4,1.1-2.5,2.5-2.5s2.5,1.1,2.5,2.5v0.1
			C66,148.8,64.8,149.9,63.5,149.9z"/>
	</g>
	<g>
		<path class="st8" d="M87.5,149.9c-1.4,0-2.5-1.1-2.5-2.5v-0.1c0-1.4,1.1-2.5,2.5-2.5s2.5,1.1,2.5,2.5v0.1
			C90,148.8,88.9,149.9,87.5,149.9z"/>
	</g>
	<g>
		<path class="st8" d="M96.3,150c-1.4,0-2.5-1.1-2.5-2.5v-7.9c0-1.4,1.1-2.5,2.5-2.5s2.5,1.1,2.5,2.5v7.9
			C98.8,148.9,97.7,150,96.3,150z"/>
	</g>
</g>
</svg>
