<?xml version="1.0" encoding="utf-8"?>
<!-- Generator: Adobe Illustrator 21.1.0, SVG Export Plug-In . SVG Version: 6.00 Build 0)  -->
<svg version="1.1" id="Layer_1" xmlns="http://www.w3.org/2000/svg" xmlns:xlink="http://www.w3.org/1999/xlink" x="0px" y="0px"
	 viewBox="0 0 150 150" style="enable-background:new 0 0 150 150;" xml:space="preserve">
<style type="text/css">
	.st0{fill:#FFFFFF;}
	.st1{fill:#F4F4F4;}
	.st2{fill:#282828;}
	.st3{fill:#12D1DB;}
	.st4{display:none;}
	.st5{display:inline;}
	.st6{display:inline;fill:none;stroke:#000000;stroke-width:1.2;stroke-miterlimit:10;}
	.st7{fill:#393C44;}
	.st8{fill:#515A5D;}
	.st9{fill:#12D1DB;stroke:#12D1DB;stroke-miterlimit:10;}
	.st10{fill:#515A5D;stroke:#515A5D;stroke-width:2;stroke-miterlimit:10;}
	.st11{fill:#A6E0DD;}
	.st12{fill:none;stroke:#515A5D;stroke-width:5;stroke-linecap:round;stroke-linejoin:round;stroke-miterlimit:10;}
</style>
<g>
	<g>
		<path class="st8" d="M147.5,103h-29.1c-1.4,0-2.5-1.1-2.5-2.5s1.1-2.5,2.5-2.5H145v-4.4c0-6.9-14-11.3-21.3-11.3
			c-5.6,0-14.2,2.4-18.6,6.2c-1,0.9-2.6,0.8-3.5-0.2s-0.8-2.6,0.2-3.5c5.5-4.9,15.4-7.5,21.9-7.5c9.4,0,26.3,5.5,26.3,16.3v6.9
			C150,101.9,148.9,103,147.5,103z M123.7,75.3C115.1,75.3,108,68,108,59c0-9,7.1-16.3,15.8-16.3c8.7,0,15.8,7.3,15.8,16.3
			C139.5,68,132.4,75.3,123.7,75.3z M123.7,47.6c-5.9,0-10.8,5.1-10.8,11.3c0,6.3,4.8,11.3,10.8,11.3s10.8-5.1,10.8-11.3
			C134.5,52.7,129.7,47.6,123.7,47.6z"/>
	</g>
	<g>
		<path class="st8" d="M31.3,103H2.5c-1.4,0-2.5-1.1-2.5-2.5v-6.9c0-10.9,16.8-16.3,26.3-16.3c5.9,0,14.8,2.2,20.5,6.4
			c1.1,0.8,1.3,2.4,0.5,3.5c-0.8,1.1-2.4,1.3-3.5,0.5c-4.6-3.4-12.5-5.4-17.5-5.4C19,82.2,5,86.6,5,93.6V98h26.3
			c1.4,0,2.5,1.1,2.5,2.5S32.7,103,31.3,103z M26.3,75.3c-8.7,0-15.8-7.3-15.8-16.3c0-9,7.1-16.3,15.8-16.3C34.9,42.6,42,49.9,42,59
			C42,68,34.9,75.3,26.3,75.3z M26.3,47.6c-5.9,0-10.8,5.1-10.8,11.3c0,6.3,4.8,11.3,10.8,11.3S37,65.2,37,59
			C37,52.7,32.2,47.6,26.3,47.6z"/>
	</g>
	<g>
		<path class="st3" d="M74.6,75c13,0,23.5-10.5,23.5-23.5S87.6,28,74.6,28S51.1,38.5,51.1,51.5S61.6,75,74.6,75z M74.6,86.8
			c-14.1,0-42.1,7.9-42.1,23.5V122h84.2v-11.8C116.7,94.6,88.7,86.8,74.6,86.8z M74.6,86.8c-14.1,0-42.1,7.9-42.1,23.5V122h84.2
			v-11.8C116.7,94.6,88.7,86.8,74.6,86.8z M74.6,86.8c-14.1,0-42.1,7.9-42.1,23.5V122h84.2v-11.8C116.7,94.6,88.7,86.8,74.6,86.8z
			 M74.6,86.8c-14.1,0-42.1,7.9-42.1,23.5V122h84.2v-11.8C116.7,94.6,88.7,86.8,74.6,86.8z M74.6,86.8c-14.1,0-42.1,7.9-42.1,23.5
			V122h84.2v-11.8C116.7,94.6,88.7,86.8,74.6,86.8z M74.6,86.8c-14.1,0-42.1,7.9-42.1,23.5V122h84.2v-11.8
			C116.7,94.6,88.7,86.8,74.6,86.8z"/>
	</g>
</g>
</svg>
