<?xml version="1.0" encoding="utf-8"?>
<!-- Generator: Adobe Illustrator 21.1.0, SVG Export Plug-In . SVG Version: 6.00 Build 0)  -->
<svg version="1.1" id="Layer_1" xmlns="http://www.w3.org/2000/svg" xmlns:xlink="http://www.w3.org/1999/xlink" x="0px" y="0px"
	 viewBox="0 0 150 150" style="enable-background:new 0 0 150 150;" xml:space="preserve">
<style type="text/css">
	.st0{fill:#FFFFFF;}
	.st1{fill:#F4F4F4;}
	.st2{fill:#282828;}
	.st3{fill:#12D1DB;}
	.st4{display:none;}
	.st5{display:inline;}
	.st6{display:inline;fill:none;stroke:#000000;stroke-width:1.2;stroke-miterlimit:10;}
	.st7{fill:#393C44;}
	.st8{fill:#515A5D;}
	.st9{fill:#12D1DB;stroke:#12D1DB;stroke-miterlimit:10;}
	.st10{fill:#515A5D;stroke:#515A5D;stroke-width:2;stroke-miterlimit:10;}
	.st11{fill:#A6E0DD;}
	.st12{fill:none;stroke:#515A5D;stroke-width:5;stroke-linecap:round;stroke-linejoin:round;stroke-miterlimit:10;}
</style>
<g>
	<g>
		<g>
			<path class="st8" d="M140.1,66.5c-0.6,0-1.2-0.2-1.7-0.7l-15.2-14.3c-1-0.9-1-2.5-0.1-3.5c0.9-1,2.5-1,3.5-0.1l15.2,14.3
				c1,0.9,1,2.5,0.1,3.5C141.4,66.2,140.7,66.5,140.1,66.5z"/>
		</g>
		<g>
			<path class="st8" d="M66.2,13.3c-0.7,0-1.3-0.3-1.8-0.8c-0.9-1-0.9-2.6,0.1-3.5l8.8-8.3c1-0.9,2.5-0.9,3.4,0L85,8.5
				c1,0.9,1,2.5,0.1,3.5c-0.9,1-2.5,1-3.5,0.1L75,5.9l-7.1,6.7C67.4,13.1,66.8,13.3,66.2,13.3z"/>
		</g>
		<g>
			<path class="st8" d="M9.9,66.5c-0.7,0-1.3-0.3-1.8-0.8c-0.9-1-0.9-2.6,0.1-3.5l15.2-14.3c1-0.9,2.6-0.9,3.5,0.1
				c0.9,1,0.9,2.6-0.1,3.5L11.6,65.8C11.2,66.2,10.5,66.5,9.9,66.5z"/>
		</g>
		<g>
			<path class="st3" d="M118.8,11.7H31.2c-2.9,0-5.3,2.5-5.3,5.5v57.2L75,105.7l49.2-31.3V17.2C124.2,14.2,121.8,11.7,118.8,11.7z
				 M51.5,24.7c6.5,0,11.8,5.3,11.8,11.8c0,6.5-5.3,11.8-11.8,11.8S39.6,43,39.6,36.5C39.6,30,44.9,24.7,51.5,24.7z M109,78.6H42.2
				c-1.4,0-2.6-1.2-2.6-2.6c0-1.4,1.2-2.6,2.6-2.6H109c1.4,0,2.6,1.2,2.6,2.6C111.6,77.4,110.4,78.6,109,78.6z M109,63.4H42.2
				c-1.4,0-2.6-1.2-2.6-2.6s1.2-2.6,2.6-2.6H109c1.4,0,2.6,1.2,2.6,2.6S110.4,63.4,109,63.4z M109,46.6H75c-1.4,0-2.6-1.2-2.6-2.6
				s1.2-2.6,2.6-2.6h34c1.4,0,2.6,1.2,2.6,2.6S110.4,46.6,109,46.6z M109,33.3H75c-1.4,0-2.6-1.2-2.6-2.6s1.2-2.6,2.6-2.6h34
				c1.4,0,2.6,1.2,2.6,2.6S110.4,33.3,109,33.3z"/>
		</g>
	</g>
	<g>
		<g>
			<path class="st8" d="M132.9,150H17.1c-5.3,0-9.7-4.8-9.7-10.8V64c0-0.9,0.5-1.8,1.3-2.2c0.8-0.4,1.8-0.4,2.5,0.1L75,102.8
				l63.7-40.9c0.8-0.5,1.7-0.5,2.5-0.1c0.8,0.4,1.3,1.3,1.3,2.2v75.3C142.6,145.2,138.2,150,132.9,150z M12.4,68.5v70.7
				c0,3.2,2.1,5.8,4.7,5.8h115.8c2.6,0,4.7-2.6,4.7-5.8V68.5l-61.2,39.3c-0.8,0.5-1.9,0.5-2.7,0L12.4,68.5z"/>
		</g>
		<g>
			<path class="st8" d="M117.4,124.4c-0.6,0-1.2-0.2-1.6-0.6L88.1,99.6c-1-0.9-1.1-2.5-0.2-3.5c0.9-1,2.5-1.1,3.5-0.2l27.7,24.2
				c1,0.9,1.1,2.5,0.2,3.5C118.8,124.1,118.1,124.4,117.4,124.4z"/>
		</g>
		<g>
			<path class="st8" d="M31,124.4c-0.7,0-1.4-0.3-1.9-0.9c-0.9-1-0.8-2.6,0.2-3.5l28.2-24.7c1-0.9,2.6-0.8,3.5,0.2
				c0.9,1,0.8,2.6-0.2,3.5l-28.2,24.7C32.2,124.2,31.6,124.4,31,124.4z"/>
		</g>
	</g>
</g>
</svg>
