<?xml version="1.0" encoding="utf-8"?>
<!-- Generator: Adobe Illustrator 21.1.0, SVG Export Plug-In . SVG Version: 6.00 Build 0)  -->
<svg version="1.1" id="Layer_1" xmlns="http://www.w3.org/2000/svg" xmlns:xlink="http://www.w3.org/1999/xlink" x="0px" y="0px"
	 viewBox="0 0 150 150" style="enable-background:new 0 0 150 150;" xml:space="preserve">
<style type="text/css">
	.st0{fill:#FFFFFF;}
	.st1{fill:#F4F4F4;}
	.st2{fill:#282828;}
	.st3{fill:#12D1DB;}
	.st4{display:none;}
	.st5{display:inline;}
	.st6{display:inline;fill:none;stroke:#000000;stroke-width:1.2;stroke-miterlimit:10;}
	.st7{fill:#393C44;}
	.st8{fill:#515A5D;}
	.st9{fill:#12D1DB;stroke:#12D1DB;stroke-miterlimit:10;}
	.st10{fill:#515A5D;stroke:#515A5D;stroke-width:2;stroke-miterlimit:10;}
	.st11{fill:#A6E0DD;}
	.st12{fill:none;stroke:#515A5D;stroke-width:5;stroke-linecap:round;stroke-linejoin:round;stroke-miterlimit:10;}
	.st13{fill:#57F7FF;}
	.st14{fill:#5B6466;}
	.st15{fill:#9FC9C9;}
	.st16{fill:none;}
	.st17{fill:#959899;}
</style>
<g>
	<g>
		<path d="M35.5,150c-0.7,0-1.5-0.1-2.2-0.4c-2.9-1.1-4.8-3.9-4.8-7.3l0-24.2c0-1.3-0.4-2.4-1.2-3.2c-0.4-0.4-1-0.8-1.8-0.8h-9
			c-6.1,0-11-5.5-11-12.3V12.3C5.5,5.5,10.4,0,16.5,0h117c6.1,0,11,5.5,11,12.3v89.4c0,6.8-4.9,12.3-11,12.3H80.9
			c-0.7,0-1.5,0.4-2,1.1c-0.1,0.1-0.2,0.3-0.4,0.4l-38.1,32.2C39.2,149.2,37.4,150,35.5,150z M16.5,6c-2.8,0-5,2.8-5,6.3v89.4
			c0,3.5,2.2,6.3,5,6.3h9c2.2,0,4.4,0.9,6,2.6c1.9,1.9,3,4.6,3,7.4l0,24.2c0,0.9,0.4,1.5,0.9,1.6c0.1,0,0.4,0.1,0.7-0.3
			c0.1-0.1,0.2-0.3,0.4-0.4l38.1-32.2c1.7-1.9,4-3,6.4-3h52.5c2.8,0,5-2.8,5-6.3V12.3c0-3.5-2.3-6.3-5-6.3H16.5z"/>
	</g>
	<g>
		<path d="M111.6,44.4H38.3c-1.7,0-3-1.3-3-3s1.3-3,3-3h73.3c1.7,0,3,1.3,3,3S113.3,44.4,111.6,44.4z"/>
	</g>
	<g>
		<path d="M68.1,75.5H38.3c-1.7,0-3-1.3-3-3s1.3-3,3-3h29.8c1.7,0,3,1.3,3,3S69.7,75.5,68.1,75.5z"/>
	</g>
</g>
</svg>
