<?xml version="1.0" encoding="utf-8"?>
<!-- Generator: Adobe Illustrator 21.1.0, SVG Export Plug-In . SVG Version: 6.00 Build 0)  -->
<svg version="1.1" id="Layer_1" xmlns="http://www.w3.org/2000/svg" xmlns:xlink="http://www.w3.org/1999/xlink" x="0px" y="0px"
	 viewBox="0 0 150 150" style="enable-background:new 0 0 150 150;" xml:space="preserve">
<style type="text/css">
	.st0{fill:#FFFFFF;}
	.st1{fill:#F4F4F4;}
	.st2{fill:#282828;}
	.st3{fill:#12D1DB;}
	.st4{display:none;}
	.st5{display:inline;}
	.st6{display:inline;fill:none;stroke:#000000;stroke-width:1.2;stroke-miterlimit:10;}
	.st7{fill:#393C44;}
	.st8{fill:#515A5D;}
	.st9{fill:#12D1DB;stroke:#12D1DB;stroke-miterlimit:10;}
	.st10{fill:#515A5D;stroke:#515A5D;stroke-width:2;stroke-miterlimit:10;}
	.st11{fill:#A6E0DD;}
	.st12{fill:none;stroke:#515A5D;stroke-width:5;stroke-linecap:round;stroke-linejoin:round;stroke-miterlimit:10;}
</style>
<g>
	<g>
		<path class="st8" d="M78.9,88.4H39c-1.4,0-2.5-1.1-2.5-2.5s1.1-2.5,2.5-2.5h39.9c1.4,0,2.5,1.1,2.5,2.5S80.3,88.4,78.9,88.4z"/>
	</g>
	<g>
		<path class="st3" d="M60.1,110.7H39c-1.4,0-2.5-1.1-2.5-2.5s1.1-2.5,2.5-2.5h21.1c1.4,0,2.5,1.1,2.5,2.5S61.5,110.7,60.1,110.7z"
			/>
	</g>
	<g>
		<path class="st8" d="M74.1,43.8H51.7c-1.4,0-2.5-1.1-2.5-2.5s1.1-2.5,2.5-2.5h22.4c1.4,0,2.5,1.1,2.5,2.5S75.5,43.8,74.1,43.8z"/>
	</g>
	<g>
		<path class="st8" d="M95.9,66.1H29.8c-1.4,0-2.5-1.1-2.5-2.5s1.1-2.5,2.5-2.5h66.1c1.4,0,2.5,1.1,2.5,2.5S97.3,66.1,95.9,66.1z"/>
	</g>
	<g>
		<g>
			<path class="st3" d="M139.5,65.4l8-7.7l0.2-3.6c-0.7-6.6-3.4-9.2-9.9-10l-3.2-0.4l-8.5,8.2C131.4,54.1,136.4,56.1,139.5,65.4z"/>
		</g>
		<g>
			<g>
				<path class="st3" d="M92.5,111.1L134,70.7c-2.1-10.6-8.8-12.2-13.3-13.6L79.1,97.6L92.5,111.1z"/>
			</g>
			<g>
				<polygon class="st3" points="73.8,102.8 69,107.4 64.4,124.7 81.9,121.3 87.1,116.3 				"/>
			</g>
		</g>
	</g>
	<g>
		<path class="st8" d="M62.7,150c-0.3,0-0.6,0-0.8-0.1c-27.1-9.4-44.5-25.2-52.9-48.1C1.7,82,2.1,60.3,2.4,41.2
			c0.1-4.1,0.2-7.9,0.2-11.7c0-1.4,1.1-2.5,2.5-2.5c19.6,0,37.4-8.4,55.8-26.3c1-0.9,2.5-0.9,3.5,0C82.9,18.7,100.6,27,120.3,27
			c1.4,0,2.5,1.1,2.5,2.5c0,3.7,0.1,7.6,0.2,11.7l0,0.1c0,1.4-1.1,2.5-2.5,2.5c-1.4,0-2.5-1.1-2.5-2.5l0-0.1
			c-0.1-3.2-0.1-6.3-0.1-9.3c-19.4-0.7-37-9-55.1-26C44.6,23,27,31.3,7.6,32c0,3-0.1,6.1-0.1,9.3c-0.7,37.2-1.6,83.4,55.2,103.6
			c19-6.7,32.6-16.6,41.6-30c0.8-1.1,2.3-1.5,3.5-0.7c1.1,0.8,1.5,2.3,0.7,3.5c-9.8,14.6-24.5,25.2-44.9,32.3
			C63.2,150,63,150,62.7,150z"/>
	</g>
</g>
</svg>
