<?xml version="1.0" encoding="utf-8"?>
<!-- Generator: Adobe Illustrator 21.1.0, SVG Export Plug-In . SVG Version: 6.00 Build 0)  -->
<svg version="1.1" id="Layer_1" xmlns="http://www.w3.org/2000/svg" xmlns:xlink="http://www.w3.org/1999/xlink" x="0px" y="0px"
	 viewBox="0 0 150 150" style="enable-background:new 0 0 150 150;" xml:space="preserve">
<style type="text/css">
	.st0{fill:#FFFFFF;}
	.st1{fill:#F4F4F4;}
	.st2{fill:#282828;}
	.st3{fill:#12D1DB;}
	.st4{display:none;}
	.st5{display:inline;}
	.st6{display:inline;fill:none;stroke:#000000;stroke-width:1.2;stroke-miterlimit:10;}
	.st7{fill:#393C44;}
	.st8{fill:#515A5D;}
	.st9{fill:#12D1DB;stroke:#12D1DB;stroke-miterlimit:10;}
	.st10{fill:#515A5D;stroke:#515A5D;stroke-width:2;stroke-miterlimit:10;}
	.st11{fill:#A6E0DD;}
	.st12{fill:none;stroke:#515A5D;stroke-width:5;stroke-linecap:round;stroke-linejoin:round;stroke-miterlimit:10;}
	.st13{fill:#57F7FF;}
	.st14{fill:#5B6466;}
	.st15{fill:#9FC9C9;}
	.st16{fill:none;}
	.st17{fill:#959899;}
	.st18{fill:url(#SVGID_1_);}
	.st19{fill:#D45620;}
</style>
<g>
	<path class="st3" d="M147,78H81c-1.7,0-3,1.3-3,3v66c0,1.7,1.3,3,3,3h66c1.7,0,3-1.3,3-3V81C150,79.3,148.7,78,147,78z
		 M130.1,123.5l-14.3,15.2c0,0,0,0,0,0c-0.1,0.1-0.2,0.1-0.2,0.2c0,0-0.1,0.1-0.1,0.1c-0.1,0.1-0.2,0.1-0.3,0.2c0,0-0.1,0-0.1,0.1
		c-0.1,0.1-0.3,0.1-0.4,0.1c0,0,0,0,0,0c-0.2,0-0.3,0.1-0.5,0.1c0,0,0,0,0,0c-0.1,0-0.2,0-0.3,0c-0.1,0-0.1,0-0.2,0
		c-0.1,0-0.3-0.1-0.4-0.1c0,0,0,0,0,0c-0.2-0.1-0.3-0.1-0.4-0.2c0,0-0.1,0-0.1-0.1c-0.1-0.1-0.2-0.2-0.3-0.3c0,0,0,0,0,0l-14.3-15.2
		c-0.9-1-0.9-2.6,0.1-3.5s2.6-0.9,3.5,0.1l10.1,10.7l0.5-39.7c0-1.4,1.1-2.5,2.5-2.5c0,0,0,0,0,0c1.4,0,2.5,1.1,2.5,2.5l-0.5,39.5
		l9.9-10.5c0.9-1,2.5-1.1,3.5-0.1C131,120.9,131.1,122.5,130.1,123.5z"/>
	<g>
		<g>
			<path class="st8" d="M64.1,40.9H20.7c-0.6,0-1-0.4-1-1s0.4-1,1-1h43.4c0.6,0,1,0.4,1,1S64.6,40.9,64.1,40.9z"/>
		</g>
		<g>
			<path class="st8" d="M64.1,25.5H20.7c-0.6,0-1-0.4-1-1s0.4-1,1-1h43.4c0.6,0,1,0.4,1,1S64.6,25.5,64.1,25.5z"/>
		</g>
		<g>
			<path class="st8" d="M91.3,40.9h-18c-0.6,0-1-0.4-1-1s0.4-1,1-1h18c0.6,0,1,0.4,1,1S91.9,40.9,91.3,40.9z"/>
		</g>
		<g>
			<path class="st8" d="M81.2,25.5h-8.4c-0.3,0-0.5-0.4-0.5-1s0.2-1,0.5-1h8.4c0.3,0,0.5,0.4,0.5,1S81.4,25.5,81.2,25.5z"/>
		</g>
		<g>
			<path class="st8" d="M91.3,56.3H20.7c-0.6,0-1-0.4-1-1s0.4-1,1-1h70.7c0.6,0,1,0.4,1,1S91.9,56.3,91.3,56.3z"/>
		</g>
		<g>
			<path class="st8" d="M78.9,71.7H20.7c-0.6,0-1-0.4-1-1s0.4-1,1-1h58.2c0.6,0,1,0.4,1,1S79.4,71.7,78.9,71.7z"/>
		</g>
		<path class="st8" d="M71.1,116H20.6c-0.5,0-1,0.4-1,1s0.4,1,1,1h50.5V116z"/>
		<path class="st8" d="M71.1,100.6H20.6c-0.5,0-1,0.4-1,1s0.4,1,1,1h50.5V100.6z"/>
		<path class="st8" d="M71.1,85.2H20.6c-0.5,0-1,0.4-1,1s0.4,1,1,1h50.5V85.2z"/>
		<g>
			<path class="st8" d="M71.1,140.1H9c-5,0-9-4-9-9V9c0-5,4-9,9-9h77.2c0.5,0,1,0.4,1,1l0.4,18.5c0,4.7,2.4,7,7,7l18.5-0.6
				c0.3,0,0.5,0.1,0.7,0.3c0.2,0.2,0.3,0.4,0.3,0.7v45.7c0,0.6-0.4,1-1,1s-1-0.4-1-1V28l-17.5,0.5c-5.8,0-9-3.2-9-9L85.2,2H9
				C5.1,2,2,5.1,2,9v122.1c0,3.9,3.1,7,7,7h62.1c0.6,0,1,0.4,1,1S71.7,140.1,71.1,140.1z"/>
		</g>
		<g>
			<path class="st8" d="M112.9,27.9c-0.3,0-0.5-0.1-0.7-0.3L85.5,1.7c-0.4-0.4-0.4-1,0-1.4c0.4-0.4,1-0.4,1.4,0l26.7,25.9
				c0.4,0.4,0.4,1,0,1.4C113.4,27.8,113.2,27.9,112.9,27.9z"/>
		</g>
	</g>
</g>
</svg>
