<?xml version="1.0" encoding="utf-8"?>
<!-- Generator: Adobe Illustrator 21.0.2, SVG Export Plug-In . SVG Version: 6.00 Build 0)  -->
<svg version="1.1" id="Layer_1" xmlns="http://www.w3.org/2000/svg" xmlns:xlink="http://www.w3.org/1999/xlink" x="0px" y="0px"
	 viewBox="0 0 150 150" style="enable-background:new 0 0 150 150;" xml:space="preserve">
<style type="text/css">
	.st0{fill:#FFFFFF;}
	.st1{fill:#F4F4F4;}
	.st2{fill:#282828;}
	.st3{fill:#12D1DB;}
	.st4{display:none;}
	.st5{display:inline;}
	.st6{display:inline;fill:none;stroke:#000000;stroke-width:1.2;stroke-miterlimit:10;}
	.st7{fill:#393C44;}
</style>
<g>
	<g>
		<path class="st7" d="M0,148.4l2.8-34L118.7,1.6l7,0.6c12.7,1.2,22.7,11.3,23.7,24l0.6,7.5L34,146.6L0,148.4z M9.3,117.5l-1.9,23.7
			l23.8-1.3L143,31.1l-0.3-4.3c-0.8-9.4-8.2-16.9-17.6-17.8l-3.9-0.4L9.3,117.5z"/>
	</g>
	<g>
		<path class="st7" d="M123.8,51.8c-0.3-8.6-2.8-15-7.5-19c-6.6-5.7-15.3-4.9-15.4-4.9l-0.7-6.7c0.5-0.1,11.8-1.2,20.6,6.5
			c6.1,5.3,9.4,13.3,9.8,23.9L123.8,51.8z"/>
	</g>
	<g>
		
			<rect x="16.1" y="110.4" transform="matrix(0.7071 -0.7071 0.7071 0.7071 -85.8146 51.6987)" class="st7" width="6.8" height="38.1"/>
	</g>
</g>
</svg>
