<?xml version="1.0" encoding="utf-8"?>
<!-- Generator: Adobe Illustrator 21.1.0, SVG Export Plug-In . SVG Version: 6.00 Build 0)  -->
<svg version="1.1" id="Layer_1" xmlns="http://www.w3.org/2000/svg" xmlns:xlink="http://www.w3.org/1999/xlink" x="0px" y="0px"
	 viewBox="0 0 150 150" style="enable-background:new 0 0 150 150;" xml:space="preserve">
<style type="text/css">
	.st0{fill:#FFFFFF;}
	.st1{fill:#F4F4F4;}
	.st2{fill:#282828;}
	.st3{fill:#12D1DB;}
	.st4{display:none;}
	.st5{display:inline;}
	.st6{display:inline;fill:none;stroke:#000000;stroke-width:1.2;stroke-miterlimit:10;}
	.st7{fill:#393C44;}
	.st8{fill:#515A5D;}
	.st9{fill:#12D1DB;stroke:#12D1DB;stroke-miterlimit:10;}
	.st10{fill:#515A5D;stroke:#515A5D;stroke-width:2;stroke-miterlimit:10;}
	.st11{fill:#A6E0DD;}
</style>
<g>
	<path class="st3" d="M41.1,72.5l14-15.4c0.9-0.9,2.4-0.9,3.3,0l14,15.4c1.5,1.5,0.4,4-1.6,4H42.8C40.7,76.5,39.7,74,41.1,72.5z"/>
	<path class="st3" d="M62.6,71.3l14-15.4c0.9-0.9,2.4-0.9,3.3,0l14,15.4c1.5,1.5,0.4,4-1.6,4H64.3C62.2,75.2,61.2,72.7,62.6,71.3z"
		/>
	<circle class="st3" cx="78.2" cy="39.1" r="7.2"/>
	<g>
		<g>
			<path class="st8" d="M125.5,144.1l-22,0.1c-0.8,0-1.7-0.6-1.7-1.4l0-44.5c0-0.9-1.1,0.2-2.3,0.2h-18c-0.6,0-1.2-0.4-1.4-1
				c-0.2-0.6,0-1.3,0.5-1.7l33-26c0.5-0.4,1.2-0.4,1.7,0l33,26c0.5,0.4,0.7,1,0.5,1.7c-0.2,0.6-0.8,1-1.4,1h-18
				c-1.2,0-2.3-1.2-2.3-0.2v44.6C127.3,143.6,126.3,144.1,125.5,144.1z M104.8,141.1h19.5V98.2c0-2.6,2.4-2.7,5.3-2.7H143
				l-28.4-22.7L86.1,95.4h13.4c2.9,0,5.3,0.1,5.3,2.7V141.1z"/>
			<path class="st8" d="M103.6,145.1c-1.3,0-2.7-1-2.7-2.4V99.1c-0.4,0.1-0.8,0.3-1.3,0.3h-18c-1.1,0-2-0.7-2.3-1.7
				c-0.3-1,0-2.1,0.9-2.8l32.9-26c0.9-0.7,2.1-0.7,2.9,0l33,26c0.8,0.6,1.2,1.7,0.9,2.7c-0.3,1-1.3,1.7-2.3,1.7h-18
				c-0.5,0-0.9-0.1-1.3-0.3v43.7c0,1.4-1.4,2.3-2.7,2.3L103.6,145.1z M101.6,96.8c0.2,0,0.4,0.1,0.7,0.2c0.3,0.2,0.6,0.5,0.6,1.2
				v44.5c0,0.2,0.4,0.5,0.7,0.5l22-0.1c0.4,0,0.8-0.2,0.8-0.3V98.2c0-0.7,0.3-1,0.6-1.2c0.6-0.4,1.2-0.1,1.7,0.1
				c0.3,0.1,0.7,0.3,1,0.3h18c0.2,0,0.4-0.1,0.5-0.3c0.1-0.2,0-0.4-0.2-0.6l-33-26c-0.1-0.1-0.4-0.1-0.6,0l-32.9,26
				c-0.2,0.1-0.3,0.4-0.2,0.6c0.1,0.2,0.3,0.3,0.5,0.3h18c0.3,0,0.7-0.2,1-0.3C100.9,96.9,101.3,96.8,101.6,96.8z M125.3,142.1
				h-21.4V98.2c0-1.3-0.6-1.7-4.3-1.7H83.3l31.2-24.9l31.2,24.9h-16.3c-3.7,0-4.3,0.4-4.3,1.7V142.1z M105.8,140.1h17.5V98.2
				c0-3.7,3.8-3.7,6.2-3.7h10.6L114.6,74L89,94.4h10.6c2.5,0,6.2,0,6.2,3.7V140.1z"/>
		</g>
	</g>
	<g>
		<g>
			<path class="st8" d="M104.2,5.9H13.3C6.5,5.9,1,11.4,1,18.2v90.9c0,6.8,5.5,12.3,12.3,12.3h74.8c-0.4-0.9-0.8-1.9-1.1-3H13.3
				c-5.2,0-9.4-4.2-9.4-9.4V18.2c0-5.2,4.2-9.4,9.4-9.4h90.9c5.2,0,9.4,4.2,9.4,9.4v38.6c1-0.1,2-0.3,3-0.4V18.2
				C116.6,11.4,111,5.9,104.2,5.9z"/>
			<path class="st8" d="M89.7,122.4H13.3c-7.3,0-13.3-6-13.3-13.3V18.2C0,10.8,6,4.9,13.3,4.9h90.9c7.3,0,13.3,6,13.3,13.3v39.1
				l-0.9,0.1c-1,0.1-2,0.3-3,0.4l-1.1,0.1V18.2c0-4.6-3.8-8.4-8.4-8.4H13.3c-4.6,0-8.4,3.8-8.4,8.4v90.9c0,4.6,3.8,8.4,8.4,8.4h74.6
				l0.2,0.8c0.2,0.8,0.5,1.7,1,2.8L89.7,122.4z M13.3,6.8C7.1,6.8,2,11.9,2,18.2v90.9c0,6.3,5.1,11.3,11.3,11.3h73.3
				c-0.1-0.3-0.2-0.7-0.3-1h-73c-5.7,0-10.4-4.6-10.4-10.4V18.2C3,12.5,7.6,7.8,13.3,7.8h90.9c5.7,0,10.4,4.6,10.4,10.4v37.5
				c0.3,0,0.7-0.1,1-0.1V18.2c0-6.3-5.1-11.3-11.3-11.3H13.3z"/>
		</g>
	</g>
	<g>
		<g>
			<path class="st8" d="M69,98.6H25.6c-0.8,0-1.5-0.7-1.5-1.5V33.2c0-0.8,0.7-1.5,1.5-1.5c0.8,0,1.5,0.7,1.5,1.5v62.5H69
				c0.8,0,1.5,0.7,1.5,1.5S69.8,98.6,69,98.6z"/>
			<path class="st8" d="M69,99.6H25.6c-1.4,0-2.5-1.1-2.5-2.5V33.2c0-1.4,1.1-2.5,2.5-2.5c1.4,0,2.5,1.1,2.5,2.5v61.5h41
				c1.4,0,2.5,1.1,2.5,2.5C71.5,98.5,70.4,99.6,69,99.6z M25.6,32.7c-0.3,0-0.5,0.2-0.5,0.5v63.9c0,0.3,0.2,0.5,0.5,0.5H69
				c0.3,0,0.5-0.2,0.5-0.5c0-0.3-0.2-0.5-0.5-0.5H26.1V33.2C26.1,32.9,25.8,32.7,25.6,32.7z"/>
		</g>
	</g>
</g>
</svg>
