<?xml version="1.0" encoding="utf-8"?>
<!-- Generator: Adobe Illustrator 21.1.0, SVG Export Plug-In . SVG Version: 6.00 Build 0)  -->
<svg version="1.1" id="Layer_1" xmlns="http://www.w3.org/2000/svg" xmlns:xlink="http://www.w3.org/1999/xlink" x="0px" y="0px"
	 viewBox="0 0 150 150" style="enable-background:new 0 0 150 150;" xml:space="preserve">
<style type="text/css">
	.st0{fill:#FFFFFF;}
	.st1{fill:#F4F4F4;}
	.st2{fill:#282828;}
	.st3{fill:#12D1DB;}
	.st4{display:none;}
	.st5{display:inline;}
	.st6{display:inline;fill:none;stroke:#000000;stroke-width:1.2;stroke-miterlimit:10;}
	.st7{fill:#393C44;}
	.st8{fill:#515A5D;}
	.st9{fill:#12D1DB;stroke:#12D1DB;stroke-miterlimit:10;}
	.st10{fill:#515A5D;stroke:#515A5D;stroke-width:2;stroke-miterlimit:10;}
	.st11{fill:#A6E0DD;}
	.st12{fill:none;stroke:#515A5D;stroke-width:5;stroke-linecap:round;stroke-linejoin:round;stroke-miterlimit:10;}
	.st13{fill:#57F7FF;}
	.st14{fill:#5B6466;}
	.st15{fill:#9FC9C9;}
	.st16{fill:none;}
	.st17{fill:#959899;}
</style>
<g>
	<g>
		<path class="st8" d="M107.7,145.3c-0.5,0-1-0.2-1.5-0.5l-51.5-37.4c-1.1-0.8-1.4-2.4-0.6-3.5c0.8-1.1,2.4-1.4,3.5-0.6l48.6,35.3
			l37.3-127.4L7.5,64.1l31.7,25.3c1.1,0.9,1.3,2.4,0.4,3.5c-0.9,1.1-2.4,1.3-3.5,0.4L0.9,65.3c-0.7-0.6-1-1.4-0.9-2.3
			c0.1-0.9,0.7-1.6,1.6-2l145-56.1c0.9-0.3,1.9-0.2,2.6,0.5c0.7,0.6,1,1.6,0.7,2.5l-39.8,135.6c-0.2,0.8-0.8,1.4-1.6,1.7
			C108.3,145.3,108,145.3,107.7,145.3z"/>
	</g>
	<g>
		<polygon class="st3" points="104.8,45.8 56.3,105.4 44.6,142.8 37.6,91.4 		"/>
	</g>
	<g>
		<polyline class="st3" points="44.6,142.8 56.3,105.4 104.8,45.8 37.6,91.4 44.6,142.8 72.5,117.2 72.7,117.1 56.8,105.8 		"/>
		<path class="st3" d="M44.6,145.3c-0.2,0-0.4,0-0.7-0.1c0,0-0.1,0-0.1,0c-0.6-0.2-1.1-0.6-1.4-1.1c-0.1-0.1-0.1-0.2-0.2-0.4
			c-0.1-0.2-0.1-0.4-0.2-0.7l-7-51.4c-0.1-0.9,0.3-1.9,1.1-2.4l67.2-45.5c1-0.7,2.4-0.5,3.2,0.4c0.8,0.9,0.9,2.3,0.1,3.3l-46.9,57.5
			l14.2,10.1c0.6,0.5,1,1.2,1,1.9c0,0.8-0.3,1.5-0.9,2l-0.1,0.1l-27.8,25.5c-0.1,0.1-0.2,0.2-0.4,0.3c-0.1,0.1-0.2,0.1-0.4,0.2
			C45.3,145.3,44.9,145.3,44.6,145.3z M57.6,109.4l-7.9,25.3l18.9-17.4L57.6,109.4z M40.3,92.6l5.3,38.8l8.3-26.7
			c0.1-0.3,0.2-0.6,0.4-0.8l37.8-46.4L40.3,92.6z"/>
	</g>
</g>
</svg>
