<?xml version="1.0" encoding="utf-8"?>
<!-- Generator: Adobe Illustrator 21.0.2, SVG Export Plug-In . SVG Version: 6.00 Build 0)  -->
<svg version="1.1" id="Layer_1" xmlns="http://www.w3.org/2000/svg" xmlns:xlink="http://www.w3.org/1999/xlink" x="0px" y="0px"
	 viewBox="0 0 150 150" style="enable-background:new 0 0 150 150;" xml:space="preserve">
<style type="text/css">
	.st0{fill:#FFFFFF;}
	.st1{fill:#F4F4F4;}
	.st2{fill:#282828;}
	.st3{fill:#12D1DB;}
	.st4{display:none;}
	.st5{display:inline;}
	.st6{display:inline;fill:none;stroke:#000000;stroke-width:1.2;stroke-miterlimit:10;}
	.st7{fill:#393C44;}
</style>
<g>
	<g>
		<path class="st7" d="M56,150c-8.6,0-15.7-7-15.7-15.7c0-8.6,7-15.7,15.7-15.7s15.7,7,15.7,15.7C71.6,143,64.6,150,56,150z
			 M56,125.4c-4.9,0-8.9,4-8.9,8.9c0,4.9,4,8.9,8.9,8.9s8.9-4,8.9-8.9C64.9,129.4,60.9,125.4,56,125.4z"/>
	</g>
	<g>
		<path class="st7" d="M103.3,150c-8.6,0-15.7-7-15.7-15.7c0-8.6,7-15.7,15.7-15.7c8.6,0,15.7,7,15.7,15.7
			C119,143,111.9,150,103.3,150z M103.3,125.4c-4.9,0-8.9,4-8.9,8.9c0,4.9,4,8.9,8.9,8.9c4.9,0,8.9-4,8.9-8.9
			C112.2,129.4,108.2,125.4,103.3,125.4z"/>
	</g>
	<g>
		<path class="st7" d="M119.9,108.4H38.6c-1.6,0-2.9-1.1-3.3-2.6L10,4.2c-0.5-1.8,0.7-3.7,2.5-4.1c1.8-0.5,3.7,0.7,4.1,2.5
			l24.7,99.1h76l0.3-1.1l15.5-36c0.8-3.5,0-7.2-2.2-10c-2.3-2.8-5.6-4.5-9.2-4.5H48.1c-1.9,0-3.4-1.5-3.4-3.4c0-1.9,1.5-3.4,3.4-3.4
			h73.5c5.7,0,11,2.6,14.6,7s4.8,10.2,3.5,15.8l-15.5,36.1l-1,3.7C122.8,107.4,121.4,108.4,119.9,108.4z"/>
	</g>
	<g>
		<path class="st7" d="M88.9,87c-0.8,0-1.5-0.2-2.2-0.8c-1.5-1.2-1.7-3.4-0.5-4.8l14-17.4c1.2-1.5,3.4-1.7,4.8-0.5
			c1.5,1.2,1.7,3.4,0.5,4.8l-14,17.4C90.9,86.5,89.9,87,88.9,87z"/>
	</g>
	<g>
		<path class="st7" d="M60.4,87c-0.8,0-1.5-0.2-2.2-0.8c-1.5-1.2-1.7-3.4-0.5-4.8l14-17.4c1.2-1.5,3.4-1.7,4.8-0.5
			c1.5,1.2,1.7,3.4,0.5,4.8l-14,17.4C62.4,86.5,61.4,87,60.4,87z"/>
	</g>
</g>
</svg>
