<?xml version="1.0" encoding="utf-8"?>
<!-- Generator: Adobe Illustrator 21.1.0, SVG Export Plug-In . SVG Version: 6.00 Build 0)  -->
<svg version="1.1" id="Layer_1" xmlns="http://www.w3.org/2000/svg" xmlns:xlink="http://www.w3.org/1999/xlink" x="0px" y="0px"
	 viewBox="0 0 150 150" style="enable-background:new 0 0 150 150;" xml:space="preserve">
<style type="text/css">
	.st0{fill:#FFFFFF;}
	.st1{fill:#F4F4F4;}
	.st2{fill:#282828;}
	.st3{fill:#12D1DB;}
	.st4{display:none;}
	.st5{display:inline;}
	.st6{display:inline;fill:none;stroke:#000000;stroke-width:1.2;stroke-miterlimit:10;}
	.st7{fill:#393C44;}
	.st8{fill:#515A5D;}
	.st9{fill:#12D1DB;stroke:#12D1DB;stroke-miterlimit:10;}
	.st10{fill:#515A5D;stroke:#515A5D;stroke-width:2;stroke-miterlimit:10;}
	.st11{fill:#A6E0DD;}
	.st12{fill:none;stroke:#515A5D;stroke-width:5;stroke-linecap:round;stroke-linejoin:round;stroke-miterlimit:10;}
</style>
<g>
	<g>
		<g>
			<path class="st8" d="M55.2,106.5H2.5c-0.7,0-1.4-0.3-1.8-0.8s-0.7-1.2-0.6-1.9C1.1,91.8,9.3,86.6,15,85V53.4
				c0-5.8,1-11.4,2.9-16.4c10-26.7,37.3-24.3,37.6-24.2c1.4,0.1,2.4,1.4,2.2,2.7c-0.1,1.4-1.4,2.4-2.7,2.2c-1-0.1-23.7-2-32.4,21
				c-1.7,4.5-2.5,9.4-2.5,14.6V87c0,1.3-0.9,2.3-2.2,2.5c-0.4,0.1-10,1.6-12.4,12h49.7c1.4,0,2.5,1.1,2.5,2.5S56.5,106.5,55.2,106.5
				z"/>
		</g>
		<g>
			<path class="st8" d="M92.8,76c-1.4,0-2.5-1.1-2.5-2.5V53.4c0-5.2-0.9-10.2-2.5-14.6c-8.7-23-31.4-21.1-32.4-21
				c-1.4,0.1-2.6-0.9-2.7-2.2s0.9-2.6,2.2-2.7c0.3,0,27.5-2.5,37.6,24.2c1.9,5,2.9,10.5,2.9,16.4v20.1C95.3,74.9,94.2,76,92.8,76z"
				/>
		</g>
		<g>
			<path class="st8" d="M67.6,17.5c-1.4,0-2.5-1.1-2.5-2.5c0-5.5-4.5-10-9.9-10s-10,4.5-10,10c0,1.4-1.1,2.5-2.5,2.5
				s-2.5-1.1-2.5-2.5c0-8.2,6.7-15,15-15s14.9,6.7,14.9,15C70.1,16.3,69,17.5,67.6,17.5z"/>
		</g>
		<g>
			<path class="st8" d="M41.3,118.5c-0.7,0-1.3-0.3-1.8-0.8c-3.5-3.7-5.5-8.4-5.5-13.4c0-1.4,1.1-2.5,2.5-2.5s2.5,1.1,2.5,2.5
				c0,3.7,1.5,7.2,4.1,10c1,1,0.9,2.6-0.1,3.5C42.5,118.3,41.9,118.5,41.3,118.5z"/>
		</g>
	</g>
	<g>
		<g>
			<path class="st3" d="M68.9,142.9L51.2,120l-9.2,7.2l-3.4,21.1L60,150L68.9,142.9C68.9,143,68.9,143,68.9,142.9z"/>
		</g>
		<g>
			<path class="st3" d="M135.8,90.4L150,79.3l0-4.4c0-8.3-5.9-15.6-13.9-17.5l-3.9-0.9l-13.8,10.9C123.9,70.4,133.7,77.3,135.8,90.4
				z"/>
		</g>
		<g>
			<path class="st3" d="M112.6,71.8l-53.5,42.1c0,0,0,0,0,0l17.7,22.9l53-41.7C129.5,79,115.2,72.8,112.6,71.8z"/>
		</g>
	</g>
</g>
</svg>
