<?xml version="1.0" encoding="utf-8"?>
<!-- Generator: Adobe Illustrator 21.1.0, SVG Export Plug-In . SVG Version: 6.00 Build 0)  -->
<svg version="1.1" id="Layer_1" xmlns="http://www.w3.org/2000/svg" xmlns:xlink="http://www.w3.org/1999/xlink" x="0px" y="0px"
	 viewBox="0 0 150 150" style="enable-background:new 0 0 150 150;" xml:space="preserve">
<style type="text/css">
	.st0{fill:#FFFFFF;}
	.st1{fill:#F4F4F4;}
	.st2{fill:#282828;}
	.st3{fill:#12D1DB;}
	.st4{display:none;}
	.st5{display:inline;}
	.st6{display:inline;fill:none;stroke:#000000;stroke-width:1.2;stroke-miterlimit:10;}
	.st7{fill:#393C44;}
	.st8{fill:#515A5D;}
	.st9{fill:#12D1DB;stroke:#12D1DB;stroke-miterlimit:10;}
	.st10{fill:#515A5D;stroke:#515A5D;stroke-width:2;stroke-miterlimit:10;}
	.st11{fill:#A6E0DD;}
	.st12{fill:none;stroke:#515A5D;stroke-width:5;stroke-linecap:round;stroke-linejoin:round;stroke-miterlimit:10;}
	.st13{fill:#57F7FF;}
	.st14{fill:#5B6466;}
	.st15{fill:#9FC9C9;}
	.st16{fill:none;}
	.st17{fill:#959899;}
</style>
<g>
	<g>
		<path class="st8" d="M102.3,125.7c-4.2,0-8.1-0.5-11.5-1.3c-19.2-4.3-33.3-18.2-37.7-27.2L2.2,90.5C0.9,90.4,0,89.3,0,88.1
			c0-1.2,0.9-2.3,2.1-2.5l50.7-8.1c10.3-39.7,27.4-47.6,40.1-47c27,1.1,53.7,38.8,56.3,54c0.7,2.8,1,5.8,0.7,9.1
			c-0.4,6-2.2,10.5-5.3,13.4C129.1,121.5,114.2,125.7,102.3,125.7z M19.9,87.8l35.3,4.6c0.9,0.1,1.7,0.7,2,1.6
			c3.2,8.2,17.1,21.6,34.7,25.5c17,3.8,34-1.8,49.3-16.1c2.2-2,3.4-5.4,3.8-10.1c0.2-2.7,0-5.3-0.6-7.6c0-0.1,0-0.1,0-0.2
			c-2.2-13.2-27.7-49-51.5-50c-15.8-0.6-28,14.9-35.5,44.9c-0.2,1-1,1.7-2,1.9L19.9,87.8z"/>
	</g>
	<g>
		<path class="st8" d="M14.7,128.9c-3.4,0-5.7-4.1-7.3-13.2c-1.3-7.4-2-17.1-2-27.4s0.7-20.1,2-27.4c1.6-9.2,3.9-13.2,7.3-13.2
			c3.4,0,5.7,4.1,7.3,13.2c1.3,7.4,2,17.1,2,27.4s-0.7,20.1-2,27.4C20.3,124.8,18.1,128.9,14.7,128.9z M14.7,53.2
			c-1.7,3.3-4.3,15.1-4.3,35s2.6,31.8,4.3,35c1.7-3.3,4.3-15.1,4.3-35S16.4,56.5,14.7,53.2z"/>
	</g>
	<g>
		<path class="st3" d="M95.5,43.7c0,0-22.5,14.9-12.4,42.1c0,0,6.6,12.5,53.1,9.1c0,0,5-5.8-0.7-15.6
			C135.5,79.3,115.5,47.3,95.5,43.7z"/>
	</g>
	<g>
		<path class="st8" d="M91.2,35.4c-1.4,0-2.5-1.1-2.5-2.5V7.6c0-1.4,1.1-2.5,2.5-2.5s2.5,1.1,2.5,2.5v25.3
			C93.7,34.3,92.6,35.4,91.2,35.4z"/>
	</g>
	<g>
		<path class="st8" d="M147.5,16.6H91.2c-1.4,0-2.5-1.1-2.5-2.5s1.1-2.5,2.5-2.5h56.3c1.4,0,2.5,1.1,2.5,2.5S148.9,16.6,147.5,16.6z
			"/>
	</g>
	<g>
		<path class="st8" d="M91.5,16.6H35.2c-1.4,0-2.5-1.1-2.5-2.5s1.1-2.5,2.5-2.5h56.3c1.4,0,2.5,1.1,2.5,2.5S92.9,16.6,91.5,16.6z"/>
	</g>
	<g>
		<path class="st8" d="M66.8,144.9c-1.4,0-2.5-1.1-2.5-2.5s1.1-2.5,2.5-2.5h48c21.7-0.3,24.3-12.1,24.4-12.6c0.3-1.3,1.6-2.2,2.9-2
			c1.3,0.3,2.2,1.5,2,2.9c-0.1,0.7-3.2,16.4-29.3,16.7H66.8z"/>
	</g>
</g>
</svg>
