<?xml version="1.0" encoding="utf-8"?>
<!-- Generator: Adobe Illustrator 21.1.0, SVG Export Plug-In . SVG Version: 6.00 Build 0)  -->
<svg version="1.1" id="Layer_1" xmlns="http://www.w3.org/2000/svg" xmlns:xlink="http://www.w3.org/1999/xlink" x="0px" y="0px"
	 viewBox="0 0 150 150" style="enable-background:new 0 0 150 150;" xml:space="preserve">
<style type="text/css">
	.st0{fill:#FFFFFF;}
	.st1{fill:#F4F4F4;}
	.st2{fill:#282828;}
	.st3{fill:#12D1DB;}
	.st4{display:none;}
	.st5{display:inline;}
	.st6{display:inline;fill:none;stroke:#000000;stroke-width:1.2;stroke-miterlimit:10;}
	.st7{fill:#393C44;}
	.st8{fill:#515A5D;}
	.st9{fill:#12D1DB;stroke:#12D1DB;stroke-miterlimit:10;}
	.st10{fill:#515A5D;stroke:#515A5D;stroke-width:2;stroke-miterlimit:10;}
	.st11{fill:#A6E0DD;}
	.st12{fill:none;stroke:#515A5D;stroke-width:5;stroke-linecap:round;stroke-linejoin:round;stroke-miterlimit:10;}
</style>
<g>
	<g>
		<path class="st8" d="M138.5,65.3c-0.6,0-1.3-0.2-1.8-0.7l-16.9-17.1c-1-1-1-2.6,0-3.5c1-1,2.6-1,3.5,0L140.3,61c1,1,1,2.6,0,3.5
			C139.8,65.1,139.1,65.3,138.5,65.3z"/>
	</g>
	<g>
		<path class="st8" d="M55.1,22.7c-0.7,0-1.3-0.3-1.8-0.8c-1-1-0.9-2.6,0.1-3.5L72,0.7c0.9-0.9,2.4-0.9,3.4-0.1l19.8,17.7
			c1,0.9,1.1,2.5,0.2,3.5c-0.9,1-2.5,1.1-3.5,0.2L73.8,5.9L56.8,22C56.3,22.5,55.7,22.7,55.1,22.7z"/>
	</g>
	<g>
		<path class="st8" d="M11.5,65.3c-0.6,0-1.3-0.2-1.8-0.7c-1-1-1-2.6,0-3.5l18.7-19c1-1,2.6-1,3.5,0c1,1,1,2.6,0,3.5l-18.7,19
			C12.8,65,12.1,65.3,11.5,65.3z"/>
	</g>
	<g>
		<path class="st8" d="M55.1,22.7c-0.7,0-1.3-0.3-1.8-0.8c-1-1-0.9-2.6,0.1-3.5L72,0.7c0.9-0.9,2.4-0.9,3.4-0.1l19.8,17.7
			c1,0.9,1.1,2.5,0.2,3.5c-0.9,1-2.5,1.1-3.5,0.2L73.8,5.9L56.8,22C56.3,22.5,55.7,22.7,55.1,22.7z"/>
	</g>
	<g>
		<path class="st8" d="M138.5,65.3c-0.6,0-1.3-0.2-1.8-0.7l-16.9-17.1c-1-1-1-2.6,0-3.5c1-1,2.6-1,3.5,0L140.3,61c1,1,1,2.6,0,3.5
			C139.8,65.1,139.1,65.3,138.5,65.3z"/>
	</g>
	<g>
		<path class="st8" d="M11.5,65.3c-0.6,0-1.3-0.2-1.8-0.7c-1-1-1-2.6,0-3.5l18.7-19c1-1,2.6-1,3.5,0c1,1,1,2.6,0,3.5l-18.7,19
			C12.8,65,12.1,65.3,11.5,65.3z"/>
	</g>
	<g>
		<path class="st3" d="M115.7,17.9H34.3c-3.7,0-6.7,3-6.7,6.7v47.5L75,102.9l47.4-31V24.6C122.4,20.9,119.4,17.9,115.7,17.9z
			 M84.7,70.4H40.4c-1.6,0-2.8-1.3-2.8-2.8s1.3-2.8,2.8-2.8h44.4c1.6,0,2.8,1.3,2.8,2.8S86.3,70.4,84.7,70.4z M109.9,51.7H40.4
			c-1.6,0-2.8-1.3-2.8-2.8s1.3-2.8,2.8-2.8h69.5c1.6,0,2.8,1.3,2.8,2.8S111.4,51.7,109.9,51.7z M109.9,33H40.4
			c-1.6,0-2.8-1.3-2.8-2.8c0-1.6,1.3-2.8,2.8-2.8h69.5c1.6,0,2.8,1.3,2.8,2.8C112.7,31.7,111.4,33,109.9,33z"/>
	</g>
	<g>
		<g>
			<path class="st8" d="M131.5,150h-113c-5.2,0-9.5-4.9-9.5-10.9V62.7c0-0.9,0.5-1.8,1.3-2.2c0.8-0.4,1.8-0.4,2.6,0.1L75,102.1
				l62.1-41.5c0.8-0.5,1.8-0.6,2.6-0.1c0.8,0.4,1.3,1.3,1.3,2.2v76.4C141,145.1,136.7,150,131.5,150z M14,67.4v71.7
				c0,3.3,2,5.9,4.5,5.9h113c2.5,0,4.5-2.6,4.5-5.9V67.4l-59.6,39.8c-0.8,0.6-1.9,0.6-2.8,0L14,67.4z"/>
		</g>
		<g>
			<path class="st8" d="M116.4,124c-0.6,0-1.2-0.2-1.7-0.7l-27-24.6c-1-0.9-1.1-2.5-0.2-3.5s2.5-1.1,3.5-0.2l27,24.6
				c1,0.9,1.1,2.5,0.2,3.5C117.7,123.7,117.1,124,116.4,124z"/>
		</g>
		<g>
			<path class="st8" d="M32.1,124c-0.7,0-1.4-0.3-1.8-0.8c-0.9-1-0.9-2.6,0.2-3.5L58,94.6c1-0.9,2.6-0.9,3.5,0.2
				c0.9,1,0.9,2.6-0.2,3.5l-27.5,25.1C33.3,123.8,32.7,124,32.1,124z"/>
		</g>
	</g>
	<g>
		<g>
			<path class="st8" d="M131.5,150h-113c-5.2,0-9.5-4.9-9.5-10.9V62.7c0-0.9,0.5-1.8,1.3-2.2c0.8-0.4,1.8-0.4,2.6,0.1L75,102.1
				l62.1-41.5c0.8-0.5,1.8-0.6,2.6-0.1c0.8,0.4,1.3,1.3,1.3,2.2v76.4C141,145.1,136.7,150,131.5,150z M14,67.4v71.7
				c0,3.3,2,5.9,4.5,5.9h113c2.5,0,4.5-2.6,4.5-5.9V67.4l-59.6,39.8c-0.8,0.6-1.9,0.6-2.8,0L14,67.4z"/>
		</g>
		<g>
			<path class="st8" d="M116.4,124c-0.6,0-1.2-0.2-1.7-0.7l-27-24.6c-1-0.9-1.1-2.5-0.2-3.5s2.5-1.1,3.5-0.2l27,24.6
				c1,0.9,1.1,2.5,0.2,3.5C117.7,123.7,117.1,124,116.4,124z"/>
		</g>
		<g>
			<path class="st8" d="M32.1,124c-0.7,0-1.4-0.3-1.8-0.8c-0.9-1-0.9-2.6,0.2-3.5L58,94.6c1-0.9,2.6-0.9,3.5,0.2
				c0.9,1,0.9,2.6-0.2,3.5l-27.5,25.1C33.3,123.8,32.7,124,32.1,124z"/>
		</g>
	</g>
</g>
</svg>
