<?xml version="1.0" encoding="utf-8"?>
<!-- Generator: Adobe Illustrator 21.1.0, SVG Export Plug-In . SVG Version: 6.00 Build 0)  -->
<svg version="1.1" id="Layer_1" xmlns="http://www.w3.org/2000/svg" xmlns:xlink="http://www.w3.org/1999/xlink" x="0px" y="0px"
	 viewBox="0 0 150 150" style="enable-background:new 0 0 150 150;" xml:space="preserve">
<style type="text/css">
	.st0{fill:#FFFFFF;}
	.st1{fill:#F4F4F4;}
	.st2{fill:#282828;}
	.st3{fill:#12D1DB;}
	.st4{display:none;}
	.st5{display:inline;}
	.st6{display:inline;fill:none;stroke:#000000;stroke-width:1.2;stroke-miterlimit:10;}
	.st7{fill:#393C44;}
	.st8{fill:#515A5D;}
	.st9{fill:#12D1DB;stroke:#12D1DB;stroke-miterlimit:10;}
	.st10{fill:#515A5D;stroke:#515A5D;stroke-width:2;stroke-miterlimit:10;}
	.st11{fill:#A6E0DD;}
	.st12{fill:none;stroke:#515A5D;stroke-width:5;stroke-linecap:round;stroke-linejoin:round;stroke-miterlimit:10;}
</style>
<g>
	<g>
		<path class="st3" d="M75,72.4c7.9,0,14.2-6.4,14.2-14.2S82.9,43.9,75,43.9s-14.2,6.4-14.2,14.2S67.2,72.4,75,72.4z M75,79.5
			c-9.5,0-28.5,4.8-28.5,14.2v5.2c0,1.1,0.8,2.1,1.9,2.4c4.7,1.1,17.5,4,26.6,4c8.2,0,21.6-2.9,26.6-4c1.1-0.2,1.9-1.2,1.9-2.4v-5.2
			C103.5,84.3,84.5,79.5,75,79.5z"/>
	</g>
	<g>
		<path class="st8" d="M60.2,143.2c-0.1,0-0.3,0-0.4,0C33.5,138.8,11.9,120.4,3.6,95c-5.9-18.1-4.5-37.4,4.1-54.4
			C16.3,23.6,31,10.9,49.1,5C67.2-1,86.5,0.5,103.5,9.1c17,8.6,29.6,23.3,35.6,41.4c4,12.3,4.7,25.4,1.8,38c-0.3,1.3-1.6,2.2-3,1.9
			c-1.3-0.3-2.2-1.6-1.9-3c2.6-11.7,2.1-23.9-1.7-35.3c-5.5-16.8-17.3-30.5-33.1-38.5c-15.8-8-33.8-9.3-50.6-3.8
			C33.8,15.2,20.2,27,12.2,42.8c-8,15.8-9.3,33.8-3.8,50.6c7.7,23.6,27.8,40.7,52.3,44.8c1.4,0.2,2.3,1.5,2.1,2.9
			C62.5,142.3,61.4,143.2,60.2,143.2z"/>
	</g>
	<g>
		<path class="st8" d="M60.3,128.8c-0.2,0-0.3,0-0.5-0.1c-20-4.1-36.3-18.7-42.7-38.1c-9.8-29.9,6.5-62.2,36.4-72
			c29.9-9.8,62.2,6.5,72,36.4c3.3,10.2,3.8,21,1.2,31.4c-0.3,1.3-1.7,2.2-3,1.8c-1.3-0.3-2.2-1.7-1.8-3c2.3-9.4,1.9-19.4-1.1-28.6
			c-9-27.3-38.5-42.2-65.7-33.2c-27.3,9-42.2,38.5-33.2,65.7c5.8,17.7,20.7,31,38.9,34.7c1.4,0.3,2.2,1.6,1.9,3
			C62.5,128,61.5,128.8,60.3,128.8z"/>
	</g>
	<g>
		<path class="st8" d="M127.5,148.6c-0.3,0-0.6-0.1-1-0.2c-0.9-0.4-1.5-1.3-1.5-2.3v-9.8H81.2c-1.4,0-2.5-1.1-2.5-2.5v-15.6
			c0-1.4,1.1-2.5,2.5-2.5H125V106c0-1,0.6-1.9,1.5-2.3c0.9-0.4,2-0.2,2.7,0.5l20,20c1,1,1,2.6,0,3.5l-20,20
			C128.7,148.4,128.1,148.6,127.5,148.6z M83.7,131.4h43.7c1.4,0,2.5,1.1,2.5,2.5v6.2l14-14l-14-14v6.2c0,1.4-1.1,2.5-2.5,2.5H83.7
			V131.4z"/>
	</g>
</g>
</svg>
