<?xml version="1.0" encoding="utf-8"?>
<!-- Generator: Adobe Illustrator 21.1.0, SVG Export Plug-In . SVG Version: 6.00 Build 0)  -->
<svg version="1.1" id="Layer_1" xmlns="http://www.w3.org/2000/svg" xmlns:xlink="http://www.w3.org/1999/xlink" x="0px" y="0px"
	 viewBox="0 0 150 150" style="enable-background:new 0 0 150 150;" xml:space="preserve">
<style type="text/css">
	.st0{fill:#FFFFFF;}
	.st1{fill:#F4F4F4;}
	.st2{fill:#282828;}
	.st3{fill:#12D1DB;}
	.st4{display:none;}
	.st5{display:inline;}
	.st6{display:inline;fill:none;stroke:#000000;stroke-width:1.2;stroke-miterlimit:10;}
	.st7{fill:#393C44;}
	.st8{fill:#515A5D;}
	.st9{fill:#12D1DB;stroke:#12D1DB;stroke-miterlimit:10;}
	.st10{fill:#515A5D;stroke:#515A5D;stroke-width:2;stroke-miterlimit:10;}
	.st11{fill:#A6E0DD;}
	.st12{fill:none;stroke:#515A5D;stroke-width:5;stroke-linecap:round;stroke-linejoin:round;stroke-miterlimit:10;}
</style>
<g>
	<g>
		<g>
			<path class="st3" d="M53.8,150h86.7c4.8,0,7.7-5.2,5.3-9.3l-43.3-73.4c-2.4-4-8.2-4-10.6,0l-43.3,73.4
				C46.1,144.8,49.1,150,53.8,150z"/>
		</g>
		<g>
			<g>
				<path class="st0" d="M97.6,123.9h-2.4l-5.7-27.4c-0.1-0.6-0.2-1.1-0.3-1.6c-0.1-0.5-0.1-0.8-0.1-1.1c0-1.4-0.8-4,2.1-6.3
					c1.3-1,3.1-1.8,5.2-1.8c2,0,3.8,1,5.1,1.8c2.7,1.7,2.1,5,2.1,6.8c0,0.5-0.1,1.3-0.3,2.3L97.6,123.9z M96.4,129.4
					c1.6,0,3,0.6,4.2,1.8c1.2,1.2,1.8,2.6,1.8,4.1c0,1.7-0.6,3.1-1.7,4.3c-1.2,1.2-2.6,1.8-4.3,1.8c-1.7,0-3.1-0.6-4.3-1.8
					c-1.2-1.2-1.8-2.6-1.8-4.3c0-1.6,0.6-3,1.8-4.2C93.4,130,94.8,129.4,96.4,129.4z"/>
			</g>
		</g>
	</g>
	<g>
		<path class="st8" d="M49.9,112.2H5.6c-1.2,0-2.2-1-2.2-2.2V96.5c0-19.4,31.8-29.2,49.6-29.2c5.2,0,11.8,0.9,18.1,2.6
			c1.2,0.3,1.9,1.5,1.6,2.7c-0.3,1.2-1.5,1.9-2.7,1.6C64,72.7,57.8,71.8,53,71.8c-7.1,0-18.8,2-28.7,6.5
			c-7.5,3.4-16.4,9.3-16.4,18.1v11.2h42.1c1.2,0,2.2,1,2.2,2.2C52.2,111.2,51.1,112.2,49.9,112.2z M53,52.2
			c-14.4,0-26.1-11.7-26.1-26.1C26.8,11.7,38.6,0,53,0c14.4,0,26.1,11.7,26.1,26.1C79.1,40.5,67.4,52.2,53,52.2z M53,4.5
			c-11.9,0-21.6,9.7-21.6,21.6S41,47.7,53,47.7S74.6,38,74.6,26.1S64.9,4.5,53,4.5z"/>
	</g>
</g>
</svg>
