<?xml version="1.0" encoding="utf-8"?>
<!-- Generator: Adobe Illustrator 21.1.0, SVG Export Plug-In . SVG Version: 6.00 Build 0)  -->
<svg version="1.1" id="Layer_1" xmlns="http://www.w3.org/2000/svg" xmlns:xlink="http://www.w3.org/1999/xlink" x="0px" y="0px"
	 viewBox="0 0 150 150" style="enable-background:new 0 0 150 150;" xml:space="preserve">
<style type="text/css">
	.st0{fill:#FFFFFF;}
	.st1{fill:#F4F4F4;}
	.st2{fill:#282828;}
	.st3{fill:#12D1DB;}
	.st4{display:none;}
	.st5{display:inline;}
	.st6{display:inline;fill:none;stroke:#000000;stroke-width:1.2;stroke-miterlimit:10;}
	.st7{fill:#393C44;}
	.st8{fill:#515A5D;}
	.st9{fill:#12D1DB;stroke:#12D1DB;stroke-miterlimit:10;}
	.st10{fill:#515A5D;stroke:#515A5D;stroke-width:2;stroke-miterlimit:10;}
	.st11{fill:#A6E0DD;}
	.st12{fill:none;stroke:#515A5D;stroke-width:5;stroke-linecap:round;stroke-linejoin:round;stroke-miterlimit:10;}
</style>
<g>
	<g>
		<path d="M77.4,60.1H3c-1.7,0-3-1.3-3-3V3c0-1.7,1.3-3,3-3h74.4c1.7,0,3,1.3,3,3v54.1C80.4,58.8,79,60.1,77.4,60.1z M6,54.1h68.4V6
			H6V54.1z"/>
	</g>
	<g>
		<path d="M29.5,57.3c0,0,6.8,12-7.4,18.4h36.3c0,0-14.2-8.6-5.9-18.4H29.5z"/>
	</g>
	<g>
		<path d="M40.2,118.2c-1.7,0-3-1.3-3-3V86.2c0-1.7,1.3-3,3-3s3,1.3,3,3v28.9C43.2,116.8,41.8,118.2,40.2,118.2z"/>
	</g>
	<g>
		<path d="M40.2,150c-10.4,0-18.8-8.4-18.8-18.8s8.4-18.8,18.8-18.8S59,120.8,59,131.2S50.6,150,40.2,150z M40.2,118.3
			c-7.1,0-12.8,5.8-12.8,12.8c0,7.1,5.8,12.8,12.8,12.8S53,138.2,53,131.2C53,124.1,47.3,118.3,40.2,118.3z"/>
	</g>
	<g>
		<path d="M115.3,29.4H86.4c-1.7,0-3-1.3-3-3s1.3-3,3-3h28.9c1.7,0,3,1.3,3,3S117,29.4,115.3,29.4z"/>
	</g>
	<g>
		<path d="M131.2,45.2c-10.4,0-18.8-8.4-18.8-18.8s8.4-18.8,18.8-18.8S150,16,150,26.4S141.6,45.2,131.2,45.2z M131.2,13.6
			c-7.1,0-12.8,5.8-12.8,12.8s5.8,12.8,12.8,12.8S144,33.5,144,26.4S138.2,13.6,131.2,13.6z"/>
	</g>
	<g>
		<path d="M103.3,94.6c-0.8,0-1.5-0.3-2.1-0.9L80.8,73.3c-1.2-1.2-1.2-3.1,0-4.2c1.2-1.2,3.1-1.2,4.2,0l20.5,20.5
			c1.2,1.2,1.2,3.1,0,4.2C104.9,94.3,104.1,94.6,103.3,94.6z"/>
	</g>
	<g>
		<path d="M114.5,121.6c-5,0-9.8-2-13.3-5.5c-3.6-3.6-5.5-8.3-5.5-13.3s2-9.8,5.5-13.3c3.6-3.6,8.3-5.5,13.3-5.5c5,0,9.8,2,13.3,5.5
			h0c0,0,0,0,0,0c3.6,3.6,5.5,8.3,5.5,13.3s-2,9.8-5.5,13.3C124.3,119.7,119.6,121.6,114.5,121.6z M114.5,90c-3.4,0-6.7,1.3-9.1,3.8
			c-2.4,2.4-3.8,5.6-3.8,9.1s1.3,6.7,3.8,9.1c2.4,2.4,5.6,3.8,9.1,3.8c3.4,0,6.6-1.3,9.1-3.8c2.4-2.4,3.8-5.6,3.8-9.1
			s-1.3-6.7-3.8-9.1h0C121.2,91.3,118,90,114.5,90z"/>
	</g>
</g>
</svg>
