<?xml version="1.0" encoding="utf-8"?>
<!-- Generator: Adobe Illustrator 21.1.0, SVG Export Plug-In . SVG Version: 6.00 Build 0)  -->
<svg version="1.1" id="Layer_1" xmlns="http://www.w3.org/2000/svg" xmlns:xlink="http://www.w3.org/1999/xlink" x="0px" y="0px"
	 viewBox="0 0 150 150" style="enable-background:new 0 0 150 150;" xml:space="preserve">
<style type="text/css">
	.st0{fill:#FFFFFF;}
	.st1{fill:#F4F4F4;}
	.st2{fill:#282828;}
	.st3{fill:#12D1DB;}
	.st4{display:none;}
	.st5{display:inline;}
	.st6{display:inline;fill:none;stroke:#000000;stroke-width:1.2;stroke-miterlimit:10;}
	.st7{fill:#393C44;}
	.st8{fill:#515A5D;}
	.st9{fill:#12D1DB;stroke:#12D1DB;stroke-miterlimit:10;}
	.st10{fill:#515A5D;stroke:#515A5D;stroke-width:2;stroke-miterlimit:10;}
	.st11{fill:#A6E0DD;}
	.st12{fill:none;stroke:#515A5D;stroke-width:5;stroke-linecap:round;stroke-linejoin:round;stroke-miterlimit:10;}
</style>
<g>
	<g>
		<g>
			<path class="st8" d="M147.5,133.9H52.7c-0.7,0-1.4-0.3-1.8-0.8s-0.7-1.2-0.6-1.9c1-10.7,8.3-15.5,13.5-17.1V86
				c0-5.3,0.9-10.3,2.6-14.8c8.6-22.9,31.2-22.2,33.9-22c2.6-0.2,25.2-0.9,33.9,22c1.7,4.6,2.6,9.6,2.6,14.8v28.2
				c5.1,1.5,12.5,6.3,13.5,17.1c0.1,0.7-0.2,1.4-0.6,1.9S148.2,133.9,147.5,133.9z M55.6,128.9h89c-2.2-8.9-10.5-10.3-10.9-10.3
				c-1.2-0.2-2.2-1.2-2.2-2.5V86c0-4.7-0.8-9.1-2.3-13.1c-7.7-20.6-28.1-18.9-28.9-18.8c0,0,0,0-0.1,0c-0.1,0-0.3,0-0.5,0
				C99,54,78.6,52.3,70.9,72.9c-1.5,4-2.3,8.4-2.3,13.1v30.2c0,1.3-0.9,2.3-2.2,2.5C66.1,118.7,57.8,120,55.6,128.9z"/>
		</g>
		<g>
			<path class="st8" d="M111.3,53.8c-1.4,0-2.5-1.1-2.5-2.5c0-4.8-3.9-8.7-8.7-8.7s-8.7,3.9-8.7,8.7c0,1.4-1.1,2.5-2.5,2.5
				s-2.5-1.1-2.5-2.5c0-7.6,6.2-13.7,13.7-13.7c7.6,0,13.7,6.2,13.7,13.7C113.8,52.7,112.7,53.8,111.3,53.8z"/>
		</g>
		<g>
			<path class="st8" d="M100.1,150c-10.6,0-19.3-8.2-19.3-18.2c0-1.4,1.1-2.5,2.5-2.5s2.5,1.1,2.5,2.5c0,7.3,6.4,13.2,14.3,13.2
				c7.9,0,14.3-5.9,14.3-13.2c0-1.4,1.1-2.5,2.5-2.5s2.5,1.1,2.5,2.5C119.4,141.8,110.7,150,100.1,150z"/>
		</g>
	</g>
	<g>
		<g>
			<circle class="st3" cx="46.6" cy="23.3" r="23.3"/>
		</g>
		<g>
			<path class="st3" d="M49.8,83.1c0-9.2,3.7-17.5,9.7-23.6c-4.7-0.8-9.2-1.3-12.8-1.3c-2.6,0-5.6,0.2-8.8,0.6
				C21.6,61.1,0,68.7,0,81.6v11.7h51.3C50.3,90.1,49.8,86.7,49.8,83.1z"/>
		</g>
	</g>
</g>
</svg>
