<?xml version="1.0" encoding="utf-8"?>
<!-- Generator: Adobe Illustrator 21.0.2, SVG Export Plug-In . SVG Version: 6.00 Build 0)  -->
<svg version="1.1" id="Layer_1" xmlns="http://www.w3.org/2000/svg" xmlns:xlink="http://www.w3.org/1999/xlink" x="0px" y="0px"
	 viewBox="0 0 150 150" style="enable-background:new 0 0 150 150;" xml:space="preserve">
<style type="text/css">
	.st0{fill:#FFFFFF;}
	.st1{fill:#F4F4F4;}
	.st2{fill:#282828;}
	.st3{fill:#12D1DB;}
	.st4{display:none;}
	.st5{display:inline;}
	.st6{display:inline;fill:none;stroke:#000000;stroke-width:1.2;stroke-miterlimit:10;}
	.st7{fill:#393C44;}
</style>
<g>
	<g>
		<path class="st7" d="M110.3,149.8c-0.9,0-1.7-0.1-2.6-0.2c-8-1.2-28.9-5.7-50.7-21.3C29.5,108.8,10.4,79.5,0.3,41
			c-0.1-0.3-0.1-0.7-0.2-1.1c-0.2-1.4-0.1-2.7,0.3-4.1c0.1-0.4,0.2-0.8,0.4-1.1C3.2,29.2,13,14.8,25.6,8.9c3.6-1.7,7.8-1.4,11.3,0.6
			c0,0,0,0,0,0c4.8,2.7,12.5,9,22.4,23.3c2.9,4.2,2.9,9.7,0,14c-2.5,3.8-8.6,10.5-13.4,14.2c3.8,7.9,17.4,33.1,42.4,42.5
			c14.6-16.2,19.1-13.9,20.6-13.1c0.7,0.3,17.1,8.7,28.1,24.7c3,4.4,2.9,10.2-0.3,14.5c-4.7,6.3-11.9,14.7-19.3,18.5
			C115.3,149.2,112.9,149.8,110.3,149.8z M30.6,14.6c-0.8,0-1.5,0.2-2.2,0.5C17.5,20.2,8.7,33.5,7,37.6c0,0,0,0.1,0,0.1
			c-0.1,0.5-0.2,1-0.1,1.5c0,0.1,0,0.1,0,0.1c9.8,36.8,28,64.9,54.1,83.5c20.7,14.7,40.4,18.9,47.8,20.1c2,0.3,3.9,0,5.6-0.8
			c6.6-3.4,13.4-11.8,16.9-16.5c1.4-1.9,1.5-4.6,0.1-6.6c-8.9-13.1-22.3-20.8-25-22.2c-2.4,0.8-8.9,6.6-14.5,13
			c-0.9,1-2.3,1.4-3.6,1C54.1,99.3,39.2,62.6,38.5,61.1c-0.6-1.6,0-3.4,1.5-4.2c3.6-2,10.8-9.6,13.7-13.8c1.3-2,1.3-4.4,0-6.3
			c-9.2-13.3-16.1-18.9-20.2-21.3C32.6,14.9,31.6,14.6,30.6,14.6z"/>
	</g>
	<g>
		<path class="st7" d="M119.5,70.7c-1.6,0-3-1.1-3.3-2.7c-6-28.9-32.8-33.8-33.9-34c-1.8-0.3-3.1-2.1-2.8-3.9c0.3-1.8,2-3.1,3.9-2.8
			c0.3,0.1,32.5,5.8,39.4,39.3c0.4,1.8-0.8,3.6-2.6,4C120,70.7,119.7,70.7,119.5,70.7z"/>
	</g>
	<g>
		<path class="st7" d="M146.6,69.7c-1.6,0-3-1.1-3.3-2.7c-4.6-22.5-16-39.4-33.9-50.3C95.9,8.5,83.6,7,83.5,6.9
			c-1.9-0.2-3.2-1.9-3-3.8c0.2-1.9,1.9-3.2,3.8-3c0.6,0.1,13.7,1.7,28.4,10.6c13.6,8.2,31.1,24.4,37.3,54.9c0.4,1.8-0.8,3.6-2.6,4
			C147.1,69.7,146.8,69.7,146.6,69.7z"/>
	</g>
</g>
</svg>
