<?xml version="1.0" encoding="utf-8"?>
<!-- Generator: Adobe Illustrator 21.1.0, SVG Export Plug-In . SVG Version: 6.00 Build 0)  -->
<svg version="1.1" id="Layer_1" xmlns="http://www.w3.org/2000/svg" xmlns:xlink="http://www.w3.org/1999/xlink" x="0px" y="0px"
	 viewBox="0 0 150 150" style="enable-background:new 0 0 150 150;" xml:space="preserve">
<style type="text/css">
	.st0{fill:#FFFFFF;}
	.st1{fill:#F4F4F4;}
	.st2{fill:#282828;}
	.st3{fill:#12D1DB;}
	.st4{display:none;}
	.st5{display:inline;}
	.st6{display:inline;fill:none;stroke:#000000;stroke-width:1.2;stroke-miterlimit:10;}
	.st7{fill:#393C44;}
	.st8{fill:#515A5D;}
	.st9{fill:#12D1DB;stroke:#12D1DB;stroke-miterlimit:10;}
	.st10{fill:#515A5D;stroke:#515A5D;stroke-width:2;stroke-miterlimit:10;}
	.st11{fill:#A6E0DD;}
	.st12{fill:none;stroke:#515A5D;stroke-width:5;stroke-linecap:round;stroke-linejoin:round;stroke-miterlimit:10;}
	.st13{fill:#57F7FF;}
	.st14{fill:#5B6466;}
	.st15{fill:#9FC9C9;}
	.st16{fill:none;}
	.st17{fill:#959899;}
</style>
<g>
	<g>
		<path d="M127,133.9H23c-12.7,0-23-10.3-23-23V39.1c0-12.7,10.3-23,23-23h104c12.7,0,23,10.3,23,23v71.8
			C150,123.6,139.7,133.9,127,133.9z M23,22.1c-9.4,0-17,7.6-17,17v71.8c0,9.4,7.6,17,17,17h104c9.4,0,17-7.6,17-17V39.1
			c0-9.4-7.6-17-17-17H23z"/>
	</g>
	<g>
		<path d="M75,88.1c-7.5,0-15-2.8-20.9-8.5L4.3,31.2c-1.2-1.2-1.2-3.1-0.1-4.2c1.2-1.2,3.1-1.2,4.2-0.1l49.8,48.3
			c9.4,9.1,24.1,9.1,33.4,0l49.2-47.7c1.2-1.2,3.1-1.1,4.2,0.1c1.2,1.2,1.1,3.1-0.1,4.2L95.9,79.5C90.1,85.2,82.5,88.1,75,88.1z"/>
	</g>
	<g>
		<path d="M10.9,127.4c-0.8,0-1.5-0.3-2.1-0.9c-1.2-1.2-1.2-3.1,0-4.2l45.8-46.6c1.2-1.2,3.1-1.2,4.2,0c1.2,1.2,1.2,3.1,0,4.2
			l-45.8,46.6C12.5,127.1,11.7,127.4,10.9,127.4z"/>
	</g>
	<g>
		<path d="M139.4,127.4c-0.8,0-1.6-0.3-2.1-0.9L91.3,79.8c-1.2-1.2-1.1-3.1,0-4.2c1.2-1.2,3.1-1.1,4.2,0l45.9,46.7
			c1.2,1.2,1.1,3.1,0,4.2C140.9,127.2,140.2,127.4,139.4,127.4z"/>
	</g>
</g>
</svg>
