<?xml version="1.0" encoding="utf-8"?>
<!-- Generator: Adobe Illustrator 21.0.2, SVG Export Plug-In . SVG Version: 6.00 Build 0)  -->
<svg version="1.1" id="Layer_1" xmlns="http://www.w3.org/2000/svg" xmlns:xlink="http://www.w3.org/1999/xlink" x="0px" y="0px"
	 viewBox="0 0 150 150" style="enable-background:new 0 0 150 150;" xml:space="preserve">
<style type="text/css">
	.st0{fill:#FFFFFF;}
	.st1{fill:#F4F4F4;}
	.st2{fill:#282828;}
	.st3{fill:#12D1DB;}
	.st4{display:none;}
	.st5{display:inline;}
	.st6{display:inline;fill:none;stroke:#000000;stroke-width:1.2;stroke-miterlimit:10;}
	.st7{fill:#393C44;}
</style>
<g>
	<g>
		<path class="st7" d="M75,150c-41.4,0-75-33.6-75-75S33.6,0,75,0s75,33.6,75,75S116.4,150,75,150z M75,6.8
			C37.4,6.8,6.8,37.4,6.8,75s30.6,68.2,68.2,68.2s68.2-30.6,68.2-68.2S112.6,6.8,75,6.8z"/>
	</g>
	<g>
		<circle class="st7" cx="75.2" cy="114.5" r="6.1"/>
		<path class="st7" d="M78.5,100.8h-6.1l0-1.4c0.2-7.3,0.5-14.7,10.4-24.3c0.8-0.8,1.6-1.6,2.3-2.4c4.6-4.6,8.3-8.3,8.6-15
			c0-10.1-8.1-18-18.5-18c-6,0-16.8,3.2-18.7,15.1c-0.2,1.1-0.3,2.1-0.3,3.1v1.4h-6.1v-1.4c0-1.1,0.1-2.1,0.2-3.1
			C52.8,38,67.6,33.5,75.2,33.5c12.1,0,24.7,9.2,24.7,24.5c0,9.2-6.9,15.8-12.9,21.7l-0.6,0.6c-7.8,7.7-7.8,14.3-7.8,19V100.8z"/>
	</g>
</g>
</svg>
