<?xml version="1.0" encoding="utf-8"?>
<!-- Generator: Adobe Illustrator 21.1.0, SVG Export Plug-In . SVG Version: 6.00 Build 0)  -->
<svg version="1.1" id="Layer_1" xmlns="http://www.w3.org/2000/svg" xmlns:xlink="http://www.w3.org/1999/xlink" x="0px" y="0px"
	 viewBox="0 0 150 150" style="enable-background:new 0 0 150 150;" xml:space="preserve">
<style type="text/css">
	.st0{fill:#FFFFFF;}
	.st1{fill:#F4F4F4;}
	.st2{fill:#282828;}
	.st3{fill:#12D1DB;}
	.st4{display:none;}
	.st5{display:inline;}
	.st6{display:inline;fill:none;stroke:#000000;stroke-width:1.2;stroke-miterlimit:10;}
	.st7{fill:#393C44;}
	.st8{fill:#515A5D;}
	.st9{fill:#12D1DB;stroke:#12D1DB;stroke-miterlimit:10;}
	.st10{fill:#515A5D;stroke:#515A5D;stroke-width:2;stroke-miterlimit:10;}
	.st11{fill:#A6E0DD;}
</style>
<g>
	<g>
		<g>
			<path class="st11" d="M128.5,90.3l-17.9-9.1c-2.1-1.4-4.8-1.3-6.9,0.1L87.5,92l17.6,21h18.7c2.5,0,4.6-2.1,4.6-4.6V90.3z"/>
		</g>
		<g>
			<path class="st3" d="M21.5,78.8l30-15.4c3.4-2.1,6.8-1.4,9.8,1.4l55.3,48.2H25.2c-2,0-3.7-1.6-3.7-3.7V78.8z"/>
		</g>
	</g>
	<g>
		<circle class="st3" cx="103.4" cy="43.3" r="10.2"/>
	</g>
	<g>
		<g>
			<path class="st8" d="M128.5,149h-107C10.2,149,1,139.8,1,128.5v-107C1,10.2,10.2,1,21.5,1h107c11.3,0,20.5,9.2,20.5,20.5v107
				C149,139.8,139.8,149,128.5,149z M21.5,4.1c-9.6,0-17.4,7.8-17.4,17.4v107c0,9.6,7.8,17.4,17.4,17.4h107
				c9.6,0,17.4-7.8,17.4-17.4v-107c0-9.6-7.8-17.4-17.4-17.4H21.5z"/>
			<path class="st8" d="M128.5,150h-107C9.6,150,0,140.4,0,128.5v-107C0,9.6,9.6,0,21.5,0h107C140.4,0,150,9.6,150,21.5v107
				C150,140.4,140.4,150,128.5,150z M21.5,2C10.7,2,2,10.7,2,21.5v107c0,10.8,8.8,19.5,19.5,19.5h107c10.8,0,19.5-8.8,19.5-19.5
				v-107C148,10.7,139.3,2,128.5,2H21.5z M128.5,146.8h-107c-10.1,0-18.3-8.2-18.3-18.3v-107c0-10.1,8.2-18.3,18.3-18.3h107
				c10.1,0,18.3,8.2,18.3,18.3v107C146.8,138.6,138.6,146.8,128.5,146.8z M21.5,5.1c-9,0-16.4,7.3-16.4,16.4v107
				c0,9,7.3,16.4,16.4,16.4h107c9,0,16.4-7.3,16.4-16.4v-107c0-9-7.3-16.4-16.4-16.4H21.5z"/>
		</g>
	</g>
	<g>
		<g>
			<path class="st8" d="M125.7,114.5H24.3c-2.8,0-5.1-2.3-5.1-5.1V26.2c0-2.8,2.3-5.1,5.1-5.1h101.4c2.8,0,5.1,2.3,5.1,5.1v83.2
				C130.8,112.2,128.5,114.5,125.7,114.5z M24.3,23.9c-1.3,0-2.3,1-2.3,2.3v83.2c0,1.3,1,2.3,2.3,2.3h101.4c1.3,0,2.3-1,2.3-2.3
				V26.2c0-1.3-1-2.3-2.3-2.3H24.3z"/>
			<path class="st8" d="M125.7,115.4H24.3c-3.3,0-6-2.7-6-6V26.2c0-3.3,2.7-6,6-6h101.4c3.3,0,6,2.7,6,6v83.2
				C131.7,112.7,129,115.4,125.7,115.4z M24.3,22c-2.3,0-4.3,1.9-4.3,4.3v83.2c0,2.3,1.9,4.3,4.3,4.3h101.4c2.3,0,4.3-1.9,4.3-4.3
				V26.2c0-2.3-1.9-4.3-4.3-4.3H24.3z M125.7,112.6H24.3c-1.8,0-3.2-1.4-3.2-3.2V26.2c0-1.8,1.4-3.2,3.2-3.2h101.4
				c1.8,0,3.2,1.4,3.2,3.2v83.2C128.9,111.2,127.5,112.6,125.7,112.6z M24.3,24.8c-0.8,0-1.5,0.7-1.5,1.5v83.2
				c0,0.8,0.7,1.5,1.5,1.5h101.4c0.8,0,1.5-0.7,1.5-1.5V26.2c0-0.8-0.7-1.5-1.5-1.5H24.3z"/>
		</g>
	</g>
</g>
</svg>
