<?xml version="1.0" encoding="utf-8"?>
<!-- Generator: Adobe Illustrator 21.1.0, SVG Export Plug-In . SVG Version: 6.00 Build 0)  -->
<svg version="1.1" id="Layer_1" xmlns="http://www.w3.org/2000/svg" xmlns:xlink="http://www.w3.org/1999/xlink" x="0px" y="0px"
	 viewBox="0 0 150 150" style="enable-background:new 0 0 150 150;" xml:space="preserve">
<style type="text/css">
	.st0{fill:#FFFFFF;}
	.st1{fill:#F4F4F4;}
	.st2{fill:#282828;}
	.st3{fill:#12D1DB;}
	.st4{display:none;}
	.st5{display:inline;}
	.st6{display:inline;fill:none;stroke:#000000;stroke-width:1.2;stroke-miterlimit:10;}
	.st7{fill:#393C44;}
	.st8{fill:#515A5D;}
	.st9{fill:#12D1DB;stroke:#12D1DB;stroke-miterlimit:10;}
	.st10{fill:#515A5D;stroke:#515A5D;stroke-width:2;stroke-miterlimit:10;}
	.st11{fill:#A6E0DD;}
</style>
<g>
	<g>
		<g>
			<g>
				<g>
					<path class="st11" d="M85.2,51.6l-10.7-0.1c-1.3-0.2-2.6,0.5-3.2,1.8l-4.4,9.5L80.8,69l8.6-4.7c1.2-0.6,1.5-2.2,0.8-3.5
						L85.2,51.6z"/>
				</g>
			</g>
			<g>
				<g>
					<path class="st3" d="M32.9,72.7l9.5-15.3c1-1.9,2.7-2.4,4.9-1.8L86,66.1l-41.9,23c-0.9,0.5-2.1,0.1-2.7-0.9L32.9,72.7z"/>
				</g>
			</g>
		</g>
		<g>
			<g>
				<ellipse transform="matrix(0.8767 -0.481 0.481 0.8767 -8.2192 33.9613)" class="st3" cx="62.1" cy="33" rx="6" ry="6"/>
			</g>
		</g>
		<g>
			<g>
				<path class="st8" d="M47.4,118.1c-1.1,0-2.1-0.2-3.2-0.5c-2.9-0.8-5.3-2.8-6.7-5.4L2.4,48.4c-3-5.5-1-12.3,4.5-15.3L62.5,2.5
					c5.5-3,12.3-1,15.3,4.5l35.1,63.9c1.4,2.6,1.8,5.7,0.9,8.6c-0.8,2.9-2.8,5.3-5.4,6.7h0l-55.7,30.6
					C51.1,117.7,49.2,118.1,47.4,118.1z M68,4c-1.4,0-2.7,0.3-4,1L8.3,35.6c-4,2.2-5.5,7.3-3.3,11.3L40,110.8c1.1,2,2.8,3.4,5,4
					c2.1,0.6,4.4,0.4,6.3-0.7L107,83.6c2-1.1,3.4-2.8,4-5c0.6-2.1,0.4-4.4-0.7-6.3L75.3,8.4C73.8,5.6,70.9,4,68,4z"/>
				<path class="st8" d="M47.4,119.1c-1.2,0-2.3-0.2-3.5-0.5c-3.2-0.9-5.8-3-7.3-5.9L1.5,48.8c-3.3-5.9-1.1-13.4,4.9-16.7L62.1,1.6
					C68-1.7,75.5,0.5,78.7,6.5l35.1,63.9c1.6,2.9,1.9,6.2,1,9.3c-0.9,3.1-3,5.8-5.9,7.3l-55.7,30.6
					C51.4,118.6,49.4,119.1,47.4,119.1z M68,2.1c-1.7,0-3.4,0.4-4.9,1.3L7.3,33.9c-5,2.7-6.8,9-4.1,13.9l35.1,63.9
					c1.3,2.4,3.5,4.2,6.1,4.9c2.6,0.8,5.4,0.4,7.8-0.9L108,85.3c2.4-1.3,4.2-3.5,4.9-6.1c0.8-2.6,0.5-5.4-0.9-7.8L77,7.4
					C75.1,4,71.6,2.1,68,2.1z M47.4,116.2c-0.9,0-1.8-0.1-2.6-0.4c-2.4-0.7-4.4-2.3-5.6-4.5L4.1,47.4c-2.5-4.5-0.8-10.2,3.7-12.7
					L63.5,4.2C64.8,3.4,66.4,3,68,3c3.4,0,6.6,1.9,8.2,4.8l35.1,63.9c1.2,2.2,1.5,4.7,0.8,7.1c-0.7,2.4-2.3,4.4-4.5,5.6L51.8,115
					C50.4,115.8,48.9,116.2,47.4,116.2z M68,5c-1.2,0-2.4,0.3-3.5,0.9L8.8,36.5c-3.5,1.9-4.8,6.4-2.9,10l35.1,63.9
					c0.9,1.7,2.5,3,4.4,3.5c1.9,0.6,3.9,0.3,5.6-0.6l55.7-30.6c1.7-0.9,3-2.5,3.5-4.4c0.5-1.9,0.3-3.9-0.6-5.6L74.4,8.8
					C73.1,6.5,70.6,5,68,5z"/>
			</g>
		</g>
		<g>
			<g>
				<path class="st8" d="M44.2,89.5c-0.6,0-1.1-0.1-1.7-0.2c-1.5-0.4-2.8-1.5-3.6-2.9L18.4,49c-1.6-2.9-0.5-6.6,2.4-8.1l40.8-22.4
					c1.4-0.8,3-0.9,4.6-0.5c1.5,0.4,2.8,1.5,3.6,2.9l20.5,37.3c0.8,1.4,0.9,3,0.5,4.6c-0.4,1.5-1.5,2.8-2.9,3.6L47.1,88.7
					C46.2,89.2,45.2,89.5,44.2,89.5z M64.5,20.5c-0.5,0-1.1,0.1-1.5,0.4L22.1,43.3c-1.6,0.9-2.1,2.8-1.3,4.4L41.4,85
					c0.4,0.8,1.1,1.3,1.9,1.5c0.8,0.2,1.7,0.1,2.5-0.3l40.8-22.4c0.8-0.4,1.3-1.1,1.5-1.9c0.2-0.8,0.1-1.7-0.3-2.5L67.4,22.2
					c-0.4-0.8-1.1-1.3-1.9-1.5C65.1,20.5,64.8,20.5,64.5,20.5z"/>
				<path class="st8" d="M44.2,90.4c-0.7,0-1.3-0.1-1.9-0.3c-1.8-0.5-3.2-1.7-4.1-3.3L17.6,49.4c-1.8-3.3-0.6-7.6,2.7-9.4l40.8-22.4
					c1.6-0.9,3.5-1.1,5.3-0.6c1.8,0.5,3.2,1.7,4.1,3.3l20.5,37.3c0.9,1.6,1.1,3.5,0.6,5.3c-0.5,1.8-1.7,3.2-3.3,4.1L47.5,89.5
					C46.5,90.1,45.4,90.4,44.2,90.4z M64.5,18.6c-0.8,0-1.7,0.2-2.4,0.6L21.3,41.7c-2.5,1.3-3.4,4.4-2,6.9l20.5,37.3
					c0.7,1.2,1.7,2.1,3,2.4c1.3,0.4,2.7,0.2,3.9-0.4l40.8-22.4c1.2-0.7,2.1-1.7,2.4-3c0.4-1.3,0.2-2.7-0.4-3.9L69,21.3
					c-0.7-1.2-1.7-2.1-3-2.4C65.5,18.7,65,18.6,64.5,18.6z M44.2,87.6c-0.4,0-0.8-0.1-1.2-0.2c-1.1-0.3-1.9-1-2.5-2L20.1,48.1
					c-1.1-2-0.4-4.5,1.6-5.6l40.8-22.4c1-0.5,2.1-0.7,3.2-0.3c1.1,0.3,1.9,1,2.5,2l20.5,37.3c0.5,1,0.7,2.1,0.3,3.2
					c-0.3,1.1-1,1.9-2,2.5L46.2,87.1C45.6,87.4,44.9,87.6,44.2,87.6z M64.5,21.4c-0.4,0-0.8,0.1-1.1,0.3L22.6,44.1
					c-1.1,0.6-1.5,2-0.9,3.1l20.5,37.3c0.3,0.5,0.8,0.9,1.4,1.1c0.6,0.2,1.2,0.1,1.8-0.2l40.8-22.4c0.5-0.3,0.9-0.8,1.1-1.4
					c0.2-0.6,0.1-1.2-0.2-1.8L66.6,22.6c-0.3-0.5-0.8-0.9-1.4-1.1C65,21.4,64.7,21.4,64.5,21.4z"/>
			</g>
		</g>
	</g>
	<g>
		<path class="st11" d="M104.7,99.3l-1.7,0.2l-8.4,4.6l1.3,11.5l8.5,5.1c1.1,0.7,2.7,0.2,3.4-1l5.4-9.1l-5.4-9.4
			C107.3,99.9,106,99.2,104.7,99.3z"/>
		<polygon class="st3" points="85.2,109.2 101,118.7 96.7,102.9 		"/>
		<path class="st3" d="M120.8,75.8c-0.4-0.2-0.7-0.4-1.1-0.5l1.8,3.3c1.1,1.9,1.4,4,1,6.1c0.1-0.2,0.2-0.3,0.3-0.5
			C124.6,81.3,123.6,77.6,120.8,75.8z"/>
		<g>
			<path class="st8" d="M130.2,73.1l-16.9-10.2l2.7,4.8l12.9,7.7c1.5,0.9,2,2.9,1.1,4.5l-22,36.7c-0.4,0.7-1.2,1.3-2,1.5
				c-0.8,0.2-1.7,0.1-2.5-0.4L87,108l-2.8,1.6l17.8,10.7c0.9,0.6,2,0.9,3.1,0.9c0.5,0,1-0.1,1.5-0.2c1.6-0.4,2.9-1.4,3.7-2.7
				l22-36.7C134,78.5,133,74.8,130.2,73.1z"/>
			<path class="st8" d="M105,122c-1.3,0-2.5-0.3-3.6-1l-19.3-11.6l4.9-2.7l16.9,10.1c0.5,0.3,1.1,0.4,1.7,0.3c0.6-0.1,1.1-0.5,1.4-1
				l22-36.7c0.6-1.1,0.3-2.4-0.8-3.1l-13.1-7.8l-4.6-8.3l20.1,12c3.3,2,4.4,6.3,2.4,9.6l-22,36.7c-1,1.6-2.5,2.7-4.3,3.2
				C106.2,122,105.6,122,105,122z M86.2,109.5l16.3,9.8c1.1,0.7,2.5,0.9,3.8,0.6c1.3-0.3,2.4-1.1,3.1-2.3l22-36.7
				c0.7-1.2,0.9-2.5,0.6-3.8c-0.3-1.3-1.1-2.4-2.3-3.1l-13.8-8.3l0.7,1.4l12.6,7.6c2,1.2,2.7,3.8,1.5,5.8l-22,36.7
				c-0.6,1-1.5,1.7-2.6,1.9c-1.1,0.3-2.2,0.1-3.2-0.5L87,109.1L86.2,109.5z"/>
		</g>
		<g>
			<path class="st8" d="M148.7,72.3c-0.7-2.9-2.6-5.4-5.1-6.9L102,40.4l2.8,5.1L142,67.9c1.9,1.1,3.3,3,3.8,5.1
				c0.5,2.2,0.2,4.4-0.9,6.3l-37.5,62.6c-2.4,3.9-7.5,5.2-11.5,2.9v0l-36.2-21.7l-3,1.6l37.6,22.6v0c1.8,1.1,3.8,1.6,5.8,1.6
				c3.8,0,7.6-2,9.7-5.5l37.5-62.6C149,78.2,149.4,75.2,148.7,72.3z"/>
			<path class="st8" d="M100.2,149.9c-2.2,0-4.4-0.6-6.3-1.7l-39.1-23.4l5-2.7l36.6,22c3.5,2.1,8,1,10.1-2.5L144,78.8
				c1-1.7,1.3-3.7,0.8-5.6c-0.5-1.9-1.7-3.5-3.4-4.5L104,46.2l-4.7-8.5L144,64.5c2.8,1.7,4.8,4.4,5.6,7.5c0.8,3.2,0.3,6.5-1.4,9.3
				l-37.5,62.6C108.5,147.6,104.5,149.9,100.2,149.9z M58.7,124.8l36.2,21.7c1.6,1,3.4,1.5,5.3,1.5c3.6,0,7-1.9,8.9-5l37.5-62.6
				c1.4-2.4,1.8-5.1,1.2-7.8c-0.7-2.7-2.3-4.9-4.7-6.3l-38.5-23.1l0.9,1.7l37,22.2c2.1,1.3,3.6,3.3,4.3,5.7c0.6,2.4,0.2,4.9-1,7.1
				l-37.5,62.6c-2.6,4.4-8.4,5.9-12.8,3.2l-35.7-21.4L58.7,124.8z"/>
		</g>
	</g>
</g>
</svg>
