<?xml version="1.0" encoding="utf-8"?>
<!-- Generator: Adobe Illustrator 21.1.0, SVG Export Plug-In . SVG Version: 6.00 Build 0)  -->
<svg version="1.1" id="Layer_1" xmlns="http://www.w3.org/2000/svg" xmlns:xlink="http://www.w3.org/1999/xlink" x="0px" y="0px"
	 viewBox="0 0 150 150" style="enable-background:new 0 0 150 150;" xml:space="preserve">
<style type="text/css">
	.st0{fill:#FFFFFF;}
	.st1{fill:#F4F4F4;}
	.st2{fill:#282828;}
	.st3{fill:#12D1DB;}
	.st4{display:none;}
	.st5{display:inline;}
	.st6{display:inline;fill:none;stroke:#000000;stroke-width:1.2;stroke-miterlimit:10;}
	.st7{fill:#393C44;}
	.st8{fill:#515A5D;}
	.st9{fill:#12D1DB;stroke:#12D1DB;stroke-miterlimit:10;}
	.st10{fill:#515A5D;stroke:#515A5D;stroke-width:2;stroke-miterlimit:10;}
	.st11{fill:#A6E0DD;}
</style>
<g>
	<polygon class="st3" points="25.5,0 25.5,25.5 124.5,25.5 124.5,124.5 150,124.5 150,0 	"/>
	<g>
		<g>
			<g>
				<g>
					<path class="st8" d="M115.7,149H1V34.3h114.7V149z M3.9,146.1h108.8V37.3H3.9V146.1z"/>
				</g>
				<g>
					<path class="st8" d="M116.7,150H0V33.3h116.7V150z M2,148h112.7V35.3H2V148z M113.7,147.1H2.9V36.3h110.8V147.1z M4.9,145.1
						h106.8V38.3H4.9V145.1z"/>
				</g>
			</g>
		</g>
		<g>
			<g>
				<rect x="54.8" y="71.5" class="st8" width="5" height="45.2"/>
			</g>
			<g>
				<g>
					<polygon class="st8" points="73.9,86.4 70.9,89.2 57.3,74.5 43.7,89.2 40.8,86.4 57.3,68.6 					"/>
					<path class="st8" d="M70.9,89.9L57.3,75.3L43.8,89.9l-3.7-3.4l17.3-18.6l17.3,18.6L70.9,89.9z M41.5,86.4l2.2,2.1l13.6-14.7
						L71,88.5l2.2-2.1L57.3,69.3L41.5,86.4z"/>
				</g>
			</g>
		</g>
	</g>
</g>
</svg>
