<?xml version="1.0" encoding="utf-8"?>
<!-- Generator: Adobe Illustrator 21.1.0, SVG Export Plug-In . SVG Version: 6.00 Build 0)  -->
<svg version="1.1" id="Layer_1" xmlns="http://www.w3.org/2000/svg" xmlns:xlink="http://www.w3.org/1999/xlink" x="0px" y="0px"
	 viewBox="0 0 150 150" style="enable-background:new 0 0 150 150;" xml:space="preserve">
<style type="text/css">
	.st0{fill:#FFFFFF;}
	.st1{fill:#F4F4F4;}
	.st2{fill:#282828;}
	.st3{fill:#12D1DB;}
	.st4{display:none;}
	.st5{display:inline;}
	.st6{display:inline;fill:none;stroke:#000000;stroke-width:1.2;stroke-miterlimit:10;}
	.st7{fill:#393C44;}
	.st8{fill:#515A5D;}
	.st9{fill:#12D1DB;stroke:#12D1DB;stroke-miterlimit:10;}
	.st10{fill:#515A5D;stroke:#515A5D;stroke-width:2;stroke-miterlimit:10;}
	.st11{fill:#A6E0DD;}
	.st12{fill:none;stroke:#515A5D;stroke-width:5;stroke-linecap:round;stroke-linejoin:round;stroke-miterlimit:10;}
</style>
<g>
	<g>
		<g>
			<g>
				<path class="st8" d="M3.2,87.4c-1.4,0-2.5-1.1-2.5-2.5v-77c0-3,2.5-5.5,5.7-5.5h88.5c3.1,0,5.7,2.5,5.7,5.5v74.3
					c0,1.4-1.1,2.5-2.5,2.5s-2.5-1.1-2.5-2.5V7.9c0-0.2-0.3-0.5-0.7-0.5H6.3c-0.4,0-0.7,0.3-0.7,0.5v77C5.7,86.2,4.5,87.4,3.2,87.4z
					"/>
			</g>
		</g>
		<g>
			<g>
				<path class="st8" d="M78.1,57.9H20.3c-1.4,0-2.5-1.1-2.5-2.5s1.1-2.5,2.5-2.5h57.8c1.4,0,2.5,1.1,2.5,2.5S79.5,57.9,78.1,57.9z"
					/>
			</g>
		</g>
		<g>
			<g>
				<path class="st8" d="M58.4,75.3H20.3c-1.4,0-2.5-1.1-2.5-2.5s1.1-2.5,2.5-2.5h38.1c1.4,0,2.5,1.1,2.5,2.5S59.8,75.3,58.4,75.3z"
					/>
			</g>
		</g>
		<g>
			<g>
				<path class="st11" d="M67.8,36.6H34.5c-1.7,0-3-1.3-3-3v-10c0-1.7,1.3-3,3-3h33.3c1.7,0,3,1.3,3,3v10
					C70.8,35.3,69.4,36.6,67.8,36.6z"/>
			</g>
		</g>
	</g>
	<g>
		<g>
			<path class="st8" d="M128.9,147.6H52.8c-0.8,0-1.6-0.4-2-1.1c-0.5-0.7-0.6-1.5-0.3-2.3l18.6-51c0.4-1,1.3-1.6,2.3-1.6h76.1
				c0.8,0,1.6,0.4,2,1.1c0.5,0.7,0.6,1.5,0.3,2.3l-18.6,51C130.9,147,130,147.6,128.9,147.6z M56.4,142.6h70.8l16.8-46H73.2
				L56.4,142.6z"/>
		</g>
		<g>
			<path class="st8" d="M100.2,122.1c-0.6,0-1.2-0.2-1.7-0.6L69.7,96c-0.8-0.7-1-1.8-0.7-2.8c0.4-1,1.3-1.6,2.3-1.6h76.1
				c1.1,0,2.1,0.8,2.4,1.9c0.3,1.1-0.2,2.3-1.2,2.8l-47.3,25.5C101,122,100.6,122.1,100.2,122.1z M78,96.6l22.5,20l37.1-20H78z"/>
		</g>
		<g>
			<path class="st8" d="M128.9,147.6H52.8c-1.1,0-2.1-0.7-2.4-1.8c-0.3-1,0.1-2.2,1-2.8L93.1,114c1.1-0.8,2.7-0.5,3.5,0.6
				c0.8,1.1,0.5,2.7-0.6,3.5l-35.2,24.6h63.3l-17.7-25.2c-0.8-1.1-0.5-2.7,0.6-3.5c1.1-0.8,2.7-0.5,3.5,0.6l20.5,29.1
				c0.5,0.8,0.6,1.8,0.2,2.6C130.7,147.1,129.9,147.6,128.9,147.6z"/>
		</g>
	</g>
	<g>
		<path class="st3" d="M56.7,105.2H15.2c-1.4,0-2.5-1.1-2.5-2.5s1.1-2.5,2.5-2.5h41.5c1.4,0,2.5,1.1,2.5,2.5S58.1,105.2,56.7,105.2z
			"/>
	</g>
	<g>
		<path class="st3" d="M50.1,121.1H8.6c-1.4,0-2.5-1.1-2.5-2.5s1.1-2.5,2.5-2.5h41.5c1.4,0,2.5,1.1,2.5,2.5S51.5,121.1,50.1,121.1z"
			/>
	</g>
	<g>
		<path class="st3" d="M43.5,137.1H27.8c-1.4,0-2.5-1.1-2.5-2.5s1.1-2.5,2.5-2.5h15.6c1.4,0,2.5,1.1,2.5,2.5S44.8,137.1,43.5,137.1z
			"/>
	</g>
	<g>
		<path class="st3" d="M17,137.1h-2.5c-1.4,0-2.5-1.1-2.5-2.5s1.1-2.5,2.5-2.5H17c1.4,0,2.5,1.1,2.5,2.5S18.4,137.1,17,137.1z"/>
	</g>
	<g>
		<path class="st3" d="M5,137.1H2.5c-1.4,0-2.5-1.1-2.5-2.5s1.1-2.5,2.5-2.5H5c1.4,0,2.5,1.1,2.5,2.5S6.4,137.1,5,137.1z"/>
	</g>
</g>
</svg>
