<?xml version="1.0" encoding="utf-8"?>
<!-- Generator: Adobe Illustrator 21.1.0, SVG Export Plug-In . SVG Version: 6.00 Build 0)  -->
<svg version="1.1" id="Layer_1" xmlns="http://www.w3.org/2000/svg" xmlns:xlink="http://www.w3.org/1999/xlink" x="0px" y="0px"
	 viewBox="0 0 150 150" style="enable-background:new 0 0 150 150;" xml:space="preserve">
<style type="text/css">
	.st0{fill:#FFFFFF;}
	.st1{fill:#F4F4F4;}
	.st2{fill:#282828;}
	.st3{fill:#12D1DB;}
	.st4{display:none;}
	.st5{display:inline;}
	.st6{display:inline;fill:none;stroke:#000000;stroke-width:1.2;stroke-miterlimit:10;}
	.st7{fill:#393C44;}
	.st8{fill:#515A5D;}
	.st9{fill:#12D1DB;stroke:#12D1DB;stroke-miterlimit:10;}
	.st10{fill:#515A5D;stroke:#515A5D;stroke-width:2;stroke-miterlimit:10;}
	.st11{fill:#A6E0DD;}
</style>
<g>
	<g>
		<g>
			<path class="st8" d="M59.3,148.5l-1.2-1.5c-1.9-2.3-46.4-56.4-46.4-94.2C11.6,24.2,33,1,59.3,1S107,24.2,107,52.8
				c0,2.7-0.2,5.5-0.7,8.4l-3.2-0.5c0.4-2.8,0.6-5.5,0.6-8c0-26.8-19.9-48.5-44.4-48.5S14.9,26,14.9,52.8
				c0,33.2,37.1,81.4,44.4,90.6c0.6-0.7,1.3-1.6,2.1-2.7l2.6,2c-2.1,2.7-3.4,4.3-3.4,4.3L59.3,148.5z M59.3,70.4c-11,0-20-9-20-20
				s9-20,20-20s20,9,20,20S70.3,70.4,59.3,70.4z M59.3,33.6c-9.2,0-16.8,7.5-16.8,16.8s7.5,16.8,16.8,16.8s16.8-7.5,16.8-16.8
				S68.5,33.6,59.3,33.6z"/>
			<path class="st8" d="M59.3,150l-2-2.4c-1.9-2.3-46.7-56.7-46.7-94.8C10.7,23.7,32.5,0,59.3,0C86.1,0,108,23.7,108,52.8
				c0,2.7-0.2,5.6-0.7,8.6l-0.1,1l-5.1-0.8l0.1-1c0.4-2.7,0.6-5.4,0.6-7.8c0-26.2-19.5-47.6-43.5-47.6S15.9,26.5,15.9,52.8
				c0,31.8,34.6,77.8,43.5,89c0.4-0.5,0.9-1.1,1.4-1.7l0.6-0.8l4.1,3.2l-0.6,0.8c-2.2,2.8-3.5,4.3-3.5,4.4L59.3,150z M59.3,2
				C33.6,2,12.6,24.8,12.6,52.8c0,37.4,44.3,91.3,46.2,93.6l0.5,0.6l0.5-0.6c0,0,1-1.3,2.8-3.5l-1-0.8c-0.6,0.8-1.1,1.4-1.5,1.9
				l-0.8,1l-0.8-1c-7.5-9.4-44.7-57.7-44.7-91.2c0-27.3,20.4-49.5,45.4-49.5c25,0,45.4,22.2,45.4,49.5c0,2.3-0.2,4.6-0.5,7.1
				l1.3,0.2c0.3-2.6,0.5-5,0.5-7.3C106,24.8,85.1,2,59.3,2z M59.3,71.4c-11.6,0-21-9.4-21-21c0-11.6,9.4-21,21-21
				c11.6,0,21,9.4,21,21C80.3,62,70.9,71.4,59.3,71.4z M59.3,31.4c-10.5,0-19,8.5-19,19c0,10.5,8.5,19,19,19s19-8.5,19-19
				C78.3,39.9,69.8,31.4,59.3,31.4z M59.3,68.1c-9.8,0-17.7-8-17.7-17.7c0-9.8,8-17.7,17.7-17.7c9.8,0,17.7,8,17.7,17.7
				C77,60.2,69.1,68.1,59.3,68.1z M59.3,34.6c-8.7,0-15.8,7.1-15.8,15.8c0,8.7,7.1,15.8,15.8,15.8s15.8-7.1,15.8-15.8
				C75.1,41.7,68,34.6,59.3,34.6z"/>
		</g>
	</g>
	<path class="st3" d="M99.9,71c-21.8,0-39.5,17.7-39.5,39.5c0,21.8,17.7,39.5,39.5,39.5c21.8,0,39.5-17.7,39.5-39.5
		C139.3,88.7,121.7,71,99.9,71z M119.7,125.3l-5,5L100,115.6L84.6,131l-5.2-5.2l15.4-15.4L80.1,95.7l5-5l14.7,14.7L115.2,90l5.2,5.2
		L105,110.6L119.7,125.3z"/>
</g>
</svg>
