<?xml version="1.0" encoding="utf-8"?>
<!-- Generator: Adobe Illustrator 21.1.0, SVG Export Plug-In . SVG Version: 6.00 Build 0)  -->
<svg version="1.1" id="Layer_1" xmlns="http://www.w3.org/2000/svg" xmlns:xlink="http://www.w3.org/1999/xlink" x="0px" y="0px"
	 viewBox="0 0 150 150" style="enable-background:new 0 0 150 150;" xml:space="preserve">
<style type="text/css">
	.st0{fill:#FFFFFF;}
	.st1{fill:#F4F4F4;}
	.st2{fill:#282828;}
	.st3{fill:#12D1DB;}
	.st4{display:none;}
	.st5{display:inline;}
	.st6{display:inline;fill:none;stroke:#000000;stroke-width:1.2;stroke-miterlimit:10;}
	.st7{fill:#393C44;}
	.st8{fill:#515A5D;}
	.st9{fill:#12D1DB;stroke:#12D1DB;stroke-miterlimit:10;}
	.st10{fill:#515A5D;stroke:#515A5D;stroke-width:2;stroke-miterlimit:10;}
	.st11{fill:#A6E0DD;}
	.st12{fill:none;stroke:#515A5D;stroke-width:5;stroke-linecap:round;stroke-linejoin:round;stroke-miterlimit:10;}
</style>
<g>
	<g>
		<path class="st3" d="M75,85.1c7.5,0,13.6-6.1,13.6-13.6S82.5,57.9,75,57.9S61.4,64,61.4,71.5S67.5,85.1,75,85.1z M75,93.7
			c-8.7,0-26,5-26,15.1l8.9,7.5H92l9-7.5C101,98.7,83.7,93.7,75,93.7z"/>
	</g>
	<g>
		<path class="st8" d="M75,121.7c-22.3,0-40.4-18.1-40.4-40.4S52.7,41,75,41s40.4,18.1,40.4,40.4S97.3,121.7,75,121.7z M75,46.7
			c-19.1,0-34.7,15.5-34.7,34.7S55.9,116,75,116s34.7-15.5,34.7-34.7S94.1,46.7,75,46.7z"/>
	</g>
	<g>
		<path class="st8" d="M143.5,136.1H6.5c-3.6,0-6.5-3.1-6.5-6.9V37.5c0-3.8,2.9-6.9,6.5-6.9h32.2c1.5,0,3-0.6,4-1.7l9.7-10.4
			c2.7-2.9,6.6-4.6,10.6-4.6h24.5c4.1,0,8,1.8,10.8,4.8l9.1,10.1c1,1.2,2.5,1.8,4.1,1.8h32.1c3.6,0,6.5,3.1,6.5,6.9v91.8
			C150,133,147.1,136.1,143.5,136.1z M6.5,35.6c-0.8,0-1.5,0.9-1.5,1.9v91.8c0,1,0.7,1.9,1.5,1.9h137c0.8,0,1.5-0.9,1.5-1.9V37.5
			c0-1-0.7-1.9-1.5-1.9h-32.1c-3,0-5.8-1.3-7.8-3.5L94.5,22c-1.8-2-4.4-3.1-7.1-3.1H63c-2.6,0-5.2,1.1-6.9,3l-9.7,10.4
			c-2,2.1-4.8,3.3-7.7,3.3H6.5z"/>
	</g>
	<g>
		<path class="st8" d="M22,124.1H14c-1.1,0-2-0.9-2-2V119c0-1.1,0.9-2,2-2H22c1.1,0,2,0.9,2,2v3.1C24,123.2,23.1,124.1,22,124.1z"/>
	</g>
	<g>
		<circle class="st8" cx="129.5" cy="51.1" r="8"/>
	</g>
</g>
</svg>
