<?xml version="1.0" encoding="utf-8"?>
<!-- Generator: Adobe Illustrator 21.1.0, SVG Export Plug-In . SVG Version: 6.00 Build 0)  -->
<svg version="1.1" id="Layer_1" xmlns="http://www.w3.org/2000/svg" xmlns:xlink="http://www.w3.org/1999/xlink" x="0px" y="0px"
	 viewBox="0 0 150 150" style="enable-background:new 0 0 150 150;" xml:space="preserve">
<style type="text/css">
	.st0{fill:#FFFFFF;}
	.st1{fill:#F4F4F4;}
	.st2{fill:#282828;}
	.st3{fill:#12D1DB;}
	.st4{display:none;}
	.st5{display:inline;}
	.st6{display:inline;fill:none;stroke:#000000;stroke-width:1.2;stroke-miterlimit:10;}
	.st7{fill:#393C44;}
	.st8{fill:#515A5D;}
	.st9{fill:#12D1DB;stroke:#12D1DB;stroke-miterlimit:10;}
	.st10{fill:#515A5D;stroke:#515A5D;stroke-width:2;stroke-miterlimit:10;}
	.st11{fill:#A6E0DD;}
	.st12{fill:none;stroke:#515A5D;stroke-width:5;stroke-linecap:round;stroke-linejoin:round;stroke-miterlimit:10;}
</style>
<g>
	<g>
		<path class="st8" d="M78.9,54.6H20c-1.4,0-2.5-1.1-2.5-2.5s1.1-2.5,2.5-2.5h58.9c1.4,0,2.5,1.1,2.5,2.5S80.2,54.6,78.9,54.6z"/>
	</g>
	<g>
		<path class="st8" d="M41.6,74.3H20c-1.4,0-2.5-1.1-2.5-2.5s1.1-2.5,2.5-2.5h21.7c1.4,0,2.5,1.1,2.5,2.5S43,74.3,41.6,74.3z"/>
	</g>
	<g>
		<path class="st8" d="M71.9,34.5h-41V17.2h41V34.5z M31.8,33.5h39V18.2h-39V33.5z"/>
	</g>
	<g>
		<path class="st8" d="M118.6,52.4c-1.2,0-2.2-0.8-2.5-2c-0.9-4.8-7-5.5-7-5.5c-1.4-0.1-2.4-1.4-2.2-2.8c0.1-1.4,1.4-2.4,2.7-2.2
			c0.4,0,9.9,1.1,11.4,9.5c0.3,1.4-0.6,2.7-2,2.9C118.9,52.3,118.7,52.4,118.6,52.4z"/>
	</g>
	<path class="st8" d="M67.2,114.1H5.7c-0.4,0-0.7-0.3-0.7-0.5V5.5C5,5.3,5.3,5,5.7,5H96c0.4,0,0.7,0.3,0.7,0.5v26.2
		c0,1.4,1.1,2.5,2.5,2.5s2.5-1.1,2.5-2.5V5.5c0-3.1-2.6-5.5-5.7-5.5H5.7C2.6,0,0,2.5,0,5.5v108c0,3.1,2.6,5.5,5.7,5.5h62.5
		C67.8,117.5,67.5,115.8,67.2,114.1z"/>
	<path class="st8" d="M68.1,98.4c0.3-1,0.5-2,0.9-3c-0.3-0.5-0.8-0.8-1.5-0.9c-0.9-0.1-1.7-0.1-2.6-0.1c-0.7,0-1.2,0-2,0l-0.8,0
		c-1.5,0-2.7,0-2.9,0c-1.6-0.1-2.9-0.6-3.8-1c-0.4-0.2-1.2-0.5-1.9-0.4c-0.6-0.3-1.3-0.6-2.1-0.8c-1.9-0.4-3.9,0.2-5.3,1.1
		c-0.5-0.3-1-0.5-1.7-0.6c-1.2-0.1-2,0.5-2.6,1c-0.4,0.3-0.8,0.6-1.5,1.1c0,0-0.1,0-0.1,0.1c-0.5-2.1-2.1-4.1-4.1-4.3
		c-2.2-0.1-3.5,1.9-4.2,3c0,0,0,0.1-0.1,0.1c0,0,0,0,0-0.1c-1.2-5-2-6.7-3.7-7.3c-2.7-1.1-5.4,1.1-6.4,2c-4.8,3.9-5.7,10.5-5.8,14.1
		c0,1.1,0.8,2,1.9,2.1c0,0,0,0,0.1,0c1.1,0,2-0.9,2-1.9c0.1-2.9,0.8-8.1,4.4-11.1c1.4-1.2,2.1-1.3,2.3-1.4c0.2,0.3,0.6,1.4,1.4,4.5
		c0.3,1.4,0.6,2.7,0.8,3.8c0.6,3.2,0.9,4.7,2.9,4.7c1.8-0.1,2.1-1.8,2.2-2.7c0.2-1.1,0.4-2.9,1.5-4.6c0.1-0.2,0.4-0.6,0.6-0.9
		c0.2,0.3,0.4,0.8,0.4,1.2c0,0.2,0,0.4-0.1,0.6c-0.1,0.5-0.3,1.7,0.8,2.6c1.6,1.4,3.6,0.1,5.4-1.1c0.6-0.4,1.1-0.7,1.4-1
		c0.3,1.1,1.1,1.9,1.9,2.2c0.8,0.3,1.6,0.2,2.2-0.3c0.3-0.3,1.1-1.1,0.6-2.5c0-0.1,0-0.1-0.1-0.2c0.6-0.3,1.4-0.5,2.1-0.4
		c0.8,0.2,1.6,0.8,2.1,1.1c1.2,1,2.1,0.7,2.7,0.4c0.9,0.3,2.1,0.6,3.5,0.7c0.3,0,1,0,3.2,0l0.8,0c0.7,0,1.2,0,1.9,0
		c0.8,0,1.6,0.1,2.4,0.1C67.5,98.5,67.8,98.5,68.1,98.4z"/>
	<path class="st8" d="M68.3,97.6c1-3.6,2.4-7,4.2-10.1l0-1.7l46.7-51.6l0.2,0c3,0.2,5.6,2.5,6.1,5.5l0.1,0.4l-24.9,27.5
		c2.4-0.4,4.9-0.7,7.4-0.7L131,41.6l-0.5-2.8c-0.9-5.3-5.4-9.3-10.8-9.6l-2.6-0.1L67.5,83.9l0.1,13.8L68.3,97.6z"/>
	<path class="st3" d="M110.5,71.1c-21.8,0-39.5,17.7-39.5,39.5c0,21.8,17.7,39.5,39.5,39.5c21.8,0,39.5-17.7,39.5-39.5
		C150,88.7,132.3,71.1,110.5,71.1z M130.4,125.3l-5,5l-14.7-14.7l-15.4,15.4l-5.2-5.2l15.4-15.4L90.8,95.8l5-5l14.7,14.7L125.9,90
		l5.2,5.2l-15.4,15.4L130.4,125.3z"/>
</g>
</svg>
