<?xml version="1.0" encoding="utf-8"?>
<!-- Generator: Adobe Illustrator 21.1.0, SVG Export Plug-In . SVG Version: 6.00 Build 0)  -->
<svg version="1.1" id="Layer_1" xmlns="http://www.w3.org/2000/svg" xmlns:xlink="http://www.w3.org/1999/xlink" x="0px" y="0px"
	 viewBox="0 0 150 150" style="enable-background:new 0 0 150 150;" xml:space="preserve">
<style type="text/css">
	.st0{fill:#FFFFFF;}
	.st1{fill:#F4F4F4;}
	.st2{fill:#282828;}
	.st3{fill:#12D1DB;}
	.st4{display:none;}
	.st5{display:inline;}
	.st6{display:inline;fill:none;stroke:#000000;stroke-width:1.2;stroke-miterlimit:10;}
	.st7{fill:#393C44;}
	.st8{fill:#515A5D;}
	.st9{fill:#12D1DB;stroke:#12D1DB;stroke-miterlimit:10;}
	.st10{fill:#515A5D;stroke:#515A5D;stroke-width:2;stroke-miterlimit:10;}
	.st11{fill:#A6E0DD;}
	.st12{fill:none;stroke:#515A5D;stroke-width:5;stroke-linecap:round;stroke-linejoin:round;stroke-miterlimit:10;}
</style>
<g>
	<g>
		<path class="st3" d="M20.3,43.6c-0.1,0-0.2,0-0.3,0c-1.4-0.1-2.4-1.4-2.2-2.7C19,29.5,26.9,21,37.1,20c1.4-0.1,2.6,0.9,2.7,2.3
			c0.1,1.4-0.9,2.6-2.3,2.7c-7.8,0.7-13.8,7.4-14.7,16.3C22.7,42.6,21.6,43.6,20.3,43.6z"/>
	</g>
	<g>
		<path class="st3" d="M2.5,44.6c-1.4,0-2.5-1.1-2.5-2.5C0,21.2,15.3,4.2,34.1,4.2c1.4,0,2.5,1.1,2.5,2.5s-1.1,2.5-2.5,2.5
			C18.1,9.2,5,24,5,42.1C5,43.4,3.9,44.6,2.5,44.6z"/>
	</g>
	<g>
		<path class="st3" d="M129.7,43.6c-1.3,0-2.4-1-2.5-2.2c-0.9-8.9-7-15.6-14.7-16.3c-1.4-0.1-2.4-1.3-2.3-2.7
			c0.1-1.4,1.4-2.4,2.7-2.3c10.2,1,18.1,9.5,19.2,20.8c0.1,1.4-0.9,2.6-2.2,2.7C129.9,43.6,129.8,43.6,129.7,43.6z"/>
	</g>
	<g>
		<path class="st3" d="M147.5,44.6c-1.4,0-2.5-1.1-2.5-2.5c0-18.1-13.1-32.8-29.1-32.8c-1.4,0-2.5-1.1-2.5-2.5s1.1-2.5,2.5-2.5
			c18.8,0,34.1,17,34.1,37.8C150,43.4,148.9,44.6,147.5,44.6z"/>
	</g>
	<g>
		<path class="st8" d="M127.8,128H22.5c-0.7,0-1.4-0.3-1.8-0.8s-0.7-1.2-0.6-1.9c1.1-11.9,9.3-17.2,15-18.8V74.9
			c0-5.8,1-11.4,2.9-16.4c9.5-25.3,34.6-24.4,37.3-24.2c2.8-0.2,27.8-1.1,37.3,24.2c1.9,5,2.9,10.5,2.9,16.4v31.5
			c5.6,1.6,13.9,6.9,15,18.8c0.1,0.7-0.2,1.4-0.6,1.9S128.5,128,127.8,128z M25.4,123h99.5c-2.4-10.5-11.9-11.9-12.4-12
			c-1.2-0.2-2.2-1.2-2.2-2.5V74.9c0-5.2-0.9-10.2-2.5-14.6c-8.7-23-31.4-21.1-32.4-21c0,0,0,0-0.1,0c-0.1,0-0.3,0-0.4,0
			c-1-0.1-23.7-2-32.4,21c-1.7,4.5-2.5,9.4-2.5,14.6v33.5c0,1.3-0.9,2.3-2.2,2.5C37.3,111,27.7,112.5,25.4,123z"/>
	</g>
	<g>
		<path class="st8" d="M87.6,39c-1.4,0-2.5-1.1-2.5-2.5c0-5.5-4.5-9.9-9.9-9.9s-10,4.5-10,9.9c0,1.4-1.1,2.5-2.5,2.5
			s-2.5-1.1-2.5-2.5c0-8.2,6.7-14.9,15-14.9s14.9,6.7,14.9,14.9C90.1,37.8,88.9,39,87.6,39z"/>
	</g>
	<g>
		<path class="st8" d="M75.1,145.8c-11.7,0-21.2-9-21.2-20c0-1.4,1.1-2.5,2.5-2.5s2.5,1.1,2.5,2.5c0,8.3,7.3,15,16.2,15
			c8.9,0,16.2-6.7,16.2-15c0-1.4,1.1-2.5,2.5-2.5s2.5,1.1,2.5,2.5C96.3,136.8,86.8,145.8,75.1,145.8z"/>
	</g>
</g>
</svg>
