<?xml version="1.0" encoding="utf-8"?>
<!-- Generator: Adobe Illustrator 21.1.0, SVG Export Plug-In . SVG Version: 6.00 Build 0)  -->
<svg version="1.1" id="Layer_1" xmlns="http://www.w3.org/2000/svg" xmlns:xlink="http://www.w3.org/1999/xlink" x="0px" y="0px"
	 viewBox="0 0 150 150" style="enable-background:new 0 0 150 150;" xml:space="preserve">
<style type="text/css">
	.st0{fill:#FFFFFF;}
	.st1{fill:#F4F4F4;}
	.st2{fill:#282828;}
	.st3{fill:#12D1DB;}
	.st4{display:none;}
	.st5{display:inline;}
	.st6{display:inline;fill:none;stroke:#000000;stroke-width:1.2;stroke-miterlimit:10;}
	.st7{fill:#393C44;}
	.st8{fill:#515A5D;}
	.st9{fill:#12D1DB;stroke:#12D1DB;stroke-miterlimit:10;}
	.st10{fill:#515A5D;stroke:#515A5D;stroke-width:2;stroke-miterlimit:10;}
	.st11{fill:#A6E0DD;}
</style>
<g>
	<g>
		<g>
			<path d="M75,140.7c-5.1,0-9.3-4.2-9.3-9.3c0-5.1,4.2-9.3,9.3-9.3s9.3,4.2,9.3,9.3C84.3,136.5,80.1,140.7,75,140.7z M75,124.9
				c-3.6,0-6.5,2.9-6.5,6.5c0,3.6,2.9,6.5,6.5,6.5s6.5-2.9,6.5-6.5C81.5,127.8,78.6,124.9,75,124.9z"/>
		</g>
	</g>
	<g>
		<rect x="49" y="90.4" width="52" height="6.6"/>
	</g>
	<g>
		<g>
			<polygon points="99.7,69.3 95.1,69.3 95.1,66.2 96.6,66.2 96.6,64.7 99.7,64.7 			"/>
		</g>
		<g>
			<path d="M89.4,69.3h-5.7v-3h5.7V69.3z M77.9,69.3h-5.7v-3h5.7V69.3z M66.4,69.3h-5.7v-3h5.7V69.3z"/>
		</g>
		<g>
			<polygon points="54.9,69.3 50.3,69.3 50.3,64.7 53.4,64.7 53.4,66.2 54.9,66.2 			"/>
		</g>
		<g>
			<path d="M53.4,59h-3v-5.7h3V59z M53.4,47.6h-3v-5.7h3V47.6z"/>
		</g>
		<g>
			<polygon points="53.4,36.1 50.3,36.1 50.3,31.6 54.9,31.6 54.9,34.6 53.4,34.6 			"/>
		</g>
		<g>
			<path d="M89.4,34.6h-5.7v-3h5.7V34.6z M77.9,34.6h-5.7v-3h5.7V34.6z M66.4,34.6h-5.7v-3h5.7V34.6z"/>
		</g>
		<g>
			<polygon points="99.7,36.1 96.6,36.1 96.6,34.6 95.1,34.6 95.1,31.6 99.7,31.6 			"/>
		</g>
		<g>
			<path d="M99.7,59h-3v-5.7h3V59z M99.7,47.6h-3v-5.7h3V47.6z"/>
		</g>
	</g>
	<g>
		<path d="M120.3,150H29.7c-10,0-18.1-8.1-18.1-18.1V8.1c0-4.4,3.6-8.1,8.1-8.1h110.8c4.4,0,8.1,3.6,8.1,8.1v123.8
			C138.5,141.9,130.3,150,120.3,150z M19.6,6c-1.1,0-2,0.9-2,2v123.8c0,6.7,5.4,12.1,12.1,12.1h90.7c6.7,0,12.1-5.4,12.1-12.1V8.1
			c0-1.1-0.9-2-2-2H19.6z"/>
	</g>
	<g>
		<path d="M111.3,115.8H38.7c-3.9,0-7-3.2-7-7V24.4c0-3.3,2.7-6,6-6h74.6c3.3,0,6,2.7,6,6v84.3C118.4,112.6,115.2,115.8,111.3,115.8
			z M37.7,24.4v84.3c0,0.6,0.5,1,1,1h72.6c0.6,0,1-0.5,1-1V24.4H37.7z"/>
	</g>
</g>
</svg>
