<?xml version="1.0" encoding="utf-8"?>
<!-- Generator: Adobe Illustrator 21.1.0, SVG Export Plug-In . SVG Version: 6.00 Build 0)  -->
<svg version="1.1" id="Layer_1" xmlns="http://www.w3.org/2000/svg" xmlns:xlink="http://www.w3.org/1999/xlink" x="0px" y="0px"
	 viewBox="0 0 150 150" style="enable-background:new 0 0 150 150;" xml:space="preserve">
<style type="text/css">
	.st0{fill:#FFFFFF;}
	.st1{fill:#F4F4F4;}
	.st2{fill:#282828;}
	.st3{fill:#12D1DB;}
	.st4{display:none;}
	.st5{display:inline;}
	.st6{display:inline;fill:none;stroke:#000000;stroke-width:1.2;stroke-miterlimit:10;}
	.st7{fill:#393C44;}
	.st8{fill:#515A5D;}
	.st9{fill:#12D1DB;stroke:#12D1DB;stroke-miterlimit:10;}
	.st10{fill:#515A5D;stroke:#515A5D;stroke-width:2;stroke-miterlimit:10;}
	.st11{fill:#A6E0DD;}
	.st12{fill:none;stroke:#515A5D;stroke-width:5;stroke-linecap:round;stroke-linejoin:round;stroke-miterlimit:10;}
</style>
<g>
	<g>
		<path class="st8" d="M130.8,150H19.2c-6.9,0-12.5-5.6-12.5-12.5v-125C6.7,5.6,12.3,0,19.2,0h111.7c6.9,0,12.5,5.6,12.5,12.5v125
			C143.3,144.4,137.7,150,130.8,150z M19.2,5c-4.1,0-7.5,3.4-7.5,7.5v125c0,4.1,3.4,7.5,7.5,7.5h111.7c4.1,0,7.5-3.4,7.5-7.5v-125
			c0-4.1-3.4-7.5-7.5-7.5H19.2z"/>
	</g>
	<g>
		<path class="st8" d="M121.6,132.7H25.2c-14,0-18.5-15.7-18.5-23.3h5c0,3.6,2.4,18.3,13.5,18.3h96.4c16.3,0,16.7-18.2,16.7-18.3h5
			C143.3,115.4,139.3,132.7,121.6,132.7z"/>
	</g>
	<g>
		<path class="st3" d="M119.8,24.5H30.2c-2.8,0-5,2.2-5,5v71.1c0,2.8,2.2,5,5,5h89.7c2.8,0,5-2.2,5-5V29.5
			C124.8,26.7,122.6,24.5,119.8,24.5z M75,35c7.8,0,14.2,6.3,14.2,14.2S82.8,63.3,75,63.3c-7.8,0-14.2-6.3-14.2-14.2S67.2,35,75,35z
			 M100.3,91.7H49.7v-7.1c0-9.4,16.9-14.2,25.3-14.2c8.4,0,25.3,4.7,25.3,14.2V91.7z"/>
	</g>
</g>
</svg>
