<?xml version="1.0" encoding="utf-8"?>
<!-- Generator: Adobe Illustrator 21.0.2, SVG Export Plug-In . SVG Version: 6.00 Build 0)  -->
<svg version="1.1" id="Layer_1" xmlns="http://www.w3.org/2000/svg" xmlns:xlink="http://www.w3.org/1999/xlink" x="0px" y="0px"
	 viewBox="0 0 150 150" style="enable-background:new 0 0 150 150;" xml:space="preserve">
<style type="text/css">
	.st0{fill:#FFFFFF;}
	.st1{fill:#F4F4F4;}
	.st2{fill:#282828;}
	.st3{fill:#12D1DB;}
	.st4{display:none;}
	.st5{display:inline;}
	.st6{display:inline;fill:none;stroke:#000000;stroke-width:1.2;stroke-miterlimit:10;}
	.st7{fill:#393C44;}
</style>
<g>
	<g>
		<path class="st7" d="M111.8,119.2c-0.4,0-0.8-0.1-1.2-0.2c-1.4-0.5-2.3-1.8-2.3-3.3v-23H32.4c-2,0-3.5-1.6-3.5-3.5V60.9
			c0-2,1.6-3.5,3.5-3.5h75.9v-23c0-1.5,0.9-2.8,2.3-3.3c1.4-0.5,3-0.1,3.9,1l34.6,40.7c1.1,1.3,1.1,3.3,0,4.6L114.5,118
			C113.8,118.8,112.8,119.2,111.8,119.2z M36,85.6h75.9c2,0,3.5,1.6,3.5,3.5V106l26.4-31l-26.4-31v16.9c0,2-1.6,3.5-3.5,3.5H36V85.6
			z"/>
	</g>
	<g>
		<path class="st7" d="M78,150H3.8c-2.1,0-3.8-1.5-3.8-3.4V3.4C0,1.5,1.7,0,3.8,0H78c2.1,0,3.8,1.5,3.8,3.4v28.7
			c0,1.9-1.7,3.4-3.8,3.4s-3.8-1.5-3.8-3.4V7.8H8.8v133.8h65.4V120c0-1.9,1.7-3.4,3.8-3.4s3.8,1.5,3.8,3.4v26.6
			C81.8,148.5,80.1,150,78,150z"/>
	</g>
</g>
</svg>
