<?xml version="1.0" encoding="utf-8"?>
<!-- Generator: Adobe Illustrator 21.1.0, SVG Export Plug-In . SVG Version: 6.00 Build 0)  -->
<svg version="1.1" id="Layer_1" xmlns="http://www.w3.org/2000/svg" xmlns:xlink="http://www.w3.org/1999/xlink" x="0px" y="0px"
	 viewBox="0 0 150 150" style="enable-background:new 0 0 150 150;" xml:space="preserve">
<style type="text/css">
	.st0{fill:#FFFFFF;}
	.st1{fill:#F4F4F4;}
	.st2{fill:#282828;}
	.st3{fill:#12D1DB;}
	.st4{display:none;}
	.st5{display:inline;}
	.st6{display:inline;fill:none;stroke:#000000;stroke-width:1.2;stroke-miterlimit:10;}
	.st7{fill:#393C44;}
	.st8{fill:#515A5D;}
	.st9{fill:#12D1DB;stroke:#12D1DB;stroke-miterlimit:10;}
	.st10{fill:#515A5D;stroke:#515A5D;stroke-width:2;stroke-miterlimit:10;}
	.st11{fill:#A6E0DD;}
	.st12{fill:none;stroke:#515A5D;stroke-width:5;stroke-linecap:round;stroke-linejoin:round;stroke-miterlimit:10;}
	.st13{fill:#57F7FF;}
	.st14{fill:#5B6466;}
	.st15{fill:#9FC9C9;}
	.st16{fill:none;}
	.st17{fill:#959899;}
</style>
<g>
	<g>
		<path d="M126.6,150H23.4c-7.1,0-12.6-4.4-12.6-10V10c0-5.6,5.5-10,12.6-10h103.2c7.1,0,12.6,4.4,12.6,10V140
			C139.2,145.6,133.7,150,126.6,150z M23.4,6c-3.9,0-6.6,2.1-6.6,4V140c0,1.9,2.7,4,6.6,4h103.2c3.9,0,6.6-2.1,6.6-4V10
			c0-1.9-2.7-4-6.6-4H23.4z"/>
	</g>
	<g>
		<path d="M115.6,114.9H34.4c-1.7,0-3-1.3-3-3V19.6c0-1.7,1.3-3,3-3h81.2c1.7,0,3,1.3,3,3v92.4C118.6,113.6,117.3,114.9,115.6,114.9
			z M37.4,108.9h75.2V22.6H37.4V108.9z"/>
	</g>
	<g>
		<circle cx="75" cy="129.7" r="7.6"/>
	</g>
</g>
</svg>
