<?xml version="1.0" encoding="utf-8"?>
<!-- Generator: Adobe Illustrator 21.1.0, SVG Export Plug-In . SVG Version: 6.00 Build 0)  -->
<svg version="1.1" id="Layer_1" xmlns="http://www.w3.org/2000/svg" xmlns:xlink="http://www.w3.org/1999/xlink" x="0px" y="0px"
	 viewBox="0 0 150 150" style="enable-background:new 0 0 150 150;" xml:space="preserve">
<style type="text/css">
	.st0{fill:#FFFFFF;}
	.st1{fill:#F4F4F4;}
	.st2{fill:#282828;}
	.st3{fill:#12D1DB;}
	.st4{display:none;}
	.st5{display:inline;}
	.st6{display:inline;fill:none;stroke:#000000;stroke-width:1.2;stroke-miterlimit:10;}
	.st7{fill:#393C44;}
	.st8{fill:#515A5D;}
	.st9{fill:#12D1DB;stroke:#12D1DB;stroke-miterlimit:10;}
	.st10{fill:#515A5D;stroke:#515A5D;stroke-width:2;stroke-miterlimit:10;}
	.st11{fill:#A6E0DD;}
	.st12{fill:none;stroke:#515A5D;stroke-width:5;stroke-linecap:round;stroke-linejoin:round;stroke-miterlimit:10;}
</style>
<g>
	<g>
		<path class="st8" d="M115,146.1H6.4c-3.5,0-6.4-2.8-6.4-6.2V10c0-3.4,2.9-6.2,6.4-6.2H115c3.5,0,6.4,2.8,6.4,6.2v31.5
			c0,1.4-1.1,2.5-2.5,2.5c-1.4,0-2.5-1.1-2.5-2.5V10c0-0.6-0.6-1.1-1.4-1.1H6.4C5.7,8.9,5,9.4,5,10v130c0,0.6,0.6,1.1,1.4,1.1H115
			c0.8,0,1.4-0.5,1.4-1.1v-35.2c0-1.4,1.1-2.5,2.5-2.5c1.4,0,2.5,1.1,2.5,2.5V140C121.4,143.4,118.5,146.1,115,146.1z"/>
	</g>
	<g>
		<path class="st8" d="M70,82.5H23.5c-1.4,0-2.5-1.1-2.5-2.5c0-1.4,1.1-2.5,2.5-2.5H70c1.4,0,2.5,1.1,2.5,2.5
			C72.5,81.4,71.4,82.5,70,82.5z"/>
	</g>
	<g>
		<path class="st8" d="M94.4,65H23.5c-1.4,0-2.5-1.1-2.5-2.5c0-1.4,1.1-2.5,2.5-2.5h70.8c1.4,0,2.5,1.1,2.5,2.5
			C96.9,63.9,95.8,65,94.4,65z"/>
	</g>
	<g>
		<path class="st8" d="M49.6,100H23.5c-1.4,0-2.5-1.1-2.5-2.5s1.1-2.5,2.5-2.5h26.1c1.4,0,2.5,1.1,2.5,2.5S51,100,49.6,100z"/>
	</g>
	<g>
		<path class="st8" d="M21,133.3C21,133.3,21,133.3,21,133.3c-1.5,0-2.6-1.2-2.5-2.6c0.1-4.3,1.2-12.2,7.1-17c1.2-1,4.5-3.7,7.8-2.4
			c2.1,0.8,3.1,2.8,4.5,8.7c0.9-1.4,2.4-3.8,5.1-3.6c2.4,0.1,4.3,2.5,5,5c0,0,0,0,0,0c0.8-0.5,1.4-0.9,1.8-1.3
			c0.8-0.6,1.7-1.4,3.3-1.3c0.7,0.1,1.4,0.3,2,0.7c1.7-1,4.1-1.7,6.4-1.3c0.9,0.2,1.8,0.5,2.5,0.9c0.9,0,1.8,0.3,2.3,0.5
			c1,0.4,2.6,1,4.5,1.2c0.3,0,1.8,0,3.5,0l1,0c0.9,0,1.6,0,2.4,0c1.1,0,2.1,0.1,3.1,0.2c1.4,0.1,2.4,1.3,2.3,2.7
			c-0.1,1.4-1.3,2.4-2.7,2.3c-0.9-0.1-1.9-0.1-2.8-0.2c-0.8,0-1.4,0-2.2,0l-1,0c-2.5,0-3.4,0-3.8,0c-1.6-0.1-3-0.5-4.2-0.8
			c-0.7,0.4-1.8,0.7-3.3-0.5c-0.5-0.4-1.5-1.2-2.4-1.4c-0.8-0.2-1.7,0.1-2.4,0.4c0,0.1,0,0.1,0,0.1c0.6,1.8-0.3,2.7-0.8,3.1
			c-0.8,0.6-1.8,0.8-2.8,0.3c-1-0.4-2-1.3-2.4-2.6c-0.4,0.3-0.9,0.7-1.6,1.1c-2.2,1.4-4.6,3-6.6,1.3c-1.3-1.1-1.1-2.6-1-3.2
			c0-0.2,0.1-0.4,0.1-0.6c0-0.5-0.2-1-0.4-1.3c-0.2,0.3-0.5,0.7-0.6,0.9c-1.3,2.1-1.6,4.2-1.8,5.5c-0.1,1-0.5,3.2-2.7,3.3
			c-2.4,0.1-2.8-2-3.6-5.7c-0.3-1.3-0.6-2.8-1-4.6c-0.8-3.7-1.4-4.9-1.6-5.4c-0.3,0-1.1,0.3-2.7,1.6c-4.3,3.5-5.1,9.8-5.2,13.2
			C23.5,132.3,22.4,133.3,21,133.3z"/>
	</g>
	<g>
		<rect x="37.2" y="22.5" class="st3" width="48.2" height="19.6"/>
	</g>
	<g>
		<g>
			<g>
				<path class="st8" d="M137.3,56.1l0.7,0.2c3.9,0.9,6.9,4.6,6.9,8.7l0,1l-66.5,52.3l-9.2-0.7l1.5-9.1L137.3,56.1 M136.1,50.7
					l-70,55L63.5,122l16.6,1.3l70-55l0-3.4c0-6.4-4.6-12.2-10.8-13.6L136.1,50.7L136.1,50.7z"/>
			</g>
		</g>
		<g>
			<path class="st8" d="M134.2,79.2c-1.4,0-2.5-1.1-2.5-2.5c-0.1-7.7-8.5-10.4-8.9-10.5c-1.3-0.4-2.1-1.8-1.7-3.1
				c0.4-1.3,1.8-2.1,3.1-1.7c0.5,0.1,12.3,3.8,12.5,15.2C136.8,78,135.7,79.2,134.2,79.2C134.3,79.2,134.3,79.2,134.2,79.2z"/>
		</g>
	</g>
</g>
</svg>
