<?xml version="1.0" encoding="utf-8"?>
<!-- Generator: Adobe Illustrator 21.1.0, SVG Export Plug-In . SVG Version: 6.00 Build 0)  -->
<svg version="1.1" id="Layer_1" xmlns="http://www.w3.org/2000/svg" xmlns:xlink="http://www.w3.org/1999/xlink" x="0px" y="0px"
	 viewBox="0 0 150 150" style="enable-background:new 0 0 150 150;" xml:space="preserve">
<style type="text/css">
	.st0{fill:#FFFFFF;}
	.st1{fill:#F4F4F4;}
	.st2{fill:#282828;}
	.st3{fill:#12D1DB;}
	.st4{display:none;}
	.st5{display:inline;}
	.st6{display:inline;fill:none;stroke:#000000;stroke-width:1.2;stroke-miterlimit:10;}
	.st7{fill:#393C44;}
	.st8{fill:#515A5D;}
	.st9{fill:#12D1DB;stroke:#12D1DB;stroke-miterlimit:10;}
	.st10{fill:#515A5D;stroke:#515A5D;stroke-width:2;stroke-miterlimit:10;}
	.st11{fill:#A6E0DD;}
</style>
<g>
	<g>
		<path class="st9" d="M134,132.7c0.3,4.9-5.6,10-9.9,11.5c-6.8,2.4-16.6,0.6-21.1-5.1c-3.4-4.3-3.8-9.2-4.4-14.4
			c-0.5-4.1-1.4-8.1-2.2-12.2c-1.4-6.5-6-12.8-13.4-12.1c-7.4,0.7-9.7,8.1-10.8,14.3c-0.8,4.6-1.9,8.8-4.1,12.9
			c-2.4,4.3-10.9,14.2-14.6,5.4c-1.8-4.3,0.6-10,0.5-14.6c-0.1-4.6-1.1-9.2-2.9-13.4c-3-7-9.5-9-16.2-5c-6.7,4-7.7,10.8-10.4,17.3
			c-2.9,6.7-8.5-0.7-10.5-4.4c-1.8-3.5-2.2-7.5-2.8-11.3c-0.5-3.1-5.2-1.8-4.7,1.3c1.2,7.1,2.7,14.5,8.4,19.6
			c5.3,4.7,11.3,2.9,13.9-3c1.1-2.4,1.7-5.1,2.6-7.6c1.1-2.8,2.5-5.2,5-7c5.3-3.9,9.5-1,11.3,4.7c1.8,5.6,1.5,10.9,0.7,16.6
			c-0.6,4.1-0.5,8.4,2.4,11.7c5.6,6.6,14.1,2.2,18.4-3.4c3-3.8,5.3-8.3,6.5-13c1.2-4.4,0.9-10.1,3.7-13.8c2.7-3.5,7.3-3,10,0.2
			c1.7,2,2.1,4.7,2.5,7.2c1,5,1.7,10,2.4,15.1c1,6.9,4.6,14.1,11.2,17.2c6,2.8,15.8,3.7,21.8,0.6c5.6-2.8,11.9-8.7,11.5-15.4
			C138.6,129.6,133.8,129.6,134,132.7L134,132.7z"/>
	</g>
	<g>
		<path class="st8" d="M34.6,25.7c5.7,10.8,14.8,24,25.4,37.1c16.5,20.4,33.3,36.2,43.4,41c-1.4,5.2-0.3,11.2,3.4,16.1
			c0.3,0.4,1.8,2.4,3.9,4.2c4.5,4,9.8,6.3,15.1,6.8c5.5,0.6,11-0.7,15.5-4c1.3-0.9,1.6-2.7,0.7-4.1c-2.8-4.1-4.7-8.8-5.5-13.6
			c-0.1-1-1.1-7.2-6.5-12.1c-3.8-3.4-8.7-5.1-13.4-4.6c-0.8,0.1-1.6,0.2-2.3,0.4C111,81.9,99.4,63.2,83.6,43.7
			C73,30.6,61.9,19,52.5,11.1c-11-9.2-18-12-22-8.8C26.6,5.5,27.9,13,34.6,25.7z M109.3,99.9c1.8-2.3,4.5-3.8,7.6-4.1
			c3.7-0.3,7.6,1,10.7,3.8c4.8,4.3,5.5,9.9,5.5,10c0,0.1,0,0.1,0,0.2l0,0c0.9,5.6,2.8,11,5.7,16c-7.6,3.7-17.5,2-24.9-4.6
			c-2.1-1.8-3.6-3.8-3.7-4C106.1,111.8,105.7,104.5,109.3,99.9z M88.7,90.2l15-13.3c3.7,6.4,7.2,12.6,8.3,16.6
			c-1.8,1.2-8.1,8.3-8.2,8.4C100.3,100.1,94.7,95.5,88.7,90.2z M77.6,79l17.8-15c1.8,2.7,5.7,8,7.2,10.5L86.3,88.4
			C84.3,86.4,79.9,81.4,77.6,79z M31.8,4c0.8,0,5.7-3.7,18.9,8.4c9.4,8,20.4,19.6,31,32.6c4.3,5.3,8.8,11.9,12.5,17L75.7,77.4
			c-4.1-4.5-8.8-10.4-13.2-15.8c-10.6-13-19.7-26.1-25.7-36.9C27.5,8.8,31.6,4.8,31.8,4z"/>
		<path class="st8" d="M128.4,132.1c-0.9,0-1.7,0-2.6-0.1c-5.7-0.6-11.1-3-15.7-7.1c-2.2-1.9-3.8-4-4.1-4.4
			c-3.6-4.8-5-10.7-3.8-16.2c-10.4-5.4-26.8-20.9-43-40.9C48.5,50.3,39.5,37,33.7,26.2l0,0c-7.1-13.4-8.3-21-3.8-24.6
			c4.5-3.6,11.7-0.9,23.3,8.8c9.4,7.9,20.5,19.5,31.2,32.7c15.3,18.8,26.9,37.4,30.6,48.8c0.5-0.1,1-0.2,1.6-0.2
			c5-0.5,10.2,1.3,14.2,4.9c5.7,5.1,6.7,11.5,6.9,12.7c0.7,4.6,2.6,9.1,5.3,13.1c1.2,1.8,0.8,4.2-0.9,5.5
			C138.1,130.6,133.3,132.1,128.4,132.1z M104,103l0.6,0.3l-0.2,0.8c-1.4,5-0.2,10.7,3.2,15.2c0.3,0.4,1.8,2.3,3.8,4.1
			c4.2,3.8,9.3,6,14.6,6.6c5.4,0.6,10.6-0.8,14.8-3.8c0.8-0.6,1-1.8,0.5-2.7c-2.9-4.2-4.9-9-5.7-14c-0.1-1.2-1-6.9-6.2-11.5
			c-3.6-3.2-8.2-4.8-12.7-4.4c-0.7,0.1-1.5,0.2-2.2,0.4l-0.9,0.2l-0.3-0.9c-3.3-11.1-15-29.8-30.5-49C72.2,31.2,61.2,19.7,51.9,11.9
			c-1-0.9-2-1.7-3-2.4c0.8,0.7,1.6,1.4,2.5,2.2c9.4,8.1,20.5,19.7,31.1,32.7c3.4,4.1,6.9,9.1,10,13.5c0.9,1.2,1.7,2.4,2.5,3.5
			l0.5,0.8l-20,16.6l-0.7-0.7c-3.4-3.7-7.2-8.4-10.9-12.9l-2.4-2.9c-10.6-13-19.8-26.2-25.8-37c-8.6-14.7-6-19.7-5.1-21.3
			c0-0.1,0.1-0.1,0.1-0.2l0.1-0.4c-3.2,3-1.7,10.1,4.6,21.9l0,0c5.7,10.7,14.7,23.9,25.3,37c14.3,17.7,29.2,32.2,39.4,38.7
			c-2.9-2-6.8-5.2-12.2-9.9l-0.8-0.8l16.8-14.9l0.6,1.1c3.6,6.2,7.3,12.7,8.4,16.8l0.2,0.7l-0.6,0.4c-1.5,1-7.4,7.5-8,8.2L104,103z
			 M90.2,90.2c4.2,3.7,9.7,8.4,13.3,10.4c1.5-1.6,5.3-5.9,7.3-7.5c-1.1-3.7-4.2-9.1-7.4-14.6L90.2,90.2z M32.5,4.8
			c-1.9,3.7-0.2,10.2,5.1,19.4c6,10.8,15,23.9,25.6,36.8l2.4,2.9c3.4,4.2,7,8.6,10.2,12.1l17-14.2c-0.6-0.9-1.3-1.8-2-2.8
			c-3.1-4.4-6.6-9.3-9.9-13.4C70.4,32.7,59.4,21.2,50,13.2C42.5,6.2,36.7,3.4,32.5,4.8C32.5,4.8,32.5,4.8,32.5,4.8z M34.8,2.4
			c1.2,0,2.8,0.2,4.8,1.1c-3.6-1.7-6.3-1.8-8.2-0.5l0.4,0c0.1,0,0.1,0,0.2-0.1C32.5,2.7,33.4,2.4,34.8,2.4z M130.2,128.7
			c-5.9,0-12-2.3-17-6.8c-2.1-1.8-3.6-3.8-3.9-4.2c-4.3-5.8-4.7-13.5-0.8-18.5l0,0c2-2.6,4.9-4.1,8.3-4.4c4-0.4,8.1,1.1,11.5,4
			c5,4.4,5.8,10.4,5.8,10.6l0,0.1c0.8,5.4,2.8,10.8,5.6,15.6l0.5,0.9l-1,0.5C136.4,128.1,133.3,128.7,130.2,128.7z M110.1,100.6
			c-3.3,4.2-3,11,0.8,16c0.2,0.2,1.6,2.1,3.6,3.9c6.8,6,15.6,7.9,22.8,4.9c-2.6-4.8-4.5-10.1-5.3-15.4c0-0.1,0-0.2,0-0.2
			c0-0.2-0.7-5.4-5.1-9.3c-2.9-2.6-6.5-3.9-9.9-3.5C114.2,97.1,111.8,98.4,110.1,100.6L110.1,100.6z M86.3,89.7l-0.7-0.6
			c-1.3-1.2-3.4-3.5-5.3-5.7c-1.3-1.4-2.5-2.7-3.4-3.7L76.2,79l19.4-16.4l0.6,0.9c0.6,0.9,1.4,2.1,2.3,3.3c1.8,2.6,3.9,5.5,4.9,7.2
			l0.5,0.7L86.3,89.7z M79.1,79.1c0.8,0.8,1.7,1.9,2.7,2.9c1.7,1.8,3.4,3.7,4.6,5l14.9-12.6c-1.1-1.7-2.8-4.2-4.4-6.4
			c-0.6-0.9-1.2-1.7-1.7-2.4L79.1,79.1z"/>
	</g>
	<g>
		<rect x="33.7" y="16.4" transform="matrix(0.7071 -0.7071 0.7071 0.7071 -0.337 36.0731)" class="st8" width="19.4" height="4"/>
	</g>
</g>
</svg>
