<?xml version="1.0" encoding="utf-8"?>
<!-- Generator: Adobe Illustrator 21.1.0, SVG Export Plug-In . SVG Version: 6.00 Build 0)  -->
<svg version="1.1" id="Layer_1" xmlns="http://www.w3.org/2000/svg" xmlns:xlink="http://www.w3.org/1999/xlink" x="0px" y="0px"
	 viewBox="0 0 150 150" style="enable-background:new 0 0 150 150;" xml:space="preserve">
<style type="text/css">
	.st0{fill:#FFFFFF;}
	.st1{fill:#F4F4F4;}
	.st2{fill:#282828;}
	.st3{fill:#12D1DB;}
	.st4{display:none;}
	.st5{display:inline;}
	.st6{display:inline;fill:none;stroke:#000000;stroke-width:1.2;stroke-miterlimit:10;}
	.st7{fill:#393C44;}
	.st8{fill:#515A5D;}
	.st9{fill:#12D1DB;stroke:#12D1DB;stroke-miterlimit:10;}
	.st10{fill:#515A5D;stroke:#515A5D;stroke-width:2;stroke-miterlimit:10;}
	.st11{fill:#A6E0DD;}
</style>
<g>
	<path class="st3" d="M49.4,0l0.4,11.8h34.5c6.1,0,7.5,1.6,7.5,7.7v43.1h37.1V0H49.4z"/>
	<g>
		<g>
			<path class="st8" d="M52.3,150c-9.8,0-13.1-8.8-13.4-13.6l0-0.3l5.2-39c0.5-2.9-0.4-5.2-2.7-6.8h-7.7c-6.9,0-12.5-5.6-12.5-12.5
				v-48c0-6.9,5.6-12.5,12.5-12.5h39.1c6.9,0,12.5,5.6,12.5,12.5v48c0,6.9-5.6,12.5-12.5,12.5h-8.8c-3.3,2.3-2.9,5.8-2.8,6.2
				l5.8,39.7l0,0.2c-0.2,10.3-9,13.3-13.6,13.4C53,150,52.6,150,52.3,150z M43.9,136.3c0.2,1.6,1.4,9.1,9.1,8.7
				c0.9,0,8.5-0.6,8.8-8.4l-5.7-39.3c0-0.3-1.2-7.5,5.7-11.6l0.6-0.4h10.2c4.1,0,7.5-3.4,7.5-7.5v-48c0-4.1-3.4-7.5-7.5-7.5H33.7
				c-4.1,0-7.5,3.4-7.5,7.5v48c0,4.1,3.4,7.5,7.5,7.5h9.2l0.6,0.4c4.4,2.6,6.4,7.1,5.6,12.2L43.9,136.3z"/>
		</g>
		<g>
			<circle class="st8" cx="53.2" cy="134.7" r="3.6"/>
		</g>
		<g>
			<rect x="23.7" y="56.2" class="st8" width="59.1" height="5"/>
		</g>
		<g>
			<path class="st8" d="M54.1,49.1L54.1,49.1c-1.4,0-2.5-1.1-2.5-2.5V23.4c0-1.4,1.1-2.5,2.5-2.5h0c1.4,0,2.5,1.1,2.5,2.5v23.2
				C56.6,48,55.5,49.1,54.1,49.1z"/>
		</g>
		<g>
			<path class="st8" d="M39.8,49.1L39.8,49.1c-1.4,0-2.5-1.1-2.5-2.5V23.4c0-1.4,1.1-2.5,2.5-2.5h0c1.4,0,2.5,1.1,2.5,2.5v23.2
				C42.3,48,41.2,49.1,39.8,49.1z"/>
		</g>
		<g>
			<path class="st8" d="M67,37.8L67,37.8c-1.4,0-2.5-1.1-2.5-2.5V23.4c0-1.4,1.1-2.5,2.5-2.5h0c1.4,0,2.5,1.1,2.5,2.5v11.9
				C69.5,36.6,68.3,37.8,67,37.8z"/>
		</g>
		<g>
			<path class="st8" d="M67,49.1L67,49.1c-1.4,0-2.5-1.1-2.5-2.5v-2.9c0-1.4,1.1-2.5,2.5-2.5l0,0c1.4,0,2.5,1.1,2.5,2.5v2.9
				C69.5,48,68.3,49.1,67,49.1z"/>
		</g>
	</g>
</g>
</svg>
