<?xml version="1.0" encoding="utf-8"?>
<!-- Generator: Adobe Illustrator 21.1.0, SVG Export Plug-In . SVG Version: 6.00 Build 0)  -->
<svg version="1.1" id="Layer_1" xmlns="http://www.w3.org/2000/svg" xmlns:xlink="http://www.w3.org/1999/xlink" x="0px" y="0px"
	 viewBox="0 0 150 150" style="enable-background:new 0 0 150 150;" xml:space="preserve">
<style type="text/css">
	.st0{fill:#FFFFFF;}
	.st1{fill:#F4F4F4;}
	.st2{fill:#282828;}
	.st3{fill:#12D1DB;}
	.st4{display:none;}
	.st5{display:inline;}
	.st6{display:inline;fill:none;stroke:#000000;stroke-width:1.2;stroke-miterlimit:10;}
	.st7{fill:#393C44;}
	.st8{fill:#515A5D;}
	.st9{fill:#12D1DB;stroke:#12D1DB;stroke-miterlimit:10;}
	.st10{fill:#515A5D;stroke:#515A5D;stroke-width:2;stroke-miterlimit:10;}
	.st11{fill:#A6E0DD;}
	.st12{fill:none;stroke:#515A5D;stroke-width:5;stroke-linecap:round;stroke-linejoin:round;stroke-miterlimit:10;}
</style>
<g>
	<g>
		<g>
			<path class="st8" d="M23.5,124h-16c-4.1,0-7.5-3.4-7.5-7.5V7.5C0,3.4,3.4,0,7.5,0h80C91.6,0,95,3.4,95,7.5v44.2
				c0,1.4-1.1,2.5-2.5,2.5S90,53.1,90,51.7V7.5C90,6.1,88.9,5,87.5,5h-80C6.1,5,5,6.1,5,7.5v109c0,1.4,1.1,2.5,2.5,2.5h16
				c1.4,0,2.5,1.1,2.5,2.5S24.9,124,23.5,124z"/>
		</g>
		<g>
			<path class="st8" d="M29.2,39.5c-6.3,0-11.3-5.1-11.3-11.3s5.1-11.3,11.3-11.3s11.3,5.1,11.3,11.3S35.4,39.5,29.2,39.5z
				 M29.2,21.8c-3.5,0-6.3,2.8-6.3,6.3s2.8,6.3,6.3,6.3s6.3-2.8,6.3-6.3S32.7,21.8,29.2,21.8z"/>
		</g>
		<g>
			<path class="st8" d="M74.9,30.6H53.4c-1.4,0-2.5-1.1-2.5-2.5s1.1-2.5,2.5-2.5h21.5c1.4,0,2.5,1.1,2.5,2.5S76.3,30.6,74.9,30.6z"
				/>
		</g>
		<g>
			<path class="st8" d="M29.2,73.3c-6.3,0-11.3-5.1-11.3-11.3s5.1-11.3,11.3-11.3S40.5,55.7,40.5,62S35.4,73.3,29.2,73.3z
				 M29.2,55.7c-3.5,0-6.3,2.8-6.3,6.3s2.8,6.3,6.3,6.3s6.3-2.8,6.3-6.3S32.7,55.7,29.2,55.7z"/>
		</g>
		<g>
			<path class="st8" d="M74.9,64.5H53.4c-1.4,0-2.5-1.1-2.5-2.5s1.1-2.5,2.5-2.5h21.5c1.4,0,2.5,1.1,2.5,2.5S76.3,64.5,74.9,64.5z"
				/>
		</g>
		<g>
			<path class="st8" d="M29.2,107.2c-6.3,0-11.3-5.1-11.3-11.3s5.1-11.3,11.3-11.3s11.3,5.1,11.3,11.3S35.4,107.2,29.2,107.2z
				 M29.2,89.5c-3.5,0-6.3,2.8-6.3,6.3s2.8,6.3,6.3,6.3s6.3-2.8,6.3-6.3S32.7,89.5,29.2,89.5z"/>
		</g>
	</g>
	<g>
		<g>
			<g>
				<path class="st3" d="M33,117.7c0,0,48.3,72.8,117,0C81.4,44.9,33,117.7,33,117.7z M91.5,141.3c-13.1,0-23.7-10.6-23.7-23.7
					S78.5,94,91.5,94s23.7,10.6,23.7,23.7S104.6,141.3,91.5,141.3z"/>
			</g>
			<g>
				<path class="st3" d="M92.5,106.7c0.1,0.4,0.1,0.9,0.1,1.3c0,5.4-4.3,9.7-9.7,9.7c-0.8,0-1.6-0.1-2.4-0.3c0,0.1,0,0.2,0,0.3
					c0,6.1,4.9,11,11,11s11-4.9,11-11C102.6,111.9,98.1,107.2,92.5,106.7z"/>
			</g>
		</g>
		<g>
			<path class="st3" d="M91.5,81.4c-1.9,0-3.5-1.6-3.5-3.5V64.8c0-1.9,1.6-3.5,3.5-3.5s3.5,1.6,3.5,3.5v13.2
				C95,79.9,93.4,81.4,91.5,81.4z"/>
		</g>
		<g>
			<path class="st3" d="M56.9,90.8c-0.9,0-1.8-0.3-2.5-1l-9.3-9.3c-1.4-1.4-1.4-3.6,0-4.9c1.4-1.4,3.6-1.4,4.9,0l9.3,9.3
				c1.4,1.4,1.4,3.6,0,4.9C58.7,90.4,57.8,90.8,56.9,90.8z"/>
		</g>
		<g>
			<path class="st3" d="M125.9,90.8c-0.9,0-1.8-0.3-2.5-1c-1.4-1.4-1.4-3.6,0-4.9l9.3-9.3c1.4-1.4,3.6-1.4,4.9,0
				c1.4,1.4,1.4,3.6,0,4.9l-9.3,9.3C127.7,90.4,126.8,90.8,125.9,90.8z"/>
		</g>
	</g>
</g>
</svg>
