<?xml version="1.0" encoding="utf-8"?>
<!-- Generator: Adobe Illustrator 21.1.0, SVG Export Plug-In . SVG Version: 6.00 Build 0)  -->
<svg version="1.1" id="Layer_1" xmlns="http://www.w3.org/2000/svg" xmlns:xlink="http://www.w3.org/1999/xlink" x="0px" y="0px"
	 viewBox="0 0 150 150" style="enable-background:new 0 0 150 150;" xml:space="preserve">
<style type="text/css">
	.st0{fill:#FFFFFF;}
	.st1{fill:#F4F4F4;}
	.st2{fill:#282828;}
	.st3{fill:#12D1DB;}
	.st4{display:none;}
	.st5{display:inline;}
	.st6{display:inline;fill:none;stroke:#000000;stroke-width:1.2;stroke-miterlimit:10;}
	.st7{fill:#393C44;}
	.st8{fill:#515A5D;}
	.st9{fill:#12D1DB;stroke:#12D1DB;stroke-miterlimit:10;}
	.st10{fill:#515A5D;stroke:#515A5D;stroke-width:2;stroke-miterlimit:10;}
	.st11{fill:#A6E0DD;}
	.st12{fill:none;stroke:#515A5D;stroke-width:5;stroke-linecap:round;stroke-linejoin:round;stroke-miterlimit:10;}
</style>
<g>
	<g>
		<path class="st8" d="M99.4,150H24.3c-5.2,0-9.5-4.3-9.5-9.5V9.5c0-5.2,4.3-9.5,9.5-9.5h75.1c5.2,0,9.5,4.3,9.5,9.5v14
			c0,1.4-1.1,2.5-2.5,2.5s-2.5-1.1-2.5-2.5v-14c0-2.5-2-4.5-4.5-4.5H24.3c-2.5,0-4.5,2-4.5,4.5v131c0,2.5,2,4.5,4.5,4.5h75.1
			c2.5,0,4.5-2,4.5-4.5V89.3c0-1.4,1.1-2.5,2.5-2.5s2.5,1.1,2.5,2.5v51.2C108.9,145.7,104.7,150,99.4,150z"/>
	</g>
	<g>
		<path class="st8" d="M92.3,116.9h-61c-1.4,0-2.5-1.1-2.5-2.5V16.1c0-1.4,1.1-2.5,2.5-2.5h61c1.4,0,2.5,1.1,2.5,2.5v5.7
			c0,1.4-1.1,2.5-2.5,2.5s-2.5-1.1-2.5-2.5v-3.2h-56v93.4h56V97.3c0-1.4,1.1-2.5,2.5-2.5s2.5,1.1,2.5,2.5v17.1
			C94.8,115.8,93.7,116.9,92.3,116.9z"/>
	</g>
	<g>
		<path class="st8" d="M61.9,141.6c-5.7,0-10.4-4.7-10.4-10.4s4.7-10.4,10.4-10.4c5.7,0,10.4,4.7,10.4,10.4S67.6,141.6,61.9,141.6z
			 M61.9,125.8c-3,0-5.4,2.4-5.4,5.4s2.4,5.4,5.4,5.4c3,0,5.4-2.4,5.4-5.4S64.8,125.8,61.9,125.8z"/>
	</g>
	<g>
		<path class="st3" d="M130.8,30.7H63.9c-2.4,0-4.4,2-4.4,4.4v41.9c0,2.4,2,4.4,4.4,4.4h6.5c1.8,0,3.3,1.5,3.3,3.3l0,11.3
			c0,2,2.4,2.9,3.8,1.5l20.8-15.1c0.6-0.6,1.5-1,2.4-1h30.2c2.4,0,4.4-2,4.4-4.4V35C135.2,32.6,133.2,30.7,130.8,30.7z M111.6,72.6
			H71c-1.4,0-2.5-1.1-2.5-2.5s1.1-2.5,2.5-2.5h40.7c1.4,0,2.5,1.1,2.5,2.5S113,72.6,111.6,72.6z M123.8,59.9H71
			c-1.4,0-2.5-1.1-2.5-2.5s1.1-2.5,2.5-2.5h52.8c1.4,0,2.5,1.1,2.5,2.5S125.2,59.9,123.8,59.9z M123.8,47.2H71
			c-1.4,0-2.5-1.1-2.5-2.5s1.1-2.5,2.5-2.5h52.8c1.4,0,2.5,1.1,2.5,2.5S125.2,47.2,123.8,47.2z"/>
	</g>
</g>
</svg>
