<?xml version="1.0" encoding="utf-8"?>
<!-- Generator: Adobe Illustrator 21.0.2, SVG Export Plug-In . SVG Version: 6.00 Build 0)  -->
<svg version="1.1" id="Layer_1" xmlns="http://www.w3.org/2000/svg" xmlns:xlink="http://www.w3.org/1999/xlink" x="0px" y="0px"
	 viewBox="0 0 150 150" style="enable-background:new 0 0 150 150;" xml:space="preserve">
<style type="text/css">
	.st0{fill:#FFFFFF;}
	.st1{fill:#F4F4F4;}
	.st2{fill:#282828;}
	.st3{fill:#12D1DB;}
	.st4{display:none;}
	.st5{display:inline;}
	.st6{display:inline;fill:none;stroke:#000000;stroke-width:1.2;stroke-miterlimit:10;}
	.st7{fill:#393C44;}
</style>
<g>
	<path class="st7" d="M58.1,138.1c0,0-0.1,0-0.1,0c-1.6-0.1-2.9-1.2-3.2-2.8l-16.5-101l-10.6,54c-0.3,1.6-1.7,2.7-3.3,2.7H3.4
		C1.5,91,0,89.5,0,87.6s1.5-3.4,3.4-3.4h18.2l13.7-69.6c0.3-1.6,1.7-2.7,3.3-2.7c0,0,0,0,0.1,0c1.6,0,3,1.2,3.3,2.8l16.8,103.1
		l17-69.5c0.4-1.5,1.7-2.6,3.2-2.6c0,0,0,0,0,0c1.5,0,2.9,1,3.3,2.5l9.8,37l8.5-20.4c0.5-1.2,1.7-2,3-2.1c1.3-0.1,2.5,0.7,3.1,1.9
		l7.6,15.3h32.2c1.9,0,3.4,1.5,3.4,3.4s-1.5,3.4-3.4,3.4h-34.3c-1.3,0-2.5-0.7-3-1.9l-5.3-10.5L94.5,97c-0.6,1.3-1.9,2.1-3.3,2.1
		c-1.4-0.1-2.7-1.1-3-2.5l-9-33.8l-17.8,72.8C61,137,59.7,138.1,58.1,138.1z"/>
</g>
</svg>
