<?xml version="1.0" encoding="utf-8"?>
<!-- Generator: Adobe Illustrator 21.1.0, SVG Export Plug-In . SVG Version: 6.00 Build 0)  -->
<svg version="1.1" id="Layer_1" xmlns="http://www.w3.org/2000/svg" xmlns:xlink="http://www.w3.org/1999/xlink" x="0px" y="0px"
	 viewBox="0 0 150 150" style="enable-background:new 0 0 150 150;" xml:space="preserve">
<style type="text/css">
	.st0{fill:#FFFFFF;}
	.st1{fill:#F4F4F4;}
	.st2{fill:#282828;}
	.st3{fill:#12D1DB;}
	.st4{display:none;}
	.st5{display:inline;}
	.st6{display:inline;fill:none;stroke:#000000;stroke-width:1.2;stroke-miterlimit:10;}
	.st7{fill:#393C44;}
	.st8{fill:#515A5D;}
	.st9{fill:#12D1DB;stroke:#12D1DB;stroke-miterlimit:10;}
	.st10{fill:#515A5D;stroke:#515A5D;stroke-width:2;stroke-miterlimit:10;}
	.st11{fill:#A6E0DD;}
	.st12{fill:none;stroke:#515A5D;stroke-width:5;stroke-linecap:round;stroke-linejoin:round;stroke-miterlimit:10;}
</style>
<g>
	<g>
		<path class="st8" d="M114.8,150H35.2c-5.5,0-9.9-4.3-9.9-9.5V9.5c0-5.2,4.4-9.5,9.9-9.5h79.5c5.5,0,9.9,4.3,9.9,9.5v131
			C124.7,145.7,120.2,150,114.8,150z M35.2,5c-2.7,0-4.9,2-4.9,4.5v131c0,2.5,2.2,4.5,4.9,4.5h79.5c2.7,0,4.9-2,4.9-4.5V9.5
			c0-2.5-2.2-4.5-4.9-4.5H35.2z"/>
	</g>
	<g>
		<path class="st8" d="M110.2,116.9H39.8c-1.4,0-2.5-1.1-2.5-2.5V16.1c0-1.4,1.1-2.5,2.5-2.5h70.3c1.4,0,2.5,1.1,2.5,2.5v98.4
			C112.7,115.8,111.5,116.9,110.2,116.9z M42.3,111.9h65.3V18.6H42.3V111.9z"/>
	</g>
	<g>
		<path class="st8" d="M75,141.6c-5.7,0-10.4-4.7-10.4-10.4s4.7-10.4,10.4-10.4s10.4,4.7,10.4,10.4S80.7,141.6,75,141.6z M75,125.8
			c-3,0-5.4,2.4-5.4,5.4s2.4,5.4,5.4,5.4s5.4-2.4,5.4-5.4S78,125.8,75,125.8z"/>
	</g>
	<path class="st3" d="M42.3,18.6v33.4h65.3V18.6H42.3z M65.8,39H54.4c-1.4,0-2.5-1.1-2.5-2.5S53,34,54.4,34h11.4
		c1.4,0,2.5,1.1,2.5,2.5S67.2,39,65.8,39z M95.6,29.2H54.4c-1.4,0-2.5-1.1-2.5-2.5s1.1-2.5,2.5-2.5h41.2c1.4,0,2.5,1.1,2.5,2.5
		S97,29.2,95.6,29.2z"/>
</g>
</svg>
