<?xml version="1.0" encoding="utf-8"?>
<!-- Generator: Adobe Illustrator 21.1.0, SVG Export Plug-In . SVG Version: 6.00 Build 0)  -->
<svg version="1.1" id="Layer_1" xmlns="http://www.w3.org/2000/svg" xmlns:xlink="http://www.w3.org/1999/xlink" x="0px" y="0px"
	 viewBox="0 0 150 150" style="enable-background:new 0 0 150 150;" xml:space="preserve">
<style type="text/css">
	.st0{fill:#FFFFFF;}
	.st1{fill:#F4F4F4;}
	.st2{fill:#282828;}
	.st3{fill:#12D1DB;}
	.st4{display:none;}
	.st5{display:inline;}
	.st6{display:inline;fill:none;stroke:#000000;stroke-width:1.2;stroke-miterlimit:10;}
	.st7{fill:#393C44;}
	.st8{fill:#515A5D;}
	.st9{fill:#12D1DB;stroke:#12D1DB;stroke-miterlimit:10;}
	.st10{fill:#515A5D;stroke:#515A5D;stroke-width:2;stroke-miterlimit:10;}
	.st11{fill:#A6E0DD;}
	.st12{fill:none;stroke:#515A5D;stroke-width:5;stroke-linecap:round;stroke-linejoin:round;stroke-miterlimit:10;}
</style>
<g>
	<g>
		<path class="st8" d="M75,147.5c-0.4,0-0.7-0.1-1.1-0.2l-72-27c-1.2-0.4-1.9-1.6-1.9-2.8v-85c0-1.3,0.8-2.4,1.9-2.8l72-27
			c0.7-0.3,1.4-0.3,2.1,0l72,27c1.2,0.4,1.9,1.6,1.9,2.8v85c0,1.3-0.8,2.4-1.9,2.8l-72,27C75.7,147.4,75.4,147.5,75,147.5z M6,115.4
			l69,25.9l69-25.9V34.6L75,8.7L6,34.6V115.4z"/>
	</g>
	<g>
		<polygon class="st11" points="28.2,71.7 28.2,41.7 53.2,31 72.2,38.6 48.7,49.5 48.7,79.3 		"/>
		<path class="st11" d="M48.7,80.8c-0.2,0-0.4,0-0.5-0.1l-20.5-7.6c-0.6-0.2-1-0.8-1-1.4v-30c0-0.6,0.4-1.1,0.9-1.4l25-10.7
			c0.4-0.2,0.8-0.2,1.1,0l19,7.6c0.6,0.2,0.9,0.8,0.9,1.4c0,0.6-0.3,1.1-0.9,1.4L50.2,50.5v28.8c0,0.5-0.2,1-0.6,1.2
			C49.3,80.7,49,80.8,48.7,80.8z M29.7,70.7l17.5,6.5V49.5c0-0.6,0.3-1.1,0.9-1.4l20.3-9.4l-15.2-6.1l-23.5,10V70.7z"/>
	</g>
	<g>
		<polygon class="st3" points="135.8,103.3 87.3,125.2 87.3,92.4 135.8,70.5 		"/>
	</g>
	<g>
		<path class="st8" d="M20.9,42.5c-0.4,0-0.7-0.1-1.1-0.2l-17.9-7c-1.5-0.6-2.3-2.3-1.7-3.9c0.6-1.5,2.3-2.3,3.9-1.7l17.9,7
			c1.5,0.6,2.3,2.3,1.7,3.9C23.2,41.7,22.1,42.5,20.9,42.5z"/>
	</g>
	<g>
		<path class="st8" d="M75,147.5c-1.7,0-3-1.3-3-3V62.6l-13.4-5.2c-1.5-0.6-2.3-2.3-1.7-3.9c0.6-1.5,2.3-2.3,3.9-1.7L75,57.3
			l70.9-27.6c1.5-0.6,3.3,0.2,3.9,1.7c0.1,0.4,0.2,0.7,0.2,1.1c0,1.2-0.7,2.3-1.9,2.8L78,62.6v81.9C78,146.2,76.7,147.5,75,147.5z"
			/>
	</g>
	<g>
		<path class="st8" d="M55,125.2c-0.4,0-0.7-0.1-1.1-0.2l-40-15c-1.6-0.6-2.3-2.3-1.8-3.9c0.6-1.6,2.3-2.3,3.9-1.8l40,15
			c1.6,0.6,2.3,2.3,1.8,3.9C57.3,124.5,56.2,125.2,55,125.2z"/>
	</g>
	<g>
		<path class="st8" d="M35.9,105.3c-0.4,0-0.7-0.1-1.1-0.2L13.2,97c-1.6-0.6-2.3-2.3-1.8-3.9c0.6-1.6,2.3-2.3,3.9-1.8L37,99.5
			c1.6,0.6,2.3,2.3,1.8,3.9C38.3,104.5,37.1,105.3,35.9,105.3z"/>
	</g>
</g>
</svg>
