<?xml version="1.0" encoding="utf-8"?>
<!-- Generator: Adobe Illustrator 21.1.0, SVG Export Plug-In . SVG Version: 6.00 Build 0)  -->
<svg version="1.1" id="Layer_1" xmlns="http://www.w3.org/2000/svg" xmlns:xlink="http://www.w3.org/1999/xlink" x="0px" y="0px"
	 viewBox="0 0 150 150" style="enable-background:new 0 0 150 150;" xml:space="preserve">
<style type="text/css">
	.st0{fill:#FFFFFF;}
	.st1{fill:#F4F4F4;}
	.st2{fill:#282828;}
	.st3{fill:#12D1DB;}
	.st4{display:none;}
	.st5{display:inline;}
	.st6{display:inline;fill:none;stroke:#000000;stroke-width:1.2;stroke-miterlimit:10;}
	.st7{fill:#393C44;}
	.st8{fill:#515A5D;}
	.st9{fill:#12D1DB;stroke:#12D1DB;stroke-miterlimit:10;}
	.st10{fill:#515A5D;stroke:#515A5D;stroke-width:2;stroke-miterlimit:10;}
	.st11{fill:#A6E0DD;}
</style>
<g>
	<g>
		<g>
			<g>
				<path class="st8" d="M149,149H70.1V70.1H149V149z M73.2,145.9h72.7V73.2H73.2V145.9z"/>
				<path class="st8" d="M150,150H69.1V69.1H150V150z M71.1,148H148V71.1H71.1V148z M146.9,146.9H72.2V72.2h74.7V146.9z M74.2,144.9
					h70.7V74.2H74.2V144.9z"/>
			</g>
		</g>
		<g>
			<g>
				<path class="st8" d="M127,129.1h-2.2c-0.3,0-0.5-0.1-0.6-0.2c-0.2-0.1-0.3-0.3-0.4-0.5l-4.6-11.4H100l-4.6,11.4
					c-0.1,0.2-0.2,0.4-0.4,0.5c-0.2,0.1-0.4,0.2-0.7,0.2h-2.2l16-39.1h2.8L127,129.1z M100.8,114.9h17.5l-8-19.8
					c-0.1-0.3-0.3-0.7-0.4-1.1c-0.1-0.4-0.3-0.8-0.4-1.3c-0.1,0.4-0.3,0.9-0.4,1.3c-0.1,0.4-0.3,0.8-0.4,1.1L100.8,114.9z"/>
				<path class="st8" d="M128.3,130h-3.5c-0.5,0-0.9-0.1-1.2-0.4c-0.3-0.2-0.5-0.5-0.6-0.9l-4.4-10.8h-18l-4.4,10.8
					c-0.1,0.3-0.3,0.6-0.6,0.9c-0.3,0.3-0.8,0.4-1.2,0.4h-3.4l16.7-40.8h4L128.3,130z M124.7,128.3
					C124.7,128.3,124.7,128.3,124.7,128.3l1,0l-15.3-37.4h-0.5l0.5,1.7c0.1,0.4,0.3,0.8,0.4,1.2c0.1,0.4,0.2,0.7,0.4,1l8.5,20.9
					H99.5l8.5-20.9c0.1-0.3,0.2-0.7,0.4-1c0.1-0.4,0.3-0.8,0.4-1.2l0.5-1.7h-0.5l-15.3,37.4h0.9c0.1,0,0.1,0,0.1,0
					c0.1-0.1,0.1-0.1,0.1-0.1l4.8-11.9h20.4l4.8,11.9C124.6,128.1,124.7,128.2,124.7,128.3L124.7,128.3z M102.1,114.1h15l-7.5-18.5
					L102.1,114.1z"/>
			</g>
		</g>
	</g>
	<g>
		<path class="st3" d="M63.3,83.9c-3.8-3.4-6.7-7-8.7-10.8c-4.7,11-15,18.5-30.6,22.2l-1.3,0.3l-3.8-6.6l2.6-0.5
			c15-2.9,24.2-9.9,28.3-21.3H27.4V40.2H34v20.2h17c0.1-4.3,0.2-11.7,0.2-22.1H20.8v-6.9h30.3v-9.2h6.6v9.2H88v6.9H57.7l0.1,22.1
			h16.8V40.2h6.5v22.4h27.7V0H0v117.6h63.3V83.9z"/>
		<path class="st3" d="M63.3,74.4v-7.1H59C60,69.8,61.5,72.1,63.3,74.4z"/>
	</g>
</g>
</svg>
