<?xml version="1.0" encoding="utf-8"?>
<!-- Generator: Adobe Illustrator 21.1.0, SVG Export Plug-In . SVG Version: 6.00 Build 0)  -->
<svg version="1.1" id="Layer_1" xmlns="http://www.w3.org/2000/svg" xmlns:xlink="http://www.w3.org/1999/xlink" x="0px" y="0px"
	 viewBox="0 0 150 150" style="enable-background:new 0 0 150 150;" xml:space="preserve">
<style type="text/css">
	.st0{fill:#FFFFFF;}
	.st1{fill:#F4F4F4;}
	.st2{fill:#282828;}
	.st3{fill:#12D1DB;}
	.st4{display:none;}
	.st5{display:inline;}
	.st6{display:inline;fill:none;stroke:#000000;stroke-width:1.2;stroke-miterlimit:10;}
	.st7{fill:#393C44;}
	.st8{fill:#515A5D;}
	.st9{fill:#12D1DB;stroke:#12D1DB;stroke-miterlimit:10;}
	.st10{fill:#515A5D;stroke:#515A5D;stroke-width:2;stroke-miterlimit:10;}
	.st11{fill:#A6E0DD;}
	.st12{fill:none;stroke:#515A5D;stroke-width:5;stroke-linecap:round;stroke-linejoin:round;stroke-miterlimit:10;}
</style>
<g>
	<g>
		<g>
			<path class="st8" d="M12.8,107c-0.3,0-0.7-0.1-1-0.2c-0.9-0.4-1.5-1.3-1.5-2.3L8,86.1c-3.8-1.1-6.7-4.6-6.7-8.8V9.2
				C1.3,4.1,5.4,0,10.5,0h65.2c5.1,0,9.2,4.1,9.2,9.2v31.6c0,1.4-1.1,2.5-2.5,2.5s-2.5-1.1-2.5-2.5V9.2c0-2.3-1.9-4.2-4.2-4.2H10.5
				C8.2,5,6.3,6.9,6.3,9.2v68.1c0,2.3,1.9,4.2,4.2,4.2c1.4,0,2.5,1.1,2.5,2.5l2.3,14.8L33,82.1c0.5-0.4,1.1-0.7,1.7-0.7h15.5
				c1.4,0,2.5,1.1,2.5,2.5s-1.1,2.5-2.5,2.5H35.7l-21.2,19.9C14,106.8,13.4,107,12.8,107z"/>
		</g>
		<g>
			<path class="st8" d="M67.8,26.2H18.6c-1.3,0-2.4-1.1-2.4-2.4v0c0-1.3,1.1-2.4,2.4-2.4h49.2c1.3,0,2.4,1.1,2.4,2.4v0
				C70.2,25.1,69.1,26.2,67.8,26.2z"/>
		</g>
		<g>
			<path class="st8" d="M67.8,39.5H18.6c-1.3,0-2.4-1.1-2.4-2.4v0c0-1.3,1.1-2.4,2.4-2.4h49.2c1.3,0,2.4,1.1,2.4,2.4v0
				C70.2,38.4,69.1,39.5,67.8,39.5z"/>
		</g>
		<g>
			<path class="st8" d="M67.8,52.8H18.6c-1.3,0-2.4-1.1-2.4-2.4v0c0-1.3,1.1-2.4,2.4-2.4h49.2c1.3,0,2.4,1.1,2.4,2.4v0
				C70.2,51.8,69.1,52.8,67.8,52.8z"/>
		</g>
		<g>
			<path class="st8" d="M18.6,61.4c-1.3,0-2.4,1.1-2.4,2.4c0,1.3,1.1,2.4,2.4,2.4h21.6c-0.9-1.6-1.7-3.2-2.3-4.8H18.6z"/>
		</g>
	</g>
	<g>
		<g>
			<polygon class="st3" points="130.8,79.8 107.5,65.8 111.4,38.9 126.8,31.7 122.9,58.5 146.2,72.5 			"/>
		</g>
		<g>
			<polygon class="st3" points="53.7,66.3 72.5,57.4 91.7,98.3 73,107.1 			"/>
		</g>
		<g>
			<path class="st3" d="M73,109.6c-0.3,0-0.6,0-0.8-0.1c-0.6-0.2-1.1-0.7-1.4-1.3L51.4,67.4c-0.6-1.2-0.1-2.7,1.2-3.3l73.2-34.7
				c0.8-0.4,1.8-0.3,2.6,0.3c0.7,0.5,1.1,1.5,1,2.4l-3.7,25.2l21.9,13.1c0.8,0.5,1.3,1.3,1.2,2.3c0,0.9-0.6,1.7-1.4,2.1l-73.2,34.7
				C73.8,109.5,73.4,109.6,73,109.6z M57,67.5l17.2,36.3l66.7-31.6l-19.3-11.5c-0.9-0.5-1.3-1.5-1.2-2.5l3.3-22.2L57,67.5z"/>
		</g>
		<g>
			<path class="st8" d="M92.1,150c-0.9,0-1.8-0.5-2.3-1.4L48.4,61c-0.6-1.2-0.1-2.7,1.2-3.3c1.2-0.6,2.7-0.1,3.3,1.2l41.5,87.6
				c0.6,1.2,0.1,2.7-1.2,3.3C92.9,149.9,92.5,150,92.1,150z"/>
		</g>
	</g>
</g>
</svg>
