<?xml version="1.0" encoding="utf-8"?>
<!-- Generator: Adobe Illustrator 21.0.2, SVG Export Plug-In . SVG Version: 6.00 Build 0)  -->
<svg version="1.1" id="Layer_1" xmlns="http://www.w3.org/2000/svg" xmlns:xlink="http://www.w3.org/1999/xlink" x="0px" y="0px"
	 viewBox="0 0 150 150" style="enable-background:new 0 0 150 150;" xml:space="preserve">
<style type="text/css">
	.st0{fill:#FFFFFF;}
	.st1{fill:#F4F4F4;}
	.st2{fill:#282828;}
	.st3{fill:#12D1DB;}
	.st4{display:none;}
	.st5{display:inline;}
	.st6{display:inline;fill:none;stroke:#000000;stroke-width:1.2;stroke-miterlimit:10;}
	.st7{fill:#393C44;}
</style>
<g>
	<g>
		<path class="st7" d="M64.7,18.8h-6.3V15c0-8.3,6.7-15,15-15c8.3,0,15,6.7,15,15v3.7h-6.3V15c0-4.8-3.9-8.8-8.8-8.8
			s-8.8,3.9-8.8,8.8V18.8z"/>
	</g>
	<path class="st7" d="M76.6,143.5c-1,0.2-2.1,0.3-3.2,0.3c-9.4,0-17.6-6.7-19.5-15.9l-6.1,1.3c2.5,12.1,13.2,20.9,25.6,20.9
		c4.1,0,8-1,11.5-2.7C82.1,146.3,79.3,145,76.6,143.5z"/>
	<g>
		<path class="st7" d="M58.7,124.9H8c1.4-9.1,8.8-16.4,18.2-17.6L29,107V64.9c0-24.5,20-44.5,44.5-44.5c22,0,40.3,16.1,43.9,37.1
			c2.3,0.9,4.6,1.9,6.7,3.1c-2.2-26-24-46.5-50.6-46.5c-28,0-50.8,22.8-50.8,50.8v36.7C10.5,104.4,1.6,115.3,1.5,128l0,3.2h61.3
			C61.3,129.2,59.9,127.1,58.7,124.9z"/>
	</g>
	<g>
		<g>
			<g>
				<path class="st7" d="M106.9,150c-7,0-11.4-5.2-14.9-9.4c-1.4-1.6-2.9-3.5-3.9-4.1c-1.1-0.6-3.7-1.1-5.8-1.5
					c-5.3-1-11.9-2.2-15.3-8c-3.3-5.7-1.1-11.9,0.6-16.9c0.8-2.2,1.6-4.7,1.6-6.1c0-1.5-0.9-3.9-1.6-6.1c-1.8-5-3.9-11.2-0.6-16.9
					c3.4-5.9,10-7.1,15.2-8c2.1-0.4,4.7-0.9,5.8-1.5c1-0.6,2.6-2.4,3.9-4.1c3.5-4.2,7.9-9.4,14.9-9.4c7,0,11.4,5.2,14.9,9.4
					c1.4,1.6,2.9,3.5,3.9,4.1c1.1,0.6,3.7,1.1,5.8,1.5c5.3,1,11.9,2.2,15.3,8c3.3,5.7,1.1,11.9-0.6,16.9c-0.8,2.2-1.6,4.7-1.6,6.1
					s0.9,3.9,1.6,6.1c1.8,5,3.9,11.2,0.6,16.9c-3.4,5.9-10,7.1-15.2,8c-2.1,0.4-4.7,0.9-5.8,1.5c-1,0.6-2.6,2.4-3.9,4.1
					C118.3,144.8,113.9,150,106.9,150z M106.9,65.1c-3.7,0-6.6,3.5-9.4,6.8c-1.9,2.3-3.7,4.5-5.8,5.7c-2.2,1.3-5.2,1.8-8.1,2.3
					c-5.4,1-8.7,1.8-10.4,4.6c-1.7,2.9-0.3,6.8,1.2,11c1,2.9,2,5.8,2,8.5c0,2.7-1,5.6-2,8.5c-1.5,4.2-2.9,8.1-1.2,11
					c1.6,2.8,5,3.6,10.4,4.6c2.9,0.5,5.9,1.1,8.1,2.3c2.1,1.2,3.9,3.4,5.8,5.7c2.8,3.4,5.7,6.8,9.4,6.8c3.7,0,6.6-3.5,9.4-6.8
					c1.9-2.3,3.7-4.5,5.8-5.7c2.2-1.3,5.2-1.8,8.1-2.3c4.4-0.8,8.6-1.6,10.4-4.6c1.7-2.9,0.3-6.8-1.2-11c-1-2.9-2-5.8-2-8.5
					s1-5.6,2-8.5c1.5-4.2,2.9-8.1,1.2-11c-1.6-2.8-5-3.6-10.4-4.6c-2.9-0.5-5.9-1.1-8.1-2.3c-2.1-1.2-3.9-3.4-5.8-5.7
					C113.5,68.5,110.6,65.1,106.9,65.1z"/>
			</g>
		</g>
		<g>
			<path class="st7" d="M106.9,123.3c-10.6,0-19.3-8.7-19.3-19.3s8.7-19.3,19.3-19.3s19.3,8.7,19.3,19.3S117.6,123.3,106.9,123.3z
				 M106.9,91.8c-6.7,0-12.2,5.5-12.2,12.2s5.5,12.2,12.2,12.2s12.2-5.5,12.2-12.2S113.7,91.8,106.9,91.8z"/>
		</g>
	</g>
</g>
</svg>
