<?xml version="1.0" encoding="utf-8"?>
<!-- Generator: Adobe Illustrator 21.1.0, SVG Export Plug-In . SVG Version: 6.00 Build 0)  -->
<svg version="1.1" id="Layer_1" xmlns="http://www.w3.org/2000/svg" xmlns:xlink="http://www.w3.org/1999/xlink" x="0px" y="0px"
	 viewBox="0 0 150 150" style="enable-background:new 0 0 150 150;" xml:space="preserve">
<style type="text/css">
	.st0{fill:#FFFFFF;}
	.st1{fill:#F4F4F4;}
	.st2{fill:#282828;}
	.st3{fill:#12D1DB;}
	.st4{display:none;}
	.st5{display:inline;}
	.st6{display:inline;fill:none;stroke:#000000;stroke-width:1.2;stroke-miterlimit:10;}
	.st7{fill:#393C44;}
	.st8{fill:#515A5D;}
	.st9{fill:#12D1DB;stroke:#12D1DB;stroke-miterlimit:10;}
	.st10{fill:#515A5D;stroke:#515A5D;stroke-width:2;stroke-miterlimit:10;}
	.st11{fill:#A6E0DD;}
	.st12{fill:none;stroke:#515A5D;stroke-width:5;stroke-linecap:round;stroke-linejoin:round;stroke-miterlimit:10;}
</style>
<g>
	<g>
		<path class="st3" d="M75,75c7.4,0,13.4-6,13.4-13.4s-6-13.4-13.4-13.4s-13.4,6-13.4,13.4S67.6,75,75,75z M75,79
			c-7.8,0-23.3,5.1-23.3,15.3v7.6h46.5v-7.6C98.3,84.1,82.8,79,75,79z"/>
	</g>
	<g>
		<path class="st8" d="M75,150c-41.4,0-75-33.6-75-75c0-7.6,1.1-15.1,3.4-22.3c0.4-1.3,1.8-2.1,3.1-1.6c1.3,0.4,2.1,1.8,1.6,3.1
			C6.1,60.9,5,67.9,5,75c0,38.6,31.4,70,70,70c19.5,0,37.6-7.8,51-22.1c0.9-1,2.5-1.1,3.5-0.1c1,0.9,1.1,2.5,0.1,3.5
			C115.5,141.4,95.6,150,75,150z"/>
	</g>
	<g>
		<path class="st8" d="M143.7,100.6c-0.3,0-0.5,0-0.8-0.1c-1.3-0.4-2-1.9-1.6-3.2c2.4-7.2,3.6-14.7,3.6-22.3c0-38.6-31.4-70-70-70
			c-20.4,0-39.7,8.9-53,24.3c-0.9,1-2.5,1.2-3.5,0.3c-1-0.9-1.2-2.5-0.3-3.5C32.5,9.5,53.2,0,75,0c41.4,0,75,33.6,75,75
			c0,8.2-1.3,16.2-3.9,23.9C145.8,99.9,144.8,100.6,143.7,100.6z"/>
	</g>
	<g>
		<path class="st8" d="M75,124.3c-27.2,0-49.3-22.1-49.3-49.3S47.8,25.7,75,25.7s49.3,22.1,49.3,49.3S102.2,124.3,75,124.3z
			 M75,30.7c-24.4,0-44.3,19.9-44.3,44.3s19.9,44.3,44.3,44.3s44.3-19.9,44.3-44.3S99.4,30.7,75,30.7z"/>
	</g>
	<g>
		<path class="st8" d="M35.4,32.4H17.8c-1.4,0-2.5-1.1-2.5-2.5V12.3c0-1.4,1.1-2.5,2.5-2.5s2.5,1.1,2.5,2.5v15.1h15.1
			c1.4,0,2.5,1.1,2.5,2.5S36.8,32.4,35.4,32.4z"/>
	</g>
	<g>
		<path class="st8" d="M128.6,142.9c-1.4,0-2.5-1.1-2.5-2.5v-15.1H111c-1.4,0-2.5-1.1-2.5-2.5s1.1-2.5,2.5-2.5h17.6
			c1.4,0,2.5,1.1,2.5,2.5v17.6C131.1,141.8,130,142.9,128.6,142.9z"/>
	</g>
</g>
</svg>
