<?xml version="1.0" encoding="utf-8"?>
<!-- Generator: Adobe Illustrator 21.1.0, SVG Export Plug-In . SVG Version: 6.00 Build 0)  -->
<svg version="1.1" id="Layer_1" xmlns="http://www.w3.org/2000/svg" xmlns:xlink="http://www.w3.org/1999/xlink" x="0px" y="0px"
	 viewBox="0 0 150 150" style="enable-background:new 0 0 150 150;" xml:space="preserve">
<style type="text/css">
	.st0{fill:#FFFFFF;}
	.st1{fill:#F4F4F4;}
	.st2{fill:#282828;}
	.st3{fill:#12D1DB;}
	.st4{display:none;}
	.st5{display:inline;}
	.st6{display:inline;fill:none;stroke:#000000;stroke-width:1.2;stroke-miterlimit:10;}
	.st7{fill:#393C44;}
	.st8{fill:#515A5D;}
	.st9{fill:#12D1DB;stroke:#12D1DB;stroke-miterlimit:10;}
	.st10{fill:#515A5D;stroke:#515A5D;stroke-width:2;stroke-miterlimit:10;}
	.st11{fill:#A6E0DD;}
	.st12{fill:none;stroke:#515A5D;stroke-width:5;stroke-linecap:round;stroke-linejoin:round;stroke-miterlimit:10;}
</style>
<g>
	<g>
		<path class="st8" d="M105.8,150H9c-4.9,0-9-4.1-9-9.1V9.1C0,4.1,4,0,9,0h96.8c4.9,0,9,4.1,9,9.1v47.8c0,1.4-1.1,2.5-2.5,2.5
			s-2.5-1.1-2.5-2.5V9.1c0-2.3-1.8-4.1-3.9-4.1H9C6.8,5,5,6.8,5,9.1v131.8c0,2.3,1.8,4.1,3.9,4.1h96.8c2.2,0,3.9-1.8,3.9-4.1v-23.2
			c0-1.4,1.1-2.5,2.5-2.5s2.5,1.1,2.5,2.5v23.2C114.7,145.9,110.7,150,105.8,150z"/>
	</g>
	<g>
		<path class="st3" d="M37.8,42C43.4,42,48,37.5,48,31.9s-4.5-10.1-10.1-10.1s-10.1,4.5-10.1,10.1S32.2,42,37.8,42z M37.8,47.1
			c-6.8,0-20.3,3.4-20.3,10.1v5.1h40.6v-5.1C58.1,50.5,44.6,47.1,37.8,47.1z"/>
	</g>
	<g>
		<path class="st3" d="M96.4,31.4H70.1c-1.4,0-2.5-1.1-2.5-2.5s1.1-2.5,2.5-2.5h26.4c1.4,0,2.5,1.1,2.5,2.5S97.8,31.4,96.4,31.4z"/>
	</g>
	<g>
		<path class="st8" d="M87.9,85.2H20.7c-1.4,0-2.5-1.1-2.5-2.5s1.1-2.5,2.5-2.5h67.2c1.4,0,2.5,1.1,2.5,2.5S89.3,85.2,87.9,85.2z"/>
	</g>
	<g>
		<path class="st8" d="M71.3,104.8H20.7c-1.4,0-2.5-1.1-2.5-2.5s1.1-2.5,2.5-2.5h50.6c1.4,0,2.5,1.1,2.5,2.5S72.7,104.8,71.3,104.8z
			"/>
	</g>
	<g>
		<path class="st8" d="M65.8,124.5H20.7c-1.4,0-2.5-1.1-2.5-2.5s1.1-2.5,2.5-2.5h45.1c1.4,0,2.5,1.1,2.5,2.5S67.2,124.5,65.8,124.5z
			"/>
	</g>
	<g>
		<path class="st3" d="M96.4,46.4H70.1c-1.4,0-2.5-1.1-2.5-2.5s1.1-2.5,2.5-2.5h26.4c1.4,0,2.5,1.1,2.5,2.5S97.8,46.4,96.4,46.4z"/>
	</g>
	<g>
		<path class="st3" d="M82.9,61.4H70.1c-1.4,0-2.5-1.1-2.5-2.5s1.1-2.5,2.5-2.5h12.8c1.4,0,2.5,1.1,2.5,2.5S84.3,61.4,82.9,61.4z"/>
	</g>
	<g>
		<g>
			<polygon class="st3" points="101.5,116.1 141.4,60.5 125.9,49.5 86.1,105 			"/>
		</g>
		<g>
			<path class="st3" d="M145.1,55.4l4.1-5.7c0,0,3.4-6.9-3.3-11.7s-12.2,0.7-12.2,0.7l-4.1,5.7L145.1,55.4z"/>
		</g>
		<g>
			<polygon class="st3" points="82.4,110.2 79.8,113.8 76.6,135.6 95.3,124.8 97.8,121.2 			"/>
		</g>
	</g>
</g>
</svg>
