<?xml version="1.0" encoding="utf-8"?>
<!-- Generator: Adobe Illustrator 21.1.0, SVG Export Plug-In . SVG Version: 6.00 Build 0)  -->
<svg version="1.1" id="Layer_1" xmlns="http://www.w3.org/2000/svg" xmlns:xlink="http://www.w3.org/1999/xlink" x="0px" y="0px"
	 viewBox="0 0 150 150" style="enable-background:new 0 0 150 150;" xml:space="preserve">
<style type="text/css">
	.st0{fill:#FFFFFF;}
	.st1{fill:#F4F4F4;}
	.st2{fill:#282828;}
	.st3{fill:#12D1DB;}
	.st4{display:none;}
	.st5{display:inline;}
	.st6{display:inline;fill:none;stroke:#000000;stroke-width:1.2;stroke-miterlimit:10;}
	.st7{fill:#393C44;}
	.st8{fill:#515A5D;}
	.st9{fill:#12D1DB;stroke:#12D1DB;stroke-miterlimit:10;}
	.st10{fill:#515A5D;stroke:#515A5D;stroke-width:2;stroke-miterlimit:10;}
	.st11{fill:#A6E0DD;}
	.st12{fill:none;stroke:#515A5D;stroke-width:5;stroke-linecap:round;stroke-linejoin:round;stroke-miterlimit:10;}
</style>
<g>
	<g>
		<path d="M106.3,112.4H43.7v-12.3c0-14.4,20.1-21.6,31.3-21.6s31.3,7.2,31.3,21.6V112.4z M49.7,106.4h50.7v-6.3
			c0-9.7-16.4-15.6-25.3-15.6s-25.3,5.9-25.3,15.6V106.4z M75,76.3c-10.7,0-19.4-8.7-19.4-19.4S64.3,37.6,75,37.6
			s19.4,8.7,19.4,19.4S85.7,76.3,75,76.3z M75,43.6c-7.4,0-13.4,6-13.4,13.4s6,13.4,13.4,13.4s13.4-6,13.4-13.4S82.4,43.6,75,43.6z"
			/>
	</g>
	<g>
		<path d="M45.5,35.1H13.4V3c0-1.7,1.3-3,3-3s3,1.3,3,3v26.1h26.1c1.7,0,3,1.3,3,3S47.2,35.1,45.5,35.1z"/>
	</g>
	<g>
		<path d="M75,150c-41.4,0-75-33.6-75-75c0-1.7,1.3-3,3-3s3,1.3,3,3c0,38,31,69,69,69s69-31,69-69S113,6,75,6
			c-21.1,0-40.7,9.5-53.9,25.9c-1,1.3-2.9,1.5-4.2,0.5c-1.3-1-1.5-2.9-0.5-4.2C30.7,10.3,52.1,0,75,0c41.4,0,75,33.6,75,75
			S116.4,150,75,150z"/>
	</g>
</g>
</svg>
