<?xml version="1.0" encoding="utf-8"?>
<!-- Generator: Adobe Illustrator 21.1.0, SVG Export Plug-In . SVG Version: 6.00 Build 0)  -->
<svg version="1.1" id="Layer_1" xmlns="http://www.w3.org/2000/svg" xmlns:xlink="http://www.w3.org/1999/xlink" x="0px" y="0px"
	 viewBox="0 0 150 150" style="enable-background:new 0 0 150 150;" xml:space="preserve">
<style type="text/css">
	.st0{fill:#FFFFFF;}
	.st1{fill:#F4F4F4;}
	.st2{fill:#282828;}
	.st3{fill:#12D1DB;}
	.st4{display:none;}
	.st5{display:inline;}
	.st6{display:inline;fill:none;stroke:#000000;stroke-width:1.2;stroke-miterlimit:10;}
	.st7{fill:#393C44;}
	.st8{fill:#515A5D;}
	.st9{fill:#12D1DB;stroke:#12D1DB;stroke-miterlimit:10;}
	.st10{fill:#515A5D;stroke:#515A5D;stroke-width:2;stroke-miterlimit:10;}
	.st11{fill:#A6E0DD;}
	.st12{fill:none;stroke:#515A5D;stroke-width:5;stroke-linecap:round;stroke-linejoin:round;stroke-miterlimit:10;}
</style>
<g>
	<g>
		<path d="M36.1,129.1H2.9c-1.6,0-2.9-1.3-2.9-2.9v-15.1c0-23.6,40.4-33.2,57.2-33.2c8,0,18.3,1.8,27.4,4.8c1.5,0.5,2.3,2.1,1.8,3.6
			c-0.5,1.5-2.1,2.3-3.6,1.8c-8.5-2.8-18.3-4.6-25.6-4.6c-17.5,0-51.5,9.7-51.5,27.4v12.3h30.3c1.6,0,2.9,1.3,2.9,2.9
			C39,127.8,37.7,129.1,36.1,129.1z M57.2,68.7c-18.3,0-33.2-14.9-33.2-33.2S38.9,2.4,57.2,2.4s33.2,14.9,33.2,33.2
			S75.5,68.7,57.2,68.7z M57.2,8.1c-15.1,0-27.4,12.3-27.4,27.4s12.3,27.4,27.4,27.4s27.4-12.3,27.4-27.4S72.4,8.1,57.2,8.1z"/>
	</g>
	<g>
		<path d="M118.9,147.6c-0.4,0-0.8-0.1-1.2-0.2c-1-0.5-1.7-1.5-1.7-2.6v-9.1H55.1c-1.6,0-2.9-1.3-2.9-2.9v-27.2
			c0-1.6,1.3-2.9,2.9-2.9H116v-9.1c0-1.1,0.7-2.2,1.7-2.6c1-0.5,2.3-0.3,3.1,0.5l28.2,25.6c0.6,0.5,0.9,1.3,0.9,2.1
			c0,0.8-0.3,1.6-0.9,2.1l-28.2,25.6C120.3,147.4,119.6,147.6,118.9,147.6z M57.9,129.9h60.9c1.6,0,2.9,1.3,2.9,2.9v5.5l21-19.1
			l-21-19.1v5.5c0,1.6-1.3,2.9-2.9,2.9H57.9V129.9z"/>
	</g>
</g>
</svg>
