<?xml version="1.0" encoding="utf-8"?>
<!-- Generator: Adobe Illustrator 21.1.0, SVG Export Plug-In . SVG Version: 6.00 Build 0)  -->
<svg version="1.1" id="Layer_1" xmlns="http://www.w3.org/2000/svg" xmlns:xlink="http://www.w3.org/1999/xlink" x="0px" y="0px"
	 viewBox="0 0 150 150" style="enable-background:new 0 0 150 150;" xml:space="preserve">
<style type="text/css">
	.st0{fill:#FFFFFF;}
	.st1{fill:#F4F4F4;}
	.st2{fill:#282828;}
	.st3{fill:#12D1DB;}
	.st4{display:none;}
	.st5{display:inline;}
	.st6{display:inline;fill:none;stroke:#000000;stroke-width:1.2;stroke-miterlimit:10;}
	.st7{fill:#393C44;}
	.st8{fill:#515A5D;}
	.st9{fill:#12D1DB;stroke:#12D1DB;stroke-miterlimit:10;}
	.st10{fill:#515A5D;stroke:#515A5D;stroke-width:2;stroke-miterlimit:10;}
	.st11{fill:#A6E0DD;}
	.st12{fill:none;stroke:#515A5D;stroke-width:5;stroke-linecap:round;stroke-linejoin:round;stroke-miterlimit:10;}
</style>
<g class="st4">
	<g class="st5">
		<path d="M148,29.5L76,2.9c-0.7-0.2-1.4-0.2-2.1,0L2,29.5l0,0c-0.2,0.1-0.5,0.2-0.7,0.3C0.5,30.4,0,31.3,0,32.3v85.5
			c0,1.3,0.8,2.4,2,2.8l72,26.6c0.3,0.1,0.7,0.2,1,0.2c0.4,0,0.7-0.1,1-0.2l0,0l72-26.6c1.2-0.4,2-1.6,2-2.8V32.3
			C150,31,149.2,29.9,148,29.5z M72,140L6,115.7V36.5l13.4,5v36.2c0,1.3,0.8,2.4,2,2.8l32.3,11.9c0.3,0.1,0.7,0.2,1,0.2
			c0.6,0,1.2-0.2,1.7-0.5c0.8-0.6,1.3-1.5,1.3-2.5v-34L72,60.9L72,140L72,140z M51.7,53.4v31.9l-26.3-9.7V43.7L51.7,53.4z M31,39.4
			l23.6-8.7l23.6,8.7l-23.6,8.7L31,39.4z M75,55.6l-11.7-4.3L88,42.2c1.2-0.4,2-1.6,2-2.8s-0.8-2.4-2-2.8L55.7,24.7
			c-0.7-0.2-1.4-0.2-2.1,0L22.4,36.2l-10.8-4L75,8.9l63.4,23.4L75,55.6z M144,115.7L78,140V60.9l66-24.4V115.7z"/>
	</g>
</g>
<g>
	<g>
		<path d="M75,147.5c-0.4,0-0.7-0.1-1.1-0.2l-72-27c-1.2-0.4-1.9-1.6-1.9-2.8v-85c0-1.3,0.8-2.4,1.9-2.8l72-27
			c0.7-0.3,1.4-0.3,2.1,0l72,27c1.2,0.4,1.9,1.6,1.9,2.8v85c0,1.3-0.8,2.4-1.9,2.8l-72,27C75.7,147.4,75.4,147.5,75,147.5z M6,115.4
			l69,25.9l69-25.9V34.6L75,8.7L6,34.6V115.4z"/>
	</g>
	<g>
		<path d="M48.7,89.4c-0.4,0-0.7-0.1-1-0.2l-20.5-7.6c-1.2-0.4-2-1.6-2-2.8V41.7c0-1.2,0.7-2.3,1.8-2.8l31.1-13
			c0.7-0.3,1.5-0.3,2.3,0l19,7.6c1.1,0.4,1.9,1.5,1.9,2.7s-0.7,2.3-1.8,2.8L51.7,51.5v35c0,1-0.5,1.9-1.3,2.5
			C49.9,89.2,49.3,89.4,48.7,89.4z M31.2,76.7l14.5,5.4V49.5c0-1.2,0.7-2.3,1.8-2.7l23.1-10.3l-11.3-4.5L31.2,43.7V76.7z"/>
	</g>
	<g>
		<path d="M20.9,42.5c-0.4,0-0.7-0.1-1.1-0.2l-17.9-7c-1.5-0.6-2.3-2.3-1.7-3.9c0.6-1.5,2.3-2.3,3.9-1.7l17.9,7
			c1.5,0.6,2.3,2.3,1.7,3.9C23.2,41.7,22.1,42.5,20.9,42.5z"/>
	</g>
	<g>
		<path d="M75,147.5c-1.7,0-3-1.3-3-3V62.6l-13.4-5.2c-1.5-0.6-2.3-2.3-1.7-3.9c0.6-1.5,2.3-2.3,3.9-1.7L75,57.3l70.9-27.6
			c1.5-0.6,3.3,0.2,3.9,1.7c0.1,0.4,0.2,0.7,0.2,1.1c0,1.2-0.7,2.3-1.9,2.8L78,62.6v81.9C78,146.2,76.7,147.5,75,147.5z"/>
	</g>
	<g>
		<path d="M95,115.8c-1.2,0-2.4-0.7-2.8-2c-0.6-1.6,0.2-3.3,1.8-3.9l34.6-12.8c1.6-0.6,3.3,0.2,3.9,1.8c0.6,1.6-0.2,3.3-1.8,3.9
			L96,115.6C95.7,115.7,95.3,115.8,95,115.8z"/>
	</g>
	<g>
		<path d="M114.9,92.9c-1.2,0-2.4-0.7-2.8-2c-0.6-1.6,0.2-3.3,1.8-3.9l14.6-5.4c1.6-0.6,3.3,0.2,3.9,1.8c0.6,1.6-0.2,3.3-1.8,3.9
			l-14.6,5.4C115.6,92.8,115.2,92.9,114.9,92.9z"/>
	</g>
</g>
</svg>
